<?xml version="1.0" encoding="utf-8" standalone="no"?>
<!DOCTYPE svg PUBLIC "-//W3C//DTD SVG 1.1//EN"
  "http://www.w3.org/Graphics/SVG/1.1/DTD/svg11.dtd">
<!-- Created with matplotlib (https://matplotlib.org/) -->
<svg height="345.6pt" version="1.1" viewBox="0 0 460.8 345.6" width="460.8pt" xmlns="http://www.w3.org/2000/svg" xmlns:xlink="http://www.w3.org/1999/xlink">
 <defs>
  <style type="text/css">
*{stroke-linecap:butt;stroke-linejoin:round;}
  </style>
 </defs>
 <g id="figure_1">
  <g id="patch_1">
   <path d="M 0 345.6 
L 460.8 345.6 
L 460.8 0 
L 0 0 
z
" style="fill:#ffffff;"/>
  </g>
  <g id="axes_1">
   <g id="patch_2">
    <path d="M 57.6 307.584 
L 345.6 307.584 
L 345.6 41.472 
L 57.6 41.472 
z
" style="fill:#ffffff;"/>
   </g>
   <g id="patch_3">
    <path clip-path="url(#p04ed3d314e)" d="M 70.690909 307.584 
L 87.054545 307.584 
L 87.054545 249.097846 
L 70.690909 249.097846 
z
" style="fill:#1f77b4;"/>
   </g>
   <g id="patch_4">
    <path clip-path="url(#p04ed3d314e)" d="M 111.6 307.584 
L 127.963636 307.584 
L 127.963636 288.088615 
L 111.6 288.088615 
z
" style="fill:#1f77b4;"/>
   </g>
   <g id="patch_5">
    <path clip-path="url(#p04ed3d314e)" d="M 152.509091 307.584 
L 168.872727 307.584 
L 168.872727 268.593231 
L 152.509091 268.593231 
z
" style="fill:#1f77b4;"/>
   </g>
   <g id="patch_6">
    <path clip-path="url(#p04ed3d314e)" d="M 193.418182 307.584 
L 209.781818 307.584 
L 209.781818 288.088615 
L 193.418182 288.088615 
z
" style="fill:#1f77b4;"/>
   </g>
   <g id="patch_7">
    <path clip-path="url(#p04ed3d314e)" d="M 234.327273 307.584 
L 250.690909 307.584 
L 250.690909 268.593231 
L 234.327273 268.593231 
z
" style="fill:#1f77b4;"/>
   </g>
   <g id="patch_8">
    <path clip-path="url(#p04ed3d314e)" d="M 275.236364 307.584 
L 291.6 307.584 
L 291.6 288.088615 
L 275.236364 288.088615 
z
" style="fill:#1f77b4;"/>
   </g>
   <g id="patch_9">
    <path clip-path="url(#p04ed3d314e)" d="M 316.145455 307.584 
L 332.509091 307.584 
L 332.509091 288.088615 
L 316.145455 288.088615 
z
" style="fill:#1f77b4;"/>
   </g>
   <g id="patch_10">
    <path clip-path="url(#p04ed3d314e)" d="M 70.690909 249.097846 
L 87.054545 249.097846 
L 87.054545 210.107077 
L 70.690909 210.107077 
z
" style="fill:#ff7f0e;"/>
   </g>
   <g id="patch_11">
    <path clip-path="url(#p04ed3d314e)" d="M 111.6 288.088615 
L 127.963636 288.088615 
L 127.963636 268.593231 
L 111.6 268.593231 
z
" style="fill:#ff7f0e;"/>
   </g>
   <g id="patch_12">
    <path clip-path="url(#p04ed3d314e)" d="M 152.509091 268.593231 
L 168.872727 268.593231 
L 168.872727 229.602462 
L 152.509091 229.602462 
z
" style="fill:#ff7f0e;"/>
   </g>
   <g id="patch_13">
    <path clip-path="url(#p04ed3d314e)" d="M 193.418182 288.088615 
L 209.781818 288.088615 
L 209.781818 229.602462 
L 193.418182 229.602462 
z
" style="fill:#ff7f0e;"/>
   </g>
   <g id="patch_14">
    <path clip-path="url(#p04ed3d314e)" d="M 234.327273 268.593231 
L 250.690909 268.593231 
L 250.690909 229.602462 
L 234.327273 229.602462 
z
" style="fill:#ff7f0e;"/>
   </g>
   <g id="patch_15">
    <path clip-path="url(#p04ed3d314e)" d="M 275.236364 288.088615 
L 291.6 288.088615 
L 291.6 249.097846 
L 275.236364 249.097846 
z
" style="fill:#ff7f0e;"/>
   </g>
   <g id="patch_16">
    <path clip-path="url(#p04ed3d314e)" d="M 316.145455 288.088615 
L 332.509091 288.088615 
L 332.509091 268.593231 
L 316.145455 268.593231 
z
" style="fill:#ff7f0e;"/>
   </g>
   <g id="patch_17">
    <path clip-path="url(#p04ed3d314e)" d="M 70.690909 210.107077 
L 87.054545 210.107077 
L 87.054545 190.611692 
L 70.690909 190.611692 
z
" style="fill:#2ca02c;"/>
   </g>
   <g id="patch_18">
    <path clip-path="url(#p04ed3d314e)" d="M 111.6 268.593231 
L 127.963636 268.593231 
L 127.963636 229.602462 
L 111.6 229.602462 
z
" style="fill:#2ca02c;"/>
   </g>
   <g id="patch_19">
    <path clip-path="url(#p04ed3d314e)" d="M 152.509091 229.602462 
L 168.872727 229.602462 
L 168.872727 190.611692 
L 152.509091 190.611692 
z
" style="fill:#2ca02c;"/>
   </g>
   <g id="patch_20">
    <path clip-path="url(#p04ed3d314e)" d="M 193.418182 229.602462 
L 209.781818 229.602462 
L 209.781818 171.116308 
L 193.418182 171.116308 
z
" style="fill:#2ca02c;"/>
   </g>
   <g id="patch_21">
    <path clip-path="url(#p04ed3d314e)" d="M 234.327273 229.602462 
L 250.690909 229.602462 
L 250.690909 229.602462 
L 234.327273 229.602462 
z
" style="fill:#2ca02c;"/>
   </g>
   <g id="patch_22">
    <path clip-path="url(#p04ed3d314e)" d="M 275.236364 249.097846 
L 291.6 249.097846 
L 291.6 190.611692 
L 275.236364 190.611692 
z
" style="fill:#2ca02c;"/>
   </g>
   <g id="patch_23">
    <path clip-path="url(#p04ed3d314e)" d="M 316.145455 268.593231 
L 332.509091 268.593231 
L 332.509091 210.107077 
L 316.145455 210.107077 
z
" style="fill:#2ca02c;"/>
   </g>
   <g id="patch_24">
    <path clip-path="url(#p04ed3d314e)" d="M 70.690909 190.611692 
L 87.054545 190.611692 
L 87.054545 132.125538 
L 70.690909 132.125538 
z
" style="fill:#d62728;"/>
   </g>
   <g id="patch_25">
    <path clip-path="url(#p04ed3d314e)" d="M 111.6 229.602462 
L 127.963636 229.602462 
L 127.963636 190.611692 
L 111.6 190.611692 
z
" style="fill:#d62728;"/>
   </g>
   <g id="patch_26">
    <path clip-path="url(#p04ed3d314e)" d="M 152.509091 190.611692 
L 168.872727 190.611692 
L 168.872727 171.116308 
L 152.509091 171.116308 
z
" style="fill:#d62728;"/>
   </g>
   <g id="patch_27">
    <path clip-path="url(#p04ed3d314e)" d="M 193.418182 171.116308 
L 209.781818 171.116308 
L 209.781818 151.620923 
L 193.418182 151.620923 
z
" style="fill:#d62728;"/>
   </g>
   <g id="patch_28">
    <path clip-path="url(#p04ed3d314e)" d="M 234.327273 229.602462 
L 250.690909 229.602462 
L 250.690909 171.116308 
L 234.327273 171.116308 
z
" style="fill:#d62728;"/>
   </g>
   <g id="patch_29">
    <path clip-path="url(#p04ed3d314e)" d="M 275.236364 190.611692 
L 291.6 190.611692 
L 291.6 171.116308 
L 275.236364 171.116308 
z
" style="fill:#d62728;"/>
   </g>
   <g id="patch_30">
    <path clip-path="url(#p04ed3d314e)" d="M 316.145455 210.107077 
L 332.509091 210.107077 
L 332.509091 132.125538 
L 316.145455 132.125538 
z
" style="fill:#d62728;"/>
   </g>
   <g id="patch_31">
    <path clip-path="url(#p04ed3d314e)" d="M 70.690909 132.125538 
L 87.054545 132.125538 
L 87.054545 54.144 
L 70.690909 54.144 
z
" style="fill:#9467bd;"/>
   </g>
   <g id="patch_32">
    <path clip-path="url(#p04ed3d314e)" d="M 111.6 190.611692 
L 127.963636 190.611692 
L 127.963636 190.611692 
L 111.6 190.611692 
z
" style="fill:#9467bd;"/>
   </g>
   <g id="patch_33">
    <path clip-path="url(#p04ed3d314e)" d="M 152.509091 171.116308 
L 168.872727 171.116308 
L 168.872727 151.620923 
L 152.509091 151.620923 
z
" style="fill:#9467bd;"/>
   </g>
   <g id="patch_34">
    <path clip-path="url(#p04ed3d314e)" d="M 193.418182 151.620923 
L 209.781818 151.620923 
L 209.781818 132.125538 
L 193.418182 132.125538 
z
" style="fill:#9467bd;"/>
   </g>
   <g id="patch_35">
    <path clip-path="url(#p04ed3d314e)" d="M 234.327273 171.116308 
L 250.690909 171.116308 
L 250.690909 93.134769 
L 234.327273 93.134769 
z
" style="fill:#9467bd;"/>
   </g>
   <g id="patch_36">
    <path clip-path="url(#p04ed3d314e)" d="M 275.236364 171.116308 
L 291.6 171.116308 
L 291.6 151.620923 
L 275.236364 151.620923 
z
" style="fill:#9467bd;"/>
   </g>
   <g id="patch_37">
    <path clip-path="url(#p04ed3d314e)" d="M 316.145455 132.125538 
L 332.509091 132.125538 
L 332.509091 93.134769 
L 316.145455 93.134769 
z
" style="fill:#9467bd;"/>
   </g>
   <g id="matplotlib.axis_1">
    <g id="xtick_1">
     <g id="line2d_1">
      <defs>
       <path d="M 0 0 
L 0 3.5 
" id="m82e931c914" style="stroke:#000000;stroke-width:0.8;"/>
      </defs>
      <g>
       <use style="stroke:#000000;stroke-width:0.8;" x="78.872727" xlink:href="#m82e931c914" y="307.584"/>
      </g>
     </g>
     <g id="text_1">
      <!-- 越秀区 -->
      <defs>
       <path d="M 19.921875 29.296875 
Q 19.140625 23.828125 18.359375 17.578125 
Q 21.875 12.890625 27.34375 9.375 
L 27.34375 39.84375 
Q 15.234375 39.84375 7.8125 39.453125 
L 7.8125 45.703125 
Q 15.234375 45.3125 25.390625 45.3125 
L 25.390625 60.15625 
Q 16.796875 60.15625 10.9375 59.765625 
L 10.9375 66.015625 
Q 16.796875 65.625 25.390625 65.625 
Q 25.390625 73.4375 25 80.078125 
L 32.421875 80.078125 
Q 32.03125 74.21875 32.03125 65.625 
Q 38.671875 65.625 44.53125 66.015625 
L 44.53125 59.765625 
Q 38.671875 60.15625 32.03125 60.15625 
L 32.03125 45.3125 
Q 38.28125 45.3125 45.3125 45.703125 
L 45.3125 39.453125 
Q 38.671875 39.84375 33.984375 39.84375 
L 33.984375 26.5625 
Q 38.28125 26.5625 43.75 26.953125 
L 43.75 21.09375 
Q 38.28125 21.484375 33.984375 21.484375 
L 33.984375 5.46875 
Q 45.703125 0 65.03125 -0.390625 
Q 84.375 -0.78125 94.140625 0.78125 
Q 91.40625 -3.90625 91.015625 -7.421875 
Q 76.5625 -7.421875 64.640625 -7.21875 
Q 52.734375 -7.03125 44.140625 -4.875 
Q 35.546875 -2.734375 28.90625 0.78125 
Q 22.265625 4.296875 17.1875 10.15625 
Q 14.453125 -1.171875 10.546875 -8.203125 
Q 7.03125 -5.078125 5.46875 -3.90625 
Q 8.984375 2.734375 10.34375 8.390625 
Q 11.71875 14.0625 12.296875 20.109375 
Q 12.890625 26.171875 12.890625 31.25 
Q 16.796875 29.6875 19.921875 29.296875 
z
M 71.875 78.125 
Q 71.09375 73.828125 71.09375 70.3125 
L 71.09375 62.109375 
Q 83.59375 62.109375 91.015625 62.5 
L 91.015625 56.640625 
Q 83.59375 57.03125 71.484375 57.03125 
Q 71.875 53.125 72.65625 44.328125 
Q 73.4375 35.546875 75 29.296875 
Q 79.6875 39.84375 81.640625 50 
Q 84.765625 47.65625 88.671875 46.09375 
Q 86.71875 43.75 84.375 37.296875 
Q 82.03125 30.859375 78.125 21.484375 
Q 79.6875 17.578125 82.8125 14.640625 
Q 85.9375 11.71875 87.5 22.265625 
Q 90.625 18.75 93.75 17.578125 
Q 90.625 7.8125 86.328125 5.46875 
Q 82.03125 3.125 73.828125 16.015625 
Q 68.359375 9.375 62.5 3.515625 
Q 59.765625 6.25 56.640625 7.421875 
Q 60.15625 9.765625 63.859375 13.28125 
Q 67.578125 16.796875 70.3125 22.265625 
Q 67.1875 32.421875 65.234375 57.03125 
L 55.46875 57.03125 
L 55.46875 23.828125 
Q 58.59375 25.78125 62.890625 29.6875 
Q 63.671875 26.171875 65.234375 23.046875 
Q 62.109375 20.703125 58.390625 17.96875 
Q 54.6875 15.234375 50.78125 12.109375 
Q 49.21875 14.84375 46.875 17.96875 
Q 49.21875 19.53125 49.21875 23.046875 
L 49.21875 50 
Q 49.21875 55.078125 48.828125 62.109375 
L 64.84375 62.109375 
Q 64.453125 72.65625 64.0625 79.296875 
Q 68.359375 78.125 71.875 78.125 
z
M 79.6875 77.734375 
Q 82.8125 75 89.84375 69.140625 
Q 87.5 67.578125 85.546875 64.453125 
Q 80.46875 69.921875 75.390625 73.4375 
Q 77.734375 75.390625 79.6875 77.734375 
z
" id="SimHei-36234"/>
       <path d="M 82.03125 72.265625 
Q 77.734375 72.265625 70.703125 71.671875 
Q 63.671875 71.09375 53.90625 69.921875 
L 53.90625 59.765625 
L 78.515625 59.765625 
Q 84.375 59.765625 92.1875 60.15625 
L 92.1875 53.125 
Q 84.765625 53.515625 78.515625 53.515625 
L 60.9375 53.515625 
Q 64.453125 49.609375 70.5 45.109375 
Q 76.5625 40.625 82.421875 38.28125 
Q 88.28125 35.9375 94.53125 34.375 
Q 90.625 30.859375 88.671875 26.5625 
Q 82.03125 28.90625 72.65625 34.375 
Q 63.28125 39.84375 53.90625 53.515625 
L 53.90625 32.03125 
L 71.09375 32.03125 
Q 69.921875 28.515625 67.96875 17.578125 
L 85.9375 17.578125 
Q 84.765625 11.328125 84.171875 6.4375 
Q 83.59375 1.5625 82.609375 -2.53125 
Q 81.640625 -6.640625 76.359375 -8 
Q 71.09375 -9.375 65.234375 -10.15625 
Q 64.0625 -5.859375 61.328125 -1.5625 
Q 72.65625 -1.953125 74.40625 -0.1875 
Q 76.171875 1.5625 76.953125 11.71875 
L 58.59375 11.71875 
Q 60.546875 22.65625 61.328125 26.171875 
L 44.53125 26.171875 
Q 43.75 18.359375 41.59375 12.890625 
Q 39.453125 7.421875 36.125 3.3125 
Q 32.8125 -0.78125 26.75 -4.296875 
Q 20.703125 -7.8125 14.0625 -10.546875 
Q 10.546875 -5.859375 7.421875 -3.125 
Q 25.78125 1.171875 31.046875 8.984375 
Q 36.328125 16.796875 36.71875 26.171875 
Q 31.640625 26.171875 23.828125 25.78125 
L 23.828125 31.640625 
Q 22.265625 30.859375 18.75 29.296875 
Q 15.234375 27.734375 10.9375 26.171875 
Q 9.375 30.078125 5.078125 33.984375 
Q 11.328125 34.375 18.546875 37.6875 
Q 25.78125 41.015625 30.265625 45.3125 
Q 34.765625 49.609375 37.109375 53.515625 
L 22.265625 53.515625 
Q 15.625 53.515625 7.421875 53.125 
L 7.421875 60.15625 
Q 16.015625 59.765625 22.265625 59.765625 
L 46.484375 59.765625 
L 46.484375 69.53125 
Q 43.359375 69.140625 36.328125 68.75 
Q 29.296875 68.359375 17.96875 67.1875 
Q 17.1875 70.3125 14.84375 73.828125 
Q 19.921875 73.828125 27.140625 74.21875 
Q 34.375 74.609375 43.359375 75.390625 
Q 52.34375 76.171875 60.9375 77.34375 
Q 69.53125 78.515625 76.5625 80.46875 
Q 77.34375 77.34375 82.03125 72.265625 
z
M 24.609375 32.421875 
Q 31.640625 32.03125 37.890625 32.03125 
L 46.484375 32.03125 
L 46.484375 53.515625 
L 45.3125 53.515625 
Q 40.625 46.09375 36.328125 41.796875 
Q 32.03125 37.5 24.609375 32.421875 
z
" id="SimHei-31168"/>
       <path d="M 91.40625 70.703125 
Q 85.546875 71.09375 75.78125 71.09375 
L 17.96875 71.09375 
L 17.96875 -1.171875 
L 81.640625 -1.171875 
Q 89.453125 -1.171875 94.140625 -0.78125 
L 94.140625 -7.8125 
Q 89.0625 -7.421875 80.859375 -7.421875 
L 9.765625 -7.421875 
Q 10.15625 1.953125 10.15625 6.25 
L 10.15625 65.625 
Q 10.15625 72.265625 9.765625 77.734375 
L 91.40625 77.734375 
z
M 35.546875 60.546875 
Q 49.21875 51.171875 59.375 42.1875 
Q 68.359375 52.734375 72.65625 63.28125 
Q 76.953125 60.546875 82.8125 57.8125 
Q 78.515625 55.078125 75.390625 50.390625 
Q 72.265625 45.703125 66.015625 37.109375 
Q 79.296875 26.171875 87.5 15.625 
Q 82.8125 12.5 80.859375 8.984375 
Q 74.609375 18.359375 60.15625 30.46875 
Q 54.296875 23.828125 48.234375 18.359375 
Q 42.1875 12.890625 33.203125 6.25 
Q 29.6875 9.765625 25.390625 12.109375 
Q 33.203125 15.625 39.453125 20.5 
Q 45.703125 25.390625 54.296875 35.9375 
Q 44.53125 44.921875 30.078125 53.90625 
Q 33.984375 57.03125 35.546875 60.546875 
z
" id="SimHei-21306"/>
      </defs>
      <g transform="translate(63.872727 322.435562)scale(0.1 -0.1)">
       <use xlink:href="#SimHei-36234"/>
       <use x="100" xlink:href="#SimHei-31168"/>
       <use x="200" xlink:href="#SimHei-21306"/>
      </g>
     </g>
    </g>
    <g id="xtick_2">
     <g id="line2d_2">
      <g>
       <use style="stroke:#000000;stroke-width:0.8;" x="119.781818" xlink:href="#m82e931c914" y="307.584"/>
      </g>
     </g>
     <g id="text_2">
      <!-- 天河区 -->
      <defs>
       <path d="M 69.921875 76.5625 
Q 76.953125 76.5625 83.984375 76.953125 
L 83.984375 68.75 
Q 76.953125 69.140625 69.921875 69.140625 
L 53.90625 69.140625 
L 53.90625 48.046875 
L 78.90625 48.046875 
Q 86.328125 48.046875 92.1875 48.4375 
L 92.1875 40.234375 
Q 86.71875 40.625 79.296875 40.625 
L 55.078125 40.625 
Q 60.546875 25.78125 70.703125 15.234375 
Q 80.859375 4.6875 96.875 0.78125 
Q 91.40625 -3.515625 90.234375 -7.03125 
Q 78.125 -2.734375 67.96875 6.4375 
Q 57.8125 15.625 50.390625 32.8125 
Q 45.703125 16.796875 35.546875 7.21875 
Q 25.390625 -2.34375 10.15625 -8.984375 
Q 8.59375 -5.078125 3.515625 -1.5625 
Q 14.84375 1.5625 27.34375 11.515625 
Q 39.84375 21.484375 44.921875 40.625 
L 23.4375 40.625 
Q 14.84375 40.625 8.984375 40.234375 
L 8.984375 48.4375 
Q 15.234375 48.046875 23.4375 48.046875 
L 46.09375 48.046875 
L 46.09375 69.140625 
L 29.6875 69.140625 
Q 21.484375 69.140625 15.625 68.75 
L 15.625 76.953125 
Q 21.875 76.5625 29.6875 76.5625 
z
" id="SimHei-22825"/>
       <path d="M 66.40625 53.90625 
Q 66.015625 46.484375 66.015625 31.25 
Q 66.015625 16.015625 66.40625 11.71875 
L 58.59375 11.71875 
L 58.59375 17.96875 
L 44.53125 17.96875 
L 44.53125 6.640625 
L 36.71875 6.640625 
Q 37.5 11.328125 37.5 29.296875 
Q 37.5 47.65625 37.109375 53.90625 
L 66.40625 53.90625 
z
M 85.546875 73.046875 
Q 90.625 73.046875 96.484375 73.4375 
L 96.484375 65.625 
Q 89.0625 66.015625 84.765625 66.015625 
L 84.765625 0 
Q 84.765625 -5.859375 80.859375 -7.609375 
Q 76.953125 -9.375 68.75 -10.546875 
Q 68.359375 -6.640625 64.453125 -1.5625 
Q 73.046875 -1.953125 75.390625 -1.359375 
Q 77.734375 -0.78125 77.734375 3.125 
L 77.734375 66.015625 
L 47.265625 66.015625 
Q 41.015625 66.015625 33.203125 65.625 
L 33.203125 73.4375 
Q 41.015625 73.046875 47.265625 73.046875 
z
M 30.078125 25.390625 
Q 26.171875 19.140625 21.484375 8.59375 
Q 16.796875 -1.953125 14.0625 -8.59375 
Q 10.546875 -5.46875 4.6875 -2.734375 
Q 8.203125 1.171875 13.46875 11.328125 
Q 18.75 21.484375 21.875 30.46875 
Q 26.171875 27.34375 30.078125 25.390625 
z
M 58.59375 25 
L 58.59375 46.875 
L 44.53125 46.875 
L 44.53125 25 
z
M 8.203125 54.6875 
Q 17.96875 48.828125 26.171875 43.75 
Q 22.65625 39.84375 20.703125 36.328125 
Q 13.28125 42.578125 3.90625 47.65625 
Q 6.25 50.78125 8.203125 54.6875 
z
M 13.28125 78.90625 
Q 21.09375 73.046875 28.90625 66.015625 
Q 24.609375 62.5 21.875 59.765625 
Q 16.015625 66.796875 7.8125 73.4375 
Q 10.546875 75.78125 13.28125 78.90625 
z
" id="SimHei-27827"/>
      </defs>
      <g transform="translate(104.781818 322.279312)scale(0.1 -0.1)">
       <use xlink:href="#SimHei-22825"/>
       <use x="100" xlink:href="#SimHei-27827"/>
       <use x="200" xlink:href="#SimHei-21306"/>
      </g>
     </g>
    </g>
    <g id="xtick_3">
     <g id="line2d_3">
      <g>
       <use style="stroke:#000000;stroke-width:0.8;" x="160.690909" xlink:href="#m82e931c914" y="307.584"/>
      </g>
     </g>
     <g id="text_3">
      <!-- 白云区 -->
      <defs>
       <path d="M 49.609375 77.734375 
Q 47.65625 75.78125 45.703125 72.453125 
Q 43.75 69.140625 41.796875 65.234375 
L 86.71875 65.234375 
Q 86.328125 57.421875 86.328125 46.09375 
L 86.328125 11.328125 
Q 86.328125 2.734375 86.71875 -7.8125 
L 78.515625 -7.8125 
L 78.515625 1.953125 
L 23.046875 1.953125 
L 23.046875 -8.59375 
L 14.84375 -8.59375 
Q 15.234375 3.125 15.234375 10.9375 
L 15.234375 46.09375 
Q 15.234375 56.640625 14.84375 65.234375 
L 34.375 65.234375 
Q 38.28125 73.828125 40.234375 82.03125 
Q 44.53125 79.6875 49.609375 77.734375 
z
M 78.515625 8.984375 
L 78.515625 30.859375 
L 23.046875 30.859375 
L 23.046875 8.984375 
z
M 78.515625 37.890625 
L 78.515625 58.59375 
L 23.046875 58.59375 
L 23.046875 37.890625 
z
" id="SimHei-30333"/>
       <path d="M 76.953125 0.78125 
Q 42.96875 -1.953125 31.4375 -3.3125 
Q 19.921875 -4.6875 17.578125 -5.46875 
Q 16.015625 -1.171875 14.0625 3.125 
Q 16.796875 3.90625 21.484375 9.375 
Q 26.171875 14.84375 32.609375 25.1875 
Q 39.0625 35.546875 39.84375 40.625 
L 19.53125 40.625 
Q 14.84375 40.625 6.640625 40.234375 
L 6.640625 47.65625 
Q 14.84375 47.265625 20.703125 47.265625 
L 81.640625 47.265625 
Q 86.71875 47.265625 93.359375 47.65625 
L 93.359375 40.234375 
Q 87.109375 40.625 81.25 40.625 
L 41.796875 40.625 
Q 44.140625 39.0625 49.609375 35.546875 
Q 46.875 32.8125 44.71875 29.6875 
Q 42.578125 26.5625 38.078125 19.921875 
Q 33.59375 13.28125 25 3.125 
Q 37.890625 4.296875 72.65625 6.640625 
Q 65.625 16.015625 59.765625 22.265625 
Q 62.890625 24.609375 65.625 27.34375 
Q 83.984375 5.859375 89.0625 -1.5625 
Q 86.328125 -3.515625 82.421875 -6.640625 
Q 79.6875 -2.34375 76.953125 0.78125 
z
M 70.703125 73.828125 
Q 76.5625 73.828125 82.8125 74.21875 
L 82.8125 66.40625 
Q 76.953125 66.796875 70.703125 66.796875 
L 29.6875 66.796875 
Q 25 66.796875 19.140625 66.40625 
L 19.140625 74.21875 
Q 25 73.828125 29.296875 73.828125 
z
" id="SimHei-20113"/>
      </defs>
      <g transform="translate(145.690909 322.3965)scale(0.1 -0.1)">
       <use xlink:href="#SimHei-30333"/>
       <use x="100" xlink:href="#SimHei-20113"/>
       <use x="200" xlink:href="#SimHei-21306"/>
      </g>
     </g>
    </g>
    <g id="xtick_4">
     <g id="line2d_4">
      <g>
       <use style="stroke:#000000;stroke-width:0.8;" x="201.6" xlink:href="#m82e931c914" y="307.584"/>
      </g>
     </g>
     <g id="text_4">
      <!-- 海珠区 -->
      <defs>
       <path d="M 83.203125 9.375 
Q 85.9375 9.375 90.625 9.765625 
L 90.625 2.734375 
Q 87.5 3.125 82.8125 3.125 
Q 82.03125 -5.859375 79.09375 -7.8125 
Q 76.171875 -9.765625 69.53125 -10.546875 
Q 68.359375 -7.03125 66.40625 -2.734375 
Q 72.265625 -3.125 74.015625 -2.140625 
Q 75.78125 -1.171875 76.171875 3.125 
L 38.671875 3.125 
Q 39.84375 15.234375 40.625 26.953125 
Q 36.328125 26.953125 31.640625 26.5625 
L 31.640625 33.59375 
Q 35.546875 33.203125 41.015625 33.203125 
Q 41.796875 47.65625 42.1875 54.296875 
Q 40.234375 51.5625 35.15625 44.921875 
Q 32.421875 47.65625 29.296875 49.609375 
Q 35.9375 56.25 40.421875 65.234375 
Q 44.921875 74.21875 46.875 82.03125 
Q 51.5625 79.296875 55.078125 78.515625 
Q 53.515625 76.5625 50.78125 70.703125 
L 78.90625 70.703125 
Q 86.328125 70.703125 92.1875 71.09375 
L 92.1875 64.0625 
Q 86.328125 64.453125 78.515625 64.453125 
L 48.046875 64.453125 
Q 45.3125 59.765625 42.578125 55.46875 
L 85.15625 55.46875 
Q 84.765625 46.09375 84.375 33.203125 
Q 88.671875 33.203125 93.75 33.59375 
L 93.75 26.5625 
Q 88.671875 26.953125 83.984375 26.953125 
Q 83.59375 21.875 83.203125 9.375 
z
M 77.734375 26.953125 
L 46.875 26.953125 
Q 46.09375 16.40625 45.703125 9.375 
L 76.953125 9.375 
z
M 48.046875 49.21875 
Q 48.046875 44.140625 47.265625 33.203125 
L 78.125 33.203125 
Q 78.125 41.796875 78.515625 49.21875 
z
M 27.34375 23.828125 
Q 25 20.3125 21.484375 11.71875 
Q 17.96875 3.125 12.109375 -7.421875 
Q 10.546875 -5.078125 4.6875 -3.125 
Q 9.375 3.515625 13.671875 12.296875 
Q 17.96875 21.09375 21.09375 28.90625 
Q 23.828125 25.78125 27.34375 23.828125 
z
M 21.875 34.765625 
Q 11.328125 43.359375 3.90625 47.65625 
Q 6.640625 50.390625 8.203125 53.90625 
Q 15.234375 49.609375 26.953125 41.40625 
Q 23.828125 37.890625 21.875 34.765625 
z
M 12.890625 78.90625 
Q 20.3125 74.609375 31.640625 67.1875 
Q 28.90625 63.671875 26.5625 60.546875 
Q 17.578125 67.96875 8.59375 73.046875 
Q 11.328125 76.171875 12.890625 78.90625 
z
M 60.546875 25.390625 
Q 64.84375 19.140625 67.578125 14.0625 
Q 64.453125 12.5 62.109375 10.546875 
Q 58.984375 16.796875 55.46875 21.875 
Q 58.203125 23.828125 60.546875 25.390625 
z
M 61.328125 48.4375 
Q 65.625 42.1875 67.96875 37.5 
Q 64.84375 35.9375 62.5 33.984375 
Q 60.15625 39.0625 56.640625 44.921875 
L 61.328125 48.4375 
z
" id="SimHei-28023"/>
       <path d="M 89.84375 -2.734375 
Q 79.6875 5.859375 75.578125 12.5 
Q 71.484375 19.140625 68.359375 27.734375 
L 68.359375 3.125 
Q 68.359375 -1.171875 68.75 -8.203125 
L 60.546875 -8.203125 
Q 60.9375 -0.78125 60.9375 3.515625 
L 60.9375 30.46875 
Q 55.859375 17.578125 51.171875 10.34375 
Q 46.484375 3.125 35.9375 -7.421875 
Q 32.03125 -2.734375 28.125 -1.171875 
Q 37.890625 5.078125 44.53125 14.0625 
Q 51.171875 23.046875 54.6875 33.984375 
L 48.046875 33.984375 
Q 41.015625 33.984375 35.9375 33.59375 
L 35.9375 40.625 
Q 42.1875 40.234375 48.046875 40.234375 
L 60.9375 40.234375 
L 60.9375 55.46875 
L 48.046875 55.46875 
Q 46.484375 51.5625 42.578125 44.140625 
Q 39.0625 46.484375 34.765625 48.4375 
Q 39.453125 55.46875 41.796875 60.734375 
Q 44.140625 66.015625 45.703125 73.828125 
Q 50 72.265625 54.6875 71.09375 
Q 53.125 68.75 50.390625 61.71875 
L 60.9375 61.71875 
L 60.9375 69.53125 
Q 60.9375 74.609375 60.546875 79.6875 
L 69.140625 79.6875 
Q 68.359375 75 68.359375 69.53125 
L 68.359375 61.71875 
L 76.5625 61.71875 
Q 83.203125 61.71875 89.0625 62.109375 
L 89.0625 55.078125 
Q 83.59375 55.46875 76.171875 55.46875 
L 68.359375 55.46875 
L 68.359375 40.234375 
L 80.859375 40.234375 
Q 87.5 40.234375 93.75 40.625 
L 93.75 33.59375 
Q 87.5 33.984375 80.859375 33.984375 
L 71.484375 33.984375 
Q 76.953125 21.09375 83.390625 14.453125 
Q 89.84375 7.8125 95.703125 5.46875 
Q 91.015625 0.390625 89.84375 -2.734375 
z
M 26.953125 70.703125 
Q 31.25 70.703125 35.9375 71.09375 
L 35.9375 64.0625 
Q 30.859375 64.453125 26.953125 64.453125 
L 23.4375 64.453125 
L 23.4375 44.53125 
Q 28.90625 44.53125 33.984375 44.921875 
L 33.984375 37.890625 
Q 28.90625 38.28125 23.4375 38.28125 
L 23.4375 14.84375 
Q 30.859375 17.1875 35.546875 19.53125 
Q 36.328125 16.015625 37.109375 13.28125 
Q 30.078125 10.9375 21.09375 7.421875 
Q 12.109375 3.90625 6.640625 1.171875 
Q 5.078125 4.6875 3.125 8.984375 
Q 8.59375 9.765625 16.40625 12.890625 
L 16.40625 38.28125 
Q 9.765625 38.28125 4.296875 37.890625 
L 4.296875 44.921875 
Q 10.15625 44.53125 16.40625 44.53125 
L 16.40625 64.453125 
L 12.109375 64.453125 
Q 8.59375 64.453125 3.125 64.0625 
L 3.125 71.09375 
Q 8.59375 70.703125 12.109375 70.703125 
z
" id="SimHei-29664"/>
      </defs>
      <g transform="translate(186.6 322.591812)scale(0.1 -0.1)">
       <use xlink:href="#SimHei-28023"/>
       <use x="100" xlink:href="#SimHei-29664"/>
       <use x="200" xlink:href="#SimHei-21306"/>
      </g>
     </g>
    </g>
    <g id="xtick_5">
     <g id="line2d_5">
      <g>
       <use style="stroke:#000000;stroke-width:0.8;" x="242.509091" xlink:href="#m82e931c914" y="307.584"/>
      </g>
     </g>
     <g id="text_5">
      <!-- 从化区 -->
      <defs>
       <path d="M 68.75 78.125 
Q 67.96875 73.828125 67.765625 68.75 
Q 67.578125 63.671875 68.15625 50.390625 
Q 68.75 37.109375 76.5625 22.0625 
Q 84.375 7.03125 95.3125 -0.78125 
Q 91.015625 -4.6875 88.671875 -8.203125 
Q 71.09375 7.8125 64.453125 33.59375 
Q 58.984375 8.59375 39.0625 -9.765625 
Q 36.328125 -6.640625 32.421875 -4.296875 
Q 44.53125 5.078125 50.78125 17.578125 
Q 57.03125 30.078125 58.59375 41.984375 
Q 60.15625 53.90625 59.375 79.296875 
Q 64.0625 78.515625 68.75 78.125 
z
M 33.984375 76.5625 
Q 33.203125 71.484375 32.421875 40.625 
Q 46.09375 26.5625 50.390625 21.09375 
Q 46.484375 18.75 43.75 14.84375 
Q 41.015625 20.3125 30.859375 32.03125 
Q 27.34375 14.0625 10.15625 -5.078125 
Q 9.375 -3.125 3.90625 0.390625 
Q 16.40625 12.890625 20.890625 25 
Q 25.390625 37.109375 25.390625 55.078125 
Q 25.390625 73.046875 25 77.734375 
Q 30.078125 76.5625 33.984375 76.5625 
z
" id="SimHei-20174"/>
       <path d="M 61.328125 78.515625 
Q 60.9375 76.5625 60.9375 68.75 
L 60.9375 41.015625 
Q 68.359375 47.265625 74.609375 53.90625 
Q 80.859375 60.546875 84.375 67.1875 
Q 87.5 64.0625 92.1875 61.328125 
Q 89.0625 57.8125 81.640625 50.1875 
Q 74.21875 42.578125 70.109375 39.25 
Q 66.015625 35.9375 60.9375 31.640625 
L 60.9375 7.03125 
Q 60.9375 0.78125 66.015625 0.78125 
L 81.25 0.78125 
Q 84.375 1.171875 85.34375 4.09375 
Q 86.328125 7.03125 87.109375 13.28125 
Q 90.625 10.15625 96.09375 9.375 
Q 93.75 -1.5625 91.015625 -3.90625 
Q 88.28125 -6.25 83.59375 -6.25 
L 61.71875 -6.25 
Q 53.515625 -6.25 53.125 3.125 
L 53.125 26.171875 
Q 50.390625 23.828125 46.28125 21.09375 
Q 42.1875 18.359375 37.109375 15.234375 
Q 34.765625 19.140625 31.640625 21.875 
Q 36.71875 24.21875 42.765625 27.921875 
Q 48.828125 31.640625 53.125 35.15625 
L 53.125 70.3125 
Q 53.125 75 52.734375 78.515625 
L 61.328125 78.515625 
z
M 37.5 75.78125 
Q 33.984375 71.09375 32.421875 67.765625 
Q 30.859375 64.453125 28.515625 58.984375 
L 28.515625 10.546875 
Q 28.515625 -1.171875 28.90625 -8.59375 
L 20.703125 -8.59375 
Q 21.09375 -1.953125 21.09375 10.15625 
L 21.09375 47.65625 
Q 17.578125 42.578125 15.03125 39.453125 
Q 12.5 36.328125 10.546875 33.984375 
Q 7.8125 37.109375 4.296875 39.453125 
Q 9.765625 44.53125 13.671875 50.1875 
Q 17.578125 55.859375 20.5 61.125 
Q 23.4375 66.40625 25.390625 71.484375 
Q 27.34375 76.5625 28.515625 79.6875 
Q 30.859375 77.734375 37.5 75.78125 
z
" id="SimHei-21270"/>
      </defs>
      <g transform="translate(227.509091 322.279312)scale(0.1 -0.1)">
       <use xlink:href="#SimHei-20174"/>
       <use x="100" xlink:href="#SimHei-21270"/>
       <use x="200" xlink:href="#SimHei-21306"/>
      </g>
     </g>
    </g>
    <g id="xtick_6">
     <g id="line2d_6">
      <g>
       <use style="stroke:#000000;stroke-width:0.8;" x="283.418182" xlink:href="#m82e931c914" y="307.584"/>
      </g>
     </g>
     <g id="text_6">
      <!-- 番禺区 -->
      <defs>
       <path d="M 24.609375 65.234375 
Q 28.515625 66.40625 32.03125 67.578125 
Q 34.375 61.71875 36.328125 56.640625 
L 46.484375 56.640625 
L 46.484375 71.09375 
Q 37.5 70.703125 30.859375 70.5 
Q 24.21875 70.3125 14.84375 69.921875 
Q 14.0625 73.4375 12.109375 76.953125 
Q 23.4375 76.5625 43.15625 77.140625 
Q 62.890625 77.734375 81.25 82.8125 
Q 82.8125 78.125 86.328125 73.046875 
Q 82.421875 73.4375 72.453125 72.65625 
Q 62.5 71.875 53.90625 71.484375 
L 53.90625 56.640625 
L 63.671875 56.640625 
Q 67.96875 65.625 68.75 69.921875 
Q 70.703125 68.359375 76.953125 66.40625 
Q 74.21875 62.890625 70.703125 56.640625 
L 81.25 56.640625 
Q 87.890625 56.640625 95.3125 57.03125 
L 95.3125 49.609375 
Q 87.890625 50 81.25 50 
L 64.0625 50 
Q 67.96875 44.53125 76.171875 39.84375 
Q 84.375 35.15625 96.484375 34.375 
Q 91.796875 29.6875 91.796875 25.390625 
Q 85.546875 26.953125 80.859375 29.296875 
Q 80.46875 25.390625 80.46875 11.328125 
Q 80.46875 -2.734375 80.859375 -8.203125 
L 73.046875 -8.203125 
L 73.046875 -4.6875 
L 26.953125 -4.6875 
L 26.953125 -10.15625 
L 19.53125 -10.15625 
Q 19.921875 -1.953125 19.921875 11.328125 
Q 19.921875 24.609375 19.53125 29.296875 
Q 14.0625 26.5625 8.203125 24.21875 
Q 6.25 28.125 3.125 31.640625 
Q 11.328125 33.59375 20.109375 37.890625 
Q 28.90625 42.1875 35.15625 50 
L 17.96875 50 
Q 12.890625 50 5.859375 49.609375 
L 5.859375 57.03125 
Q 12.890625 56.640625 17.96875 56.640625 
L 28.515625 56.640625 
Q 26.953125 60.15625 24.609375 65.234375 
z
M 79.296875 30.078125 
Q 70.703125 33.984375 65.625 38.859375 
Q 60.546875 43.75 56.25 50 
L 53.90625 50 
L 53.90625 32.8125 
L 46.484375 32.8125 
L 46.484375 50 
L 43.75 50 
Q 38.28125 42.1875 32.609375 37.890625 
Q 26.953125 33.59375 20.703125 30.078125 
z
M 46.484375 1.5625 
L 46.484375 9.765625 
L 26.953125 9.765625 
L 26.953125 1.5625 
z
M 73.046875 1.5625 
L 73.046875 9.765625 
L 53.90625 9.765625 
L 53.90625 1.5625 
z
M 46.484375 16.40625 
L 46.484375 23.828125 
L 26.953125 23.828125 
L 26.953125 16.40625 
z
M 73.046875 16.40625 
L 73.046875 23.828125 
L 53.90625 23.828125 
L 53.90625 16.40625 
z
" id="SimHei-30058"/>
       <path d="M 83.984375 78.515625 
Q 83.59375 69.140625 83.59375 60.546875 
Q 83.59375 52.34375 83.984375 41.40625 
L 52.734375 41.40625 
L 52.734375 33.203125 
L 92.96875 33.203125 
Q 92.578125 27.34375 92.578125 20.3125 
L 92.578125 0 
Q 92.578125 -3.90625 89.453125 -6.046875 
Q 86.328125 -8.203125 77.34375 -9.375 
Q 76.5625 -4.296875 73.828125 -0.390625 
Q 82.421875 -0.390625 83.78125 0.1875 
Q 85.15625 0.78125 85.15625 4.6875 
L 85.15625 27.34375 
L 52.734375 27.34375 
L 52.734375 14.0625 
L 66.015625 14.84375 
Q 64.84375 17.96875 62.890625 21.09375 
Q 66.40625 22.265625 69.921875 24.21875 
Q 73.4375 17.96875 78.515625 7.421875 
Q 75 6.25 70.703125 4.296875 
Q 69.53125 7.421875 68.75 8.984375 
Q 39.453125 6.640625 33.59375 5.65625 
Q 27.734375 4.6875 25 3.90625 
Q 23.4375 8.59375 21.484375 12.890625 
Q 25.78125 12.5 44.921875 13.671875 
L 44.921875 27.34375 
L 15.234375 27.34375 
L 15.234375 -8.59375 
L 7.03125 -8.59375 
Q 7.421875 0 7.421875 5.859375 
L 7.421875 19.921875 
Q 7.421875 26.5625 7.03125 33.203125 
L 44.921875 33.203125 
L 44.921875 41.40625 
L 15.234375 41.40625 
Q 15.625 52.34375 15.625 60.15625 
Q 15.625 67.96875 15.234375 78.515625 
L 83.984375 78.515625 
z
M 76.171875 62.890625 
L 76.171875 72.65625 
L 52.734375 72.65625 
L 52.734375 62.890625 
z
M 76.171875 47.65625 
L 76.171875 57.03125 
L 52.734375 57.03125 
L 52.734375 47.65625 
z
M 44.921875 62.890625 
L 44.921875 72.65625 
L 23.046875 72.65625 
L 23.046875 62.890625 
z
M 44.921875 47.65625 
L 44.921875 57.03125 
L 23.046875 57.03125 
L 23.046875 47.65625 
z
" id="SimHei-31162"/>
      </defs>
      <g transform="translate(268.418182 322.630875)scale(0.1 -0.1)">
       <use xlink:href="#SimHei-30058"/>
       <use x="100" xlink:href="#SimHei-31162"/>
       <use x="200" xlink:href="#SimHei-21306"/>
      </g>
     </g>
    </g>
    <g id="xtick_7">
     <g id="line2d_7">
      <g>
       <use style="stroke:#000000;stroke-width:0.8;" x="324.327273" xlink:href="#m82e931c914" y="307.584"/>
      </g>
     </g>
     <g id="text_7">
      <!-- 花都区 -->
      <defs>
       <path d="M 61.71875 51.171875 
Q 61.328125 46.484375 61.328125 39.84375 
L 61.328125 28.90625 
Q 65.625 31.25 71.671875 36.90625 
Q 77.734375 42.578125 80.46875 46.875 
Q 83.984375 43.75 89.0625 41.40625 
Q 84.375 38.671875 79.6875 34.171875 
Q 75 29.6875 61.328125 20.3125 
L 61.328125 4.296875 
Q 61.328125 0 66.40625 0 
L 78.515625 0 
Q 82.421875 0 83.984375 1.75 
Q 85.546875 3.515625 86.71875 10.546875 
Q 90.625 7.8125 94.921875 7.03125 
Q 92.1875 -2.34375 89.640625 -4.296875 
Q 87.109375 -6.25 82.03125 -6.25 
L 62.890625 -6.25 
Q 53.90625 -6.25 53.90625 0 
L 53.90625 16.015625 
Q 50 13.671875 40.234375 8.59375 
Q 38.28125 12.109375 34.765625 15.234375 
Q 42.96875 17.578125 53.90625 24.21875 
L 53.90625 39.84375 
Q 53.90625 46.484375 53.515625 51.171875 
L 61.71875 51.171875 
z
M 38.28125 62.890625 
Q 38.28125 58.59375 38.671875 53.90625 
L 30.078125 53.90625 
Q 30.46875 58.59375 30.46875 62.890625 
L 19.53125 62.890625 
Q 12.890625 62.890625 6.25 62.5 
L 6.25 69.53125 
Q 12.890625 69.140625 19.53125 69.140625 
L 30.46875 69.140625 
Q 30.46875 75.390625 30.078125 80.078125 
L 39.0625 80.078125 
Q 38.28125 75.390625 38.28125 69.140625 
L 58.203125 69.140625 
L 58.203125 80.859375 
L 66.40625 80.859375 
Q 66.015625 76.171875 66.015625 69.140625 
L 81.640625 69.140625 
Q 88.671875 69.140625 93.75 69.53125 
L 93.75 62.5 
Q 88.671875 62.890625 81.640625 62.890625 
L 66.015625 62.890625 
Q 66.015625 59.375 66.40625 53.90625 
L 58.203125 53.90625 
L 58.203125 62.890625 
z
M 41.40625 48.046875 
Q 36.71875 44.921875 31.25 39.0625 
L 31.25 5.078125 
Q 31.25 -1.171875 31.640625 -8.984375 
L 23.4375 -8.984375 
Q 23.828125 -1.5625 23.828125 5.078125 
L 23.828125 31.640625 
Q 17.1875 25.390625 9.375 19.921875 
Q 7.421875 23.4375 4.6875 26.5625 
Q 11.328125 30.078125 20.5 38.859375 
Q 29.6875 47.65625 32.03125 52.734375 
Q 35.546875 50 41.40625 48.046875 
z
" id="SimHei-33457"/>
       <path d="M 53.515625 33.984375 
Q 53.125 24.21875 53.125 14.0625 
Q 53.125 3.90625 53.515625 -7.421875 
L 46.484375 -7.421875 
L 46.484375 -1.953125 
L 23.828125 -1.953125 
L 23.828125 -7.8125 
L 16.796875 -7.8125 
Q 17.1875 0 17.1875 7.421875 
L 17.1875 23.4375 
Q 12.890625 20.3125 9.375 18.359375 
Q 7.03125 22.265625 3.90625 24.21875 
Q 11.71875 28.515625 18.15625 33.203125 
Q 24.609375 37.890625 30.46875 44.140625 
Q 15.625 44.140625 5.859375 43.75 
L 5.859375 50.390625 
Q 15.234375 50 25.78125 50 
L 25.78125 61.71875 
Q 16.40625 61.71875 10.546875 61.328125 
L 10.546875 67.578125 
Q 16.40625 67.1875 25.78125 67.1875 
Q 25.78125 76.171875 25.390625 79.6875 
L 33.59375 79.6875 
Q 33.203125 77.34375 33.203125 67.1875 
Q 38.28125 67.1875 42.96875 67.578125 
L 42.96875 61.328125 
Q 37.890625 61.71875 33.203125 61.71875 
L 33.203125 50 
L 35.546875 50 
Q 44.921875 62.890625 50.78125 76.171875 
Q 53.125 74.609375 58.203125 71.484375 
Q 54.6875 67.578125 50.96875 61.328125 
Q 47.265625 55.078125 43.359375 50 
Q 50.390625 50 59.375 50.390625 
L 59.375 43.75 
Q 50.390625 44.140625 39.0625 44.140625 
Q 33.984375 38.671875 28.90625 33.984375 
z
M 82.421875 40.234375 
Q 89.84375 32.8125 92.765625 26.5625 
Q 95.703125 20.3125 94.921875 14.640625 
Q 94.140625 8.984375 90.421875 6.640625 
Q 86.71875 4.296875 77.734375 1.953125 
Q 76.953125 5.46875 74.21875 10.9375 
Q 81.640625 10.9375 84.765625 12.5 
Q 87.890625 14.0625 87.5 18.9375 
Q 87.109375 23.828125 82.609375 29.6875 
Q 78.125 35.546875 74.609375 39.453125 
Q 77.734375 46.875 83.203125 68.359375 
L 69.140625 68.359375 
L 69.140625 -9.765625 
L 61.71875 -9.765625 
Q 62.109375 -1.171875 62.109375 7.8125 
L 62.109375 56.25 
Q 62.109375 65.625 61.71875 74.609375 
L 92.96875 74.609375 
Q 86.328125 53.515625 82.421875 40.234375 
z
M 46.484375 18.75 
L 46.484375 28.515625 
L 23.828125 28.515625 
L 23.828125 18.75 
z
M 46.484375 3.90625 
L 46.484375 12.890625 
L 23.828125 12.890625 
L 23.828125 3.90625 
z
" id="SimHei-37117"/>
      </defs>
      <g transform="translate(309.327273 322.3965)scale(0.1 -0.1)">
       <use xlink:href="#SimHei-33457"/>
       <use x="100" xlink:href="#SimHei-37117"/>
       <use x="200" xlink:href="#SimHei-21306"/>
      </g>
     </g>
    </g>
    <g id="text_8">
     <!-- gz_state -->
     <defs>
      <path d="M 46.484375 39.0625 
Q 43.75 39.84375 41.203125 40.03125 
Q 38.671875 40.234375 35.9375 39.453125 
Q 37.109375 38.28125 37.890625 36.515625 
Q 38.671875 34.765625 38.671875 31.25 
Q 38.671875 24.609375 34.171875 20.3125 
Q 29.6875 16.015625 23.046875 16.015625 
Q 21.484375 16.015625 18.9375 16.59375 
Q 16.40625 17.1875 14.84375 17.96875 
Q 13.671875 17.1875 13.28125 16.40625 
Q 12.890625 15.625 12.890625 14.453125 
Q 12.890625 12.5 15.625 11.515625 
Q 18.359375 10.546875 25.390625 10.546875 
Q 36.71875 10.546875 40.8125 7.421875 
Q 44.921875 4.296875 44.921875 -0.390625 
Q 44.921875 -6.640625 38.859375 -9.5625 
Q 32.8125 -12.5 24.609375 -12.5 
Q 14.0625 -12.5 8.984375 -9.765625 
Q 3.90625 -7.03125 3.90625 -2.34375 
Q 3.90625 0 5.859375 2.34375 
Q 7.8125 4.6875 10.9375 6.25 
Q 8.59375 7.421875 7.21875 9.171875 
Q 5.859375 10.9375 5.859375 13.671875 
Q 5.859375 16.015625 7.609375 17.765625 
Q 9.375 19.53125 11.71875 20.703125 
Q 9.765625 22.65625 8.59375 25.390625 
Q 7.421875 28.125 7.421875 31.25 
Q 7.421875 37.890625 11.90625 42.1875 
Q 16.40625 46.484375 23.046875 46.484375 
Q 26.5625 46.484375 29.09375 45.5 
Q 31.640625 44.53125 33.59375 42.578125 
Q 36.71875 44.921875 39.84375 45.890625 
Q 42.96875 46.875 46.484375 46.484375 
z
M 30.859375 31.25 
Q 30.859375 35.15625 28.90625 37.5 
Q 26.953125 39.84375 23.046875 39.84375 
Q 19.140625 39.84375 17.1875 37.5 
Q 15.234375 35.15625 15.234375 31.25 
Q 15.234375 27.34375 17.1875 25 
Q 19.140625 22.65625 23.046875 22.65625 
Q 26.953125 22.65625 28.90625 25 
Q 30.859375 27.34375 30.859375 31.25 
z
M 37.5 -1.171875 
Q 37.5 0.390625 35.734375 1.953125 
Q 33.984375 3.515625 26.953125 3.515625 
Q 25.390625 3.515625 22.65625 3.703125 
Q 19.921875 3.90625 16.40625 4.296875 
Q 13.28125 3.125 12.109375 1.5625 
Q 10.9375 0 10.9375 -1.5625 
Q 10.9375 -3.90625 14.0625 -5.46875 
Q 17.1875 -7.03125 25 -7.03125 
Q 31.640625 -7.03125 34.5625 -5.265625 
Q 37.5 -3.515625 37.5 -1.171875 
z
" id="SimHei-103"/>
      <path d="M 43.359375 1.953125 
L 5.46875 1.953125 
L 5.46875 8.203125 
L 32.03125 39.453125 
L 7.03125 39.453125 
L 7.03125 45.703125 
L 41.40625 45.703125 
L 41.40625 39.453125 
L 14.84375 8.203125 
L 43.359375 8.203125 
z
" id="SimHei-122"/>
      <path d="M 49.21875 -13.28125 
L 0 -13.28125 
L 0 -8.59375 
L 49.21875 -8.59375 
z
" id="SimHei-95"/>
      <path d="M 42.96875 14.0625 
Q 42.96875 7.8125 38.078125 4.484375 
Q 33.203125 1.171875 25.78125 1.171875 
Q 16.40625 1.171875 11.328125 4.875 
Q 6.25 8.59375 6.25 15.625 
L 14.0625 15.625 
Q 14.0625 10.9375 17.375 9.375 
Q 20.703125 7.8125 25.390625 7.8125 
Q 30.078125 7.8125 32.421875 9.5625 
Q 34.765625 11.328125 34.765625 14.0625 
Q 34.765625 16.015625 32.8125 17.96875 
Q 30.859375 19.921875 23.046875 21.09375 
Q 14.0625 22.265625 10.734375 25.578125 
Q 7.421875 28.90625 7.421875 34.375 
Q 7.421875 39.0625 11.90625 42.765625 
Q 16.40625 46.484375 25 46.484375 
Q 32.8125 46.484375 37.296875 42.96875 
Q 41.796875 39.453125 41.796875 33.59375 
L 33.984375 33.59375 
Q 33.984375 37.109375 31.4375 38.46875 
Q 28.90625 39.84375 25 39.84375 
Q 19.921875 39.84375 17.765625 38.078125 
Q 15.625 36.328125 15.625 33.984375 
Q 15.625 31.25 17.578125 29.6875 
Q 19.53125 28.125 25.78125 27.34375 
Q 35.9375 25.78125 39.453125 22.453125 
Q 42.96875 19.140625 42.96875 14.0625 
z
" id="SimHei-115"/>
      <path d="M 42.96875 3.125 
Q 41.015625 2.34375 38.46875 1.75 
Q 35.9375 1.171875 31.640625 1.171875 
Q 24.609375 1.171875 20.3125 5.078125 
Q 16.015625 8.984375 16.015625 16.015625 
L 16.015625 39.453125 
L 2.734375 39.453125 
L 2.734375 45.703125 
L 16.015625 45.703125 
L 16.015625 60.9375 
L 23.828125 60.9375 
L 23.828125 45.703125 
L 39.84375 45.703125 
L 39.84375 39.453125 
L 23.828125 39.453125 
L 23.828125 15.625 
Q 23.828125 12.5 25.390625 10.34375 
Q 26.953125 8.203125 31.25 8.203125 
Q 35.546875 8.203125 38.28125 8.984375 
Q 41.015625 9.765625 42.96875 10.9375 
z
" id="SimHei-116"/>
      <path d="M 44.921875 1.953125 
L 35.546875 1.953125 
Q 34.765625 2.734375 34.375 4.09375 
Q 33.984375 5.46875 33.984375 7.421875 
Q 31.25 4.296875 27.34375 2.734375 
Q 23.4375 1.171875 19.140625 1.171875 
Q 12.890625 1.171875 8.59375 4.296875 
Q 4.296875 7.421875 4.296875 13.28125 
Q 4.296875 19.140625 8.203125 22.65625 
Q 12.109375 26.171875 20.3125 27.34375 
Q 25.78125 28.125 29.875 29.296875 
Q 33.984375 30.46875 33.984375 32.421875 
Q 33.984375 34.765625 32.21875 37.109375 
Q 30.46875 39.453125 24.609375 39.453125 
Q 19.921875 39.453125 17.765625 37.6875 
Q 15.625 35.9375 14.84375 32.8125 
L 6.25 32.8125 
Q 7.03125 39.0625 11.90625 42.765625 
Q 16.796875 46.484375 24.609375 46.484375 
Q 33.203125 46.484375 37.5 42.578125 
Q 41.796875 38.671875 41.796875 31.640625 
L 41.796875 10.15625 
Q 41.796875 7.8125 42.578125 5.859375 
Q 43.359375 3.90625 44.921875 1.953125 
z
M 33.984375 16.40625 
L 33.984375 24.21875 
Q 31.640625 23.4375 29.484375 22.84375 
Q 27.34375 22.265625 22.265625 21.484375 
Q 16.40625 20.703125 14.640625 18.75 
Q 12.890625 16.796875 12.890625 14.0625 
Q 12.890625 11.71875 14.640625 9.953125 
Q 16.40625 8.203125 19.921875 8.203125 
Q 23.4375 8.203125 27.53125 10.15625 
Q 31.640625 12.109375 33.984375 16.40625 
z
" id="SimHei-97"/>
      <path d="M 44.53125 16.796875 
Q 43.75 9.765625 38.28125 5.46875 
Q 32.8125 1.171875 25.390625 1.171875 
Q 16.015625 1.171875 9.953125 7.21875 
Q 3.90625 13.28125 3.90625 23.828125 
Q 3.90625 34.375 9.953125 40.421875 
Q 16.015625 46.484375 25.390625 46.484375 
Q 33.59375 46.484375 38.859375 41.203125 
Q 44.140625 35.9375 44.140625 23.828125 
L 12.5 23.828125 
Q 12.5 15.234375 16.203125 11.71875 
Q 19.921875 8.203125 25.390625 8.203125 
Q 29.6875 8.203125 32.421875 10.34375 
Q 35.15625 12.5 35.9375 16.796875 
z
M 35.15625 30.078125 
Q 34.375 35.546875 31.640625 37.6875 
Q 28.90625 39.84375 24.609375 39.84375 
Q 20.703125 39.84375 17.578125 37.6875 
Q 14.453125 35.546875 12.890625 30.078125 
z
" id="SimHei-101"/>
     </defs>
     <g transform="translate(181.6 334.67775)scale(0.1 -0.1)">
      <use xlink:href="#SimHei-103"/>
      <use x="50" xlink:href="#SimHei-122"/>
      <use x="100" xlink:href="#SimHei-95"/>
      <use x="150" xlink:href="#SimHei-115"/>
      <use x="200" xlink:href="#SimHei-116"/>
      <use x="250" xlink:href="#SimHei-97"/>
      <use x="300" xlink:href="#SimHei-116"/>
      <use x="350" xlink:href="#SimHei-101"/>
     </g>
    </g>
   </g>
   <g id="matplotlib.axis_2">
    <g id="ytick_1">
     <g id="line2d_8">
      <defs>
       <path d="M 0 0 
L -3.5 0 
" id="mf6c333aae6" style="stroke:#000000;stroke-width:0.8;"/>
      </defs>
      <g>
       <use style="stroke:#000000;stroke-width:0.8;" x="57.6" xlink:href="#mf6c333aae6" y="307.584"/>
      </g>
     </g>
     <g id="text_9">
      <!-- 0 -->
      <defs>
       <path d="M 3.125 29.296875 
Q 3.90625 50 6.4375 56.046875 
Q 8.984375 62.109375 13.671875 66.015625 
Q 18.359375 69.921875 25.1875 69.921875 
Q 32.03125 69.921875 37.109375 64.25 
Q 42.1875 58.59375 43.75 50 
Q 45.3125 41.40625 44.71875 30.265625 
Q 44.140625 19.140625 40.8125 12.109375 
Q 37.5 5.078125 30.859375 2.34375 
Q 24.21875 -0.390625 17.578125 2.921875 
Q 10.9375 6.25 8.203125 11.71875 
Q 5.46875 17.1875 4.296875 23.234375 
Q 3.125 29.296875 3.90625 50 
z
M 12.890625 52.734375 
Q 10.546875 31.25 12.5 22.84375 
Q 14.453125 14.453125 18.9375 10.9375 
Q 23.4375 7.421875 28.125 9.5625 
Q 32.8125 11.71875 34.953125 18.15625 
Q 37.109375 24.609375 37.109375 32.21875 
Q 37.109375 39.84375 36.515625 46.09375 
Q 35.9375 52.34375 33 57.421875 
Q 30.078125 62.5 25.1875 62.6875 
Q 20.3125 62.890625 16.59375 57.8125 
Q 12.890625 52.734375 10.546875 31.25 
z
" id="SimHei-48"/>
      </defs>
      <g transform="translate(45.6 311.0215)scale(0.1 -0.1)">
       <use xlink:href="#SimHei-48"/>
      </g>
     </g>
    </g>
    <g id="ytick_2">
     <g id="line2d_9">
      <g>
       <use style="stroke:#000000;stroke-width:0.8;" x="57.6" xlink:href="#mf6c333aae6" y="268.593231"/>
      </g>
     </g>
     <g id="text_10">
      <!-- 2 -->
      <defs>
       <path d="M 4.6875 3.90625 
Q 5.078125 9.765625 10.15625 14.453125 
Q 15.234375 19.140625 23.046875 29.09375 
Q 30.859375 39.0625 33.203125 44.53125 
Q 35.546875 50 34.953125 53.90625 
Q 34.375 57.8125 31.25 60.34375 
Q 28.125 62.890625 24.015625 62.5 
Q 19.921875 62.109375 16.203125 59.375 
Q 12.5 56.640625 10.546875 51.171875 
L 3.125 52.34375 
Q 6.25 61.328125 11.125 65.421875 
Q 16.015625 69.53125 22.65625 69.921875 
Q 26.5625 70.3125 29.6875 69.71875 
Q 32.8125 69.140625 36.125 66.984375 
Q 39.453125 64.84375 41.59375 60.546875 
Q 43.75 56.25 43.15625 50.1875 
Q 42.578125 44.140625 37.109375 35.734375 
Q 31.640625 27.34375 16.015625 9.375 
L 44.140625 9.375 
L 44.140625 2.34375 
L 4.6875 2.34375 
z
" id="SimHei-50"/>
      </defs>
      <g transform="translate(45.6 272.030731)scale(0.1 -0.1)">
       <use xlink:href="#SimHei-50"/>
      </g>
     </g>
    </g>
    <g id="ytick_3">
     <g id="line2d_10">
      <g>
       <use style="stroke:#000000;stroke-width:0.8;" x="57.6" xlink:href="#mf6c333aae6" y="229.602462"/>
      </g>
     </g>
     <g id="text_11">
      <!-- 4 -->
      <defs>
       <path d="M 31.25 17.1875 
L 1.171875 17.1875 
L 1.171875 23.828125 
L 32.8125 69.53125 
L 38.671875 69.53125 
L 38.671875 23.828125 
L 48.046875 23.828125 
L 48.046875 17.1875 
L 38.671875 17.1875 
L 38.671875 2.34375 
L 31.25 2.34375 
z
M 31.25 23.828125 
L 31.25 54.6875 
L 9.375 23.828125 
z
" id="SimHei-52"/>
      </defs>
      <g transform="translate(45.6 233.039962)scale(0.1 -0.1)">
       <use xlink:href="#SimHei-52"/>
      </g>
     </g>
    </g>
    <g id="ytick_4">
     <g id="line2d_11">
      <g>
       <use style="stroke:#000000;stroke-width:0.8;" x="57.6" xlink:href="#mf6c333aae6" y="190.611692"/>
      </g>
     </g>
     <g id="text_12">
      <!-- 6 -->
      <defs>
       <path d="M 3.515625 19.53125 
Q 4.296875 30.859375 6.046875 34.765625 
Q 7.8125 38.671875 11.328125 44.53125 
L 27.34375 69.53125 
L 36.328125 69.53125 
L 19.921875 43.75 
Q 30.46875 46.484375 36.71875 42.96875 
Q 42.96875 39.453125 45.109375 34.953125 
Q 47.265625 30.46875 47.453125 25.1875 
Q 47.65625 19.921875 45.890625 14.84375 
Q 44.140625 9.765625 39.640625 5.65625 
Q 35.15625 1.5625 27.140625 1.171875 
Q 19.140625 0.78125 13.46875 4.09375 
Q 7.8125 7.421875 5.65625 13.46875 
Q 3.515625 19.53125 4.296875 30.859375 
z
M 12.5 16.015625 
Q 19.53125 8.59375 25.390625 8.203125 
Q 31.25 7.8125 35.15625 12.109375 
Q 39.0625 16.40625 39.0625 24.609375 
Q 39.0625 32.8125 34.171875 35.9375 
Q 29.296875 39.0625 23.234375 38.28125 
Q 17.1875 37.5 14.453125 32.421875 
Q 11.71875 27.34375 12.109375 21.671875 
Q 12.5 16.015625 19.53125 8.59375 
z
" id="SimHei-54"/>
      </defs>
      <g transform="translate(45.6 194.049192)scale(0.1 -0.1)">
       <use xlink:href="#SimHei-54"/>
      </g>
     </g>
    </g>
    <g id="ytick_5">
     <g id="line2d_12">
      <g>
       <use style="stroke:#000000;stroke-width:0.8;" x="57.6" xlink:href="#mf6c333aae6" y="151.620923"/>
      </g>
     </g>
     <g id="text_13">
      <!-- 8 -->
      <defs>
       <path d="M 2.734375 16.796875 
Q 2.734375 26.171875 5.078125 30.65625 
Q 7.421875 35.15625 12.890625 37.890625 
Q 8.203125 40.625 6.640625 43.9375 
Q 5.078125 47.265625 4.875 51.5625 
Q 4.6875 55.859375 6.046875 58.984375 
Q 7.421875 62.109375 10.15625 64.84375 
Q 12.890625 67.578125 16.203125 68.546875 
Q 19.53125 69.53125 23.4375 69.53125 
Q 27.34375 69.53125 30.46875 68.75 
Q 33.59375 67.96875 37.109375 65.421875 
Q 40.625 62.890625 42.1875 58.203125 
Q 43.75 53.515625 41.984375 47.265625 
Q 40.234375 41.015625 32.8125 37.5 
Q 39.453125 35.546875 42.1875 31.4375 
Q 44.921875 27.34375 44.921875 21.484375 
Q 44.921875 15.625 43.15625 12.109375 
Q 41.40625 8.59375 39.25 6.25 
Q 37.109375 3.90625 33.390625 2.53125 
Q 29.6875 1.171875 24.015625 1.171875 
Q 18.359375 1.171875 14.25 2.53125 
Q 10.15625 3.90625 7.421875 6.640625 
Q 4.6875 9.375 3.703125 13.078125 
Q 2.734375 16.796875 2.734375 26.171875 
z
M 10.9375 26.5625 
Q 10.546875 17.1875 12.296875 13.671875 
Q 14.0625 10.15625 18.75 9.171875 
Q 23.4375 8.203125 28.515625 9.375 
Q 33.59375 10.546875 35.546875 14.84375 
Q 37.5 19.140625 36.90625 23.4375 
Q 36.328125 27.734375 32.03125 30.65625 
Q 27.734375 33.59375 22.65625 33.203125 
Q 17.578125 32.8125 14.25 29.6875 
Q 10.9375 26.5625 10.546875 17.1875 
z
M 12.109375 56.25 
Q 12.109375 48.4375 14.84375 44.921875 
Q 17.578125 41.40625 23.4375 41.40625 
Q 29.296875 41.40625 32.21875 44.921875 
Q 35.15625 48.4375 34.953125 53.3125 
Q 34.765625 58.203125 31.4375 60.546875 
Q 28.125 62.890625 22.453125 62.5 
Q 16.796875 62.109375 14.453125 59.171875 
Q 12.109375 56.25 12.109375 48.4375 
z
" id="SimHei-56"/>
      </defs>
      <g transform="translate(45.6 155.058423)scale(0.1 -0.1)">
       <use xlink:href="#SimHei-56"/>
      </g>
     </g>
    </g>
    <g id="ytick_6">
     <g id="line2d_13">
      <g>
       <use style="stroke:#000000;stroke-width:0.8;" x="57.6" xlink:href="#mf6c333aae6" y="112.630154"/>
      </g>
     </g>
     <g id="text_14">
      <!-- 10 -->
      <defs>
       <path d="M 21.875 56.25 
Q 16.796875 51.171875 8.984375 46.484375 
L 8.984375 53.90625 
Q 18.75 60.546875 25 69.53125 
L 29.6875 69.53125 
L 29.6875 2.34375 
L 21.875 2.34375 
z
" id="SimHei-49"/>
      </defs>
      <g transform="translate(40.6 116.067654)scale(0.1 -0.1)">
       <use xlink:href="#SimHei-49"/>
       <use x="50" xlink:href="#SimHei-48"/>
      </g>
     </g>
    </g>
    <g id="ytick_7">
     <g id="line2d_14">
      <g>
       <use style="stroke:#000000;stroke-width:0.8;" x="57.6" xlink:href="#mf6c333aae6" y="73.639385"/>
      </g>
     </g>
     <g id="text_15">
      <!-- 12 -->
      <g transform="translate(40.6 77.076885)scale(0.1 -0.1)">
       <use xlink:href="#SimHei-49"/>
       <use x="50" xlink:href="#SimHei-50"/>
      </g>
     </g>
    </g>
    <g id="text_16">
     <!-- didi_stage -->
     <defs>
      <path d="M 42.96875 1.953125 
L 35.15625 1.953125 
L 35.15625 7.8125 
Q 32.8125 4.296875 29.6875 2.734375 
Q 26.5625 1.171875 22.265625 1.171875 
Q 14.453125 1.171875 8.984375 6.828125 
Q 3.515625 12.5 3.515625 23.828125 
Q 3.515625 35.15625 8.984375 41.015625 
Q 14.453125 46.875 22.265625 46.875 
Q 26.5625 46.875 29.6875 45.109375 
Q 32.8125 43.359375 35.15625 39.84375 
L 35.15625 68.75 
L 42.96875 68.75 
z
M 35.15625 23.828125 
Q 35.15625 31.25 31.828125 35.546875 
Q 28.515625 39.84375 23.828125 39.84375 
Q 17.96875 39.84375 15.03125 35.546875 
Q 12.109375 31.25 12.109375 23.828125 
Q 12.109375 16.40625 15.03125 12.296875 
Q 17.96875 8.203125 23.828125 8.203125 
Q 28.515625 8.203125 31.828125 12.296875 
Q 35.15625 16.40625 35.15625 23.828125 
z
" id="SimHei-100"/>
      <path d="M 28.125 58.203125 
L 20.3125 58.203125 
L 20.3125 68.359375 
L 28.125 68.359375 
z
M 28.125 1.953125 
L 20.3125 1.953125 
L 20.3125 45.703125 
L 28.125 45.703125 
z
" id="SimHei-105"/>
     </defs>
     <g transform="translate(35.271875 199.528)rotate(-90)scale(0.1 -0.1)">
      <use xlink:href="#SimHei-100"/>
      <use x="50" xlink:href="#SimHei-105"/>
      <use x="100" xlink:href="#SimHei-100"/>
      <use x="150" xlink:href="#SimHei-105"/>
      <use x="200" xlink:href="#SimHei-95"/>
      <use x="250" xlink:href="#SimHei-115"/>
      <use x="300" xlink:href="#SimHei-116"/>
      <use x="350" xlink:href="#SimHei-97"/>
      <use x="400" xlink:href="#SimHei-103"/>
      <use x="450" xlink:href="#SimHei-101"/>
     </g>
    </g>
   </g>
   <g id="patch_38">
    <path d="M 57.6 307.584 
L 57.6 41.472 
" style="fill:none;stroke:#000000;stroke-linecap:square;stroke-linejoin:miter;stroke-width:0.8;"/>
   </g>
   <g id="patch_39">
    <path d="M 345.6 307.584 
L 345.6 41.472 
" style="fill:none;stroke:#000000;stroke-linecap:square;stroke-linejoin:miter;stroke-width:0.8;"/>
   </g>
   <g id="patch_40">
    <path d="M 57.6 307.584 
L 345.6 307.584 
" style="fill:none;stroke:#000000;stroke-linecap:square;stroke-linejoin:miter;stroke-width:0.8;"/>
   </g>
   <g id="patch_41">
    <path d="M 57.6 41.472 
L 345.6 41.472 
" style="fill:none;stroke:#000000;stroke-linecap:square;stroke-linejoin:miter;stroke-width:0.8;"/>
   </g>
   <g id="text_17">
    <!-- 出行方式：gz_state和didi_stage柱状图 -->
    <defs>
     <path d="M 23.046875 71.09375 
Q 22.65625 66.015625 22.65625 61.71875 
L 22.65625 46.09375 
L 45.703125 46.09375 
L 45.703125 69.140625 
Q 45.703125 74.609375 45.3125 80.078125 
L 53.515625 80.078125 
Q 53.125 75.390625 53.125 69.140625 
L 53.125 46.09375 
L 76.5625 46.09375 
L 76.5625 60.546875 
Q 76.5625 66.796875 76.171875 70.703125 
L 84.375 70.703125 
Q 83.984375 66.796875 83.984375 60.15625 
L 83.984375 49.609375 
Q 83.984375 43.359375 84.375 39.453125 
L 53.125 39.453125 
L 53.125 3.515625 
L 80.078125 3.515625 
L 80.078125 19.921875 
Q 80.078125 25.78125 79.6875 30.078125 
L 87.890625 30.078125 
Q 87.5 25.78125 87.5 20.3125 
L 87.5 2.734375 
Q 87.5 -5.078125 87.890625 -10.15625 
L 80.078125 -10.15625 
L 80.078125 -3.125 
L 10.546875 -3.125 
Q 10.9375 1.5625 10.9375 8.203125 
L 10.9375 19.921875 
Q 10.9375 26.5625 10.546875 30.46875 
L 18.75 30.46875 
Q 18.359375 26.5625 18.359375 19.921875 
L 18.359375 3.515625 
L 45.703125 3.515625 
L 45.703125 39.453125 
L 14.84375 39.453125 
Q 15.234375 43.359375 15.234375 49.21875 
L 15.234375 61.328125 
Q 15.234375 66.40625 14.84375 71.09375 
L 23.046875 71.09375 
z
" id="SimHei-20986"/>
     <path d="M 82.8125 48.4375 
Q 90.234375 48.4375 96.484375 48.828125 
L 96.484375 41.015625 
Q 90.234375 41.40625 83.203125 41.40625 
L 77.734375 41.40625 
L 77.734375 -1.171875 
Q 78.125 -5.859375 74.796875 -7.609375 
Q 71.484375 -9.375 61.71875 -10.546875 
Q 60.9375 -5.859375 57.421875 -1.171875 
Q 64.0625 -1.953125 66.796875 -1.75 
Q 69.53125 -1.5625 69.921875 2.34375 
L 69.921875 41.40625 
L 54.296875 41.40625 
Q 46.875 41.40625 40.234375 41.015625 
L 40.234375 48.828125 
Q 47.265625 48.4375 54.296875 48.4375 
z
M 35.9375 53.125 
Q 32.421875 51.171875 30.65625 48.046875 
Q 28.90625 44.921875 25.78125 40.234375 
L 25.78125 5.078125 
Q 25.78125 0 26.171875 -10.546875 
L 17.96875 -10.546875 
Q 18.359375 1.171875 18.359375 7.03125 
L 18.359375 32.03125 
Q 14.84375 26.171875 8.984375 20.3125 
Q 6.25 24.21875 3.90625 26.953125 
Q 12.890625 35.546875 17.96875 43.359375 
Q 23.046875 51.171875 26.953125 58.203125 
Q 30.859375 55.859375 35.9375 53.125 
z
M 76.171875 75 
Q 82.8125 75 89.84375 75.390625 
L 89.84375 67.96875 
Q 82.8125 68.359375 75.390625 68.359375 
L 60.9375 68.359375 
Q 52.34375 68.359375 46.09375 67.96875 
L 46.09375 75.390625 
Q 52.34375 75 60.9375 75 
z
M 32.421875 76.953125 
Q 29.296875 76.5625 24.21875 68.546875 
Q 19.140625 60.546875 10.15625 50.78125 
Q 7.8125 53.90625 5.078125 56.640625 
Q 11.328125 62.890625 16.40625 70.109375 
Q 21.484375 77.34375 23.828125 82.8125 
Q 27.734375 80.46875 32.421875 76.953125 
z
" id="SimHei-34892"/>
     <path d="M 6.640625 62.109375 
Q 12.890625 61.71875 20.3125 61.71875 
L 78.515625 61.71875 
Q 87.890625 61.71875 93.75 62.109375 
L 93.75 54.296875 
Q 88.671875 54.6875 79.6875 54.6875 
L 39.453125 54.6875 
Q 39.453125 50.390625 39.0625 39.0625 
L 82.8125 39.0625 
Q 82.03125 33.984375 81.25 24.21875 
L 78.90625 2.734375 
Q 78.125 -4.296875 72.265625 -6.4375 
Q 66.40625 -8.59375 55.078125 -9.765625 
Q 54.6875 -4.6875 51.953125 -0.78125 
Q 60.9375 -1.171875 65.625 0 
Q 70.3125 1.171875 71.484375 6.640625 
L 73.828125 32.03125 
L 38.671875 32.03125 
Q 37.109375 21.09375 33.78125 13.671875 
Q 30.46875 6.25 24.609375 0 
Q 18.75 -6.25 12.890625 -10.9375 
Q 11.328125 -8.59375 5.859375 -5.46875 
Q 10.9375 -2.734375 16.59375 3.125 
Q 22.265625 8.984375 25.96875 16.40625 
Q 29.6875 23.828125 30.65625 32.8125 
Q 31.640625 41.796875 31.640625 54.6875 
L 20.703125 54.6875 
Q 12.109375 54.6875 6.640625 54.296875 
z
M 48.046875 63.671875 
Q 44.53125 71.484375 40.234375 78.125 
Q 43.75 80.078125 47.265625 82.421875 
Q 51.5625 75.78125 55.859375 67.96875 
Q 51.953125 66.40625 48.046875 63.671875 
z
" id="SimHei-26041"/>
     <path d="M 51.5625 60.9375 
Q 50.78125 74.609375 50.390625 81.640625 
Q 52.734375 81.25 60.546875 80.859375 
Q 59.765625 78.125 60.15625 60.9375 
L 75.78125 60.9375 
Q 83.203125 60.9375 91.015625 61.328125 
L 91.015625 53.515625 
Q 83.984375 53.90625 76.171875 53.90625 
L 60.546875 53.90625 
Q 61.71875 43.75 63.859375 34.953125 
Q 66.015625 26.171875 69.53125 18.359375 
Q 73.046875 10.546875 78.703125 4.484375 
Q 84.375 -1.5625 85.546875 3.90625 
Q 86.71875 9.375 86.328125 14.84375 
Q 89.84375 12.109375 96.09375 9.765625 
Q 93.359375 -7.03125 88.078125 -8.203125 
Q 82.8125 -9.375 77.53125 -5.65625 
Q 72.265625 -1.953125 67.578125 5.078125 
Q 62.890625 12.109375 59.953125 20.5 
Q 57.03125 28.90625 55.078125 37.890625 
Q 53.125 46.875 52.34375 53.90625 
L 23.828125 53.90625 
Q 12.5 53.90625 5.46875 53.515625 
L 5.46875 61.328125 
Q 12.890625 60.9375 23.4375 60.9375 
z
M 35.15625 40.234375 
Q 42.578125 40.234375 49.21875 40.625 
L 49.21875 33.203125 
Q 42.1875 33.59375 34.375 33.59375 
L 34.375 8.984375 
Q 42.578125 10.9375 53.125 13.671875 
L 53.125 6.640625 
Q 39.0625 3.90625 30.859375 1.359375 
Q 22.65625 -1.171875 10.9375 -5.859375 
L 7.03125 3.515625 
Q 11.71875 3.90625 26.5625 7.03125 
L 26.5625 33.59375 
Q 15.234375 33.59375 10.9375 33.203125 
L 10.9375 40.625 
Q 15.234375 40.234375 23.046875 40.234375 
z
M 73.4375 79.296875 
Q 80.859375 71.09375 83.984375 67.1875 
Q 82.03125 66.40625 76.5625 62.5 
Q 73.828125 67.1875 66.796875 74.21875 
Q 68.75 75.78125 73.4375 79.296875 
z
" id="SimHei-24335"/>
     <path d="M 18.75 37.890625 
L 31.640625 37.890625 
L 31.640625 25 
L 18.75 25 
z
M 18.75 12.890625 
L 31.640625 12.890625 
L 31.640625 0 
L 18.75 0 
z
" id="SimHei-65306"/>
     <path d="M 91.796875 65.625 
Q 91.40625 57.8125 91.40625 51.171875 
L 91.40625 10.9375 
Q 91.40625 3.90625 91.796875 -0.390625 
L 83.984375 -0.390625 
L 83.984375 8.984375 
L 65.234375 8.984375 
L 65.234375 -1.171875 
L 57.8125 -1.171875 
Q 58.203125 7.8125 58.203125 9.765625 
L 58.203125 51.171875 
Q 58.203125 57.8125 57.8125 65.625 
L 91.796875 65.625 
z
M 51.171875 69.53125 
Q 47.65625 69.53125 35.15625 67.578125 
L 35.15625 50 
L 41.015625 50 
Q 46.875 50 53.515625 50.390625 
L 53.515625 43.359375 
Q 46.875 43.75 41.40625 43.75 
L 35.15625 43.75 
L 35.15625 3.515625 
Q 35.15625 -3.125 35.546875 -8.59375 
L 27.734375 -8.59375 
Q 28.125 -2.34375 28.125 3.515625 
L 28.125 28.90625 
Q 22.265625 17.96875 10.546875 3.90625 
Q 8.59375 6.640625 4.296875 9.375 
Q 12.890625 17.578125 19.328125 28.3125 
Q 25.78125 39.0625 26.5625 43.75 
L 19.53125 43.75 
Q 10.9375 43.75 7.03125 43.359375 
L 7.03125 50.390625 
Q 11.328125 50 19.53125 50 
L 28.125 50 
L 28.125 66.40625 
Q 23.046875 65.625 12.109375 64.453125 
Q 11.328125 68.359375 9.765625 71.484375 
Q 17.1875 71.875 28.515625 73.4375 
Q 39.84375 75 47.65625 78.125 
Q 48.4375 73.828125 51.171875 69.53125 
z
M 83.984375 15.234375 
L 83.984375 58.984375 
L 65.234375 58.984375 
L 65.234375 15.234375 
z
M 48.046875 15.625 
Q 42.96875 25.390625 36.328125 32.8125 
Q 38.671875 34.375 42.1875 37.5 
Q 49.609375 29.296875 54.6875 20.703125 
Q 50.78125 18.359375 48.046875 15.625 
z
" id="SimHei-21644"/>
     <path d="M 80.078125 63.28125 
Q 86.71875 63.28125 92.96875 63.671875 
L 92.96875 56.640625 
Q 87.109375 57.03125 80.078125 57.03125 
L 71.875 57.03125 
L 71.875 36.328125 
L 78.515625 36.328125 
Q 84.765625 36.328125 90.625 36.71875 
L 90.625 29.6875 
Q 84.765625 30.078125 78.515625 30.078125 
L 71.875 30.078125 
L 71.875 2.734375 
L 81.25 2.734375 
Q 89.453125 2.734375 95.3125 3.125 
L 95.3125 -3.90625 
Q 89.453125 -3.515625 81.25 -3.515625 
L 54.296875 -3.515625 
Q 46.09375 -3.515625 39.84375 -3.90625 
L 39.84375 3.125 
Q 46.09375 2.734375 54.6875 2.734375 
L 64.453125 2.734375 
L 64.453125 30.078125 
L 60.546875 30.078125 
Q 52.734375 30.078125 47.65625 29.6875 
L 47.65625 36.71875 
Q 52.734375 36.328125 60.546875 36.328125 
L 64.453125 36.328125 
L 64.453125 57.03125 
L 58.59375 57.03125 
Q 50.390625 57.03125 44.53125 56.640625 
L 44.53125 63.671875 
Q 50.390625 63.28125 58.59375 63.28125 
z
M 34.375 44.140625 
Q 37.109375 39.453125 43.359375 28.515625 
Q 39.453125 26.171875 35.9375 23.828125 
Q 33.984375 28.515625 28.515625 39.0625 
L 28.515625 7.8125 
Q 28.515625 -0.390625 28.90625 -8.59375 
L 20.3125 -8.59375 
Q 20.703125 0 20.703125 7.8125 
L 20.703125 35.15625 
Q 16.40625 24.21875 8.59375 12.5 
Q 4.296875 19.921875 3.125 21.09375 
Q 8.984375 27.734375 11.515625 32.21875 
Q 14.0625 36.71875 16.203125 41.984375 
Q 18.359375 47.265625 19.53125 53.515625 
Q 12.890625 53.515625 5.859375 53.125 
L 5.859375 60.15625 
Q 12.890625 59.765625 20.703125 59.765625 
L 20.703125 69.140625 
Q 20.3125 75 20.3125 80.078125 
L 28.90625 80.078125 
Q 28.515625 75.390625 28.515625 69.140625 
L 28.515625 59.765625 
Q 34.375 59.765625 41.015625 60.15625 
L 41.015625 53.125 
Q 34.375 53.515625 28.515625 53.515625 
L 28.515625 40.234375 
L 34.375 44.140625 
z
M 69.140625 80.859375 
Q 70.3125 78.125 71.484375 75.1875 
Q 72.65625 72.265625 73.828125 68.75 
Q 69.53125 67.578125 65.625 66.40625 
Q 64.453125 69.53125 63.28125 72.84375 
Q 62.109375 76.171875 60.9375 78.515625 
Q 64.84375 80.078125 69.140625 80.859375 
z
" id="SimHei-26609"/>
     <path d="M 34.765625 -4.296875 
Q 41.796875 0.390625 46.484375 7.421875 
Q 51.171875 14.453125 53.90625 21.09375 
Q 56.640625 27.734375 57.8125 33.984375 
Q 58.984375 40.234375 59.375 44.921875 
L 50.390625 44.921875 
Q 44.53125 44.921875 39.0625 44.53125 
L 39.0625 51.953125 
Q 44.53125 51.5625 50 51.5625 
L 59.765625 51.5625 
Q 59.765625 62.109375 59.5625 68.359375 
Q 59.375 74.609375 58.984375 79.296875 
L 69.140625 79.296875 
Q 67.96875 74.21875 67.765625 68.9375 
Q 67.578125 63.671875 67.578125 51.5625 
L 83.59375 51.5625 
Q 87.890625 51.5625 93.359375 51.953125 
L 93.359375 44.53125 
Q 87.890625 44.921875 83.59375 44.921875 
L 68.359375 44.921875 
Q 73.046875 22.65625 78.3125 15.03125 
Q 83.59375 7.421875 87.890625 4.09375 
Q 92.1875 0.78125 95.703125 -1.171875 
Q 90.234375 -3.515625 87.890625 -8.203125 
Q 81.640625 -3.125 77.921875 1.75 
Q 74.21875 6.640625 71.671875 11.328125 
Q 69.140625 16.015625 67.375 20.890625 
Q 65.625 25.78125 64.453125 31.25 
Q 62.5 21.875 59.5625 15.234375 
Q 56.640625 8.59375 53.515625 3.703125 
Q 50.390625 -1.171875 42.96875 -9.765625 
Q 39.453125 -6.25 34.765625 -4.296875 
z
M 34.765625 81.25 
Q 34.375 75.390625 34.375 66.40625 
L 34.375 12.109375 
Q 34.375 0.78125 34.765625 -9.765625 
L 26.171875 -9.765625 
Q 26.5625 1.171875 26.5625 12.109375 
L 26.5625 30.46875 
Q 23.828125 27.34375 18.75 21.09375 
Q 13.671875 14.84375 10.9375 11.71875 
Q 7.8125 15.625 4.296875 17.96875 
Q 8.984375 21.484375 14.25 26.75 
Q 19.53125 32.03125 26.5625 40.625 
L 26.5625 66.40625 
Q 26.5625 75.390625 26.171875 81.25 
L 34.765625 81.25 
z
M 9.765625 67.578125 
Q 12.5 64.453125 15.625 60.546875 
Q 18.75 56.640625 21.484375 52.734375 
Q 18.359375 50.390625 16.40625 48.046875 
Q 13.28125 52.34375 3.90625 63.28125 
Q 6.25 65.234375 9.765625 67.578125 
z
M 85.546875 57.03125 
Q 82.03125 62.109375 73.4375 69.921875 
Q 76.5625 72.265625 78.515625 74.21875 
Q 82.03125 71.484375 84.765625 68.546875 
Q 87.5 65.625 91.015625 62.109375 
Q 87.890625 59.375 85.546875 57.03125 
z
" id="SimHei-29366"/>
     <path d="M 90.625 77.734375 
Q 90.234375 67.96875 90.234375 56.25 
L 90.234375 14.453125 
Q 90.234375 2.34375 90.625 -9.375 
L 82.8125 -9.375 
L 82.8125 -4.296875 
L 17.578125 -4.296875 
L 17.578125 -10.15625 
L 9.765625 -10.15625 
Q 10.15625 1.953125 10.15625 14.84375 
L 10.15625 56.25 
Q 10.15625 67.578125 9.765625 77.734375 
L 90.625 77.734375 
z
M 82.8125 2.34375 
L 82.8125 71.484375 
L 17.578125 71.484375 
L 17.578125 2.34375 
z
M 50.390625 66.40625 
Q 48.046875 64.0625 46.09375 61.328125 
L 72.265625 61.328125 
Q 70.703125 57.8125 67.1875 52.734375 
Q 63.671875 47.65625 56.25 40.625 
Q 67.96875 34.765625 79.296875 33.59375 
Q 76.5625 30.078125 74.609375 26.171875 
Q 60.15625 30.46875 50.390625 36.71875 
Q 39.0625 29.296875 26.171875 25.78125 
Q 25 29.296875 21.875 32.421875 
Q 34.375 34.375 44.921875 40.625 
Q 39.453125 45.703125 37.109375 49.21875 
Q 33.59375 45.3125 29.6875 41.40625 
Q 26.953125 44.53125 23.828125 46.09375 
Q 30.46875 51.5625 35.15625 58.390625 
Q 39.84375 65.234375 41.796875 69.921875 
Q 45.703125 67.96875 50.390625 66.40625 
z
M 38.28125 19.921875 
Q 55.46875 14.84375 64.0625 11.328125 
Q 62.109375 8.203125 60.15625 4.6875 
Q 44.140625 11.328125 35.546875 13.28125 
Q 37.109375 16.40625 38.28125 19.921875 
z
M 45.703125 32.03125 
Q 58.984375 26.5625 63.671875 25 
Q 61.71875 21.875 60.15625 17.96875 
Q 46.875 24.21875 42.1875 25.78125 
Q 44.140625 28.515625 45.703125 32.03125 
z
M 41.015625 53.90625 
Q 46.875 47.265625 51.171875 44.53125 
Q 56.25 48.4375 60.546875 55.078125 
L 41.796875 55.078125 
L 41.015625 53.90625 
z
" id="SimHei-22270"/>
    </defs>
    <g transform="translate(93.6 35.472)scale(0.12 -0.12)">
     <use xlink:href="#SimHei-20986"/>
     <use x="100" xlink:href="#SimHei-34892"/>
     <use x="200" xlink:href="#SimHei-26041"/>
     <use x="300" xlink:href="#SimHei-24335"/>
     <use x="400" xlink:href="#SimHei-65306"/>
     <use x="500" xlink:href="#SimHei-103"/>
     <use x="550" xlink:href="#SimHei-122"/>
     <use x="600" xlink:href="#SimHei-95"/>
     <use x="650" xlink:href="#SimHei-115"/>
     <use x="700" xlink:href="#SimHei-116"/>
     <use x="750" xlink:href="#SimHei-97"/>
     <use x="800" xlink:href="#SimHei-116"/>
     <use x="850" xlink:href="#SimHei-101"/>
     <use x="900" xlink:href="#SimHei-21644"/>
     <use x="1000" xlink:href="#SimHei-100"/>
     <use x="1050" xlink:href="#SimHei-105"/>
     <use x="1100" xlink:href="#SimHei-100"/>
     <use x="1150" xlink:href="#SimHei-105"/>
     <use x="1200" xlink:href="#SimHei-95"/>
     <use x="1250" xlink:href="#SimHei-115"/>
     <use x="1300" xlink:href="#SimHei-116"/>
     <use x="1350" xlink:href="#SimHei-97"/>
     <use x="1400" xlink:href="#SimHei-103"/>
     <use x="1450" xlink:href="#SimHei-101"/>
     <use x="1500" xlink:href="#SimHei-26609"/>
     <use x="1600" xlink:href="#SimHei-29366"/>
     <use x="1700" xlink:href="#SimHei-22270"/>
    </g>
   </g>
   <g id="legend_1">
    <g id="patch_42">
     <path d="M 362 307.584 
L 399 307.584 
Q 401 307.584 401 305.584 
L 401 240.334 
Q 401 238.334 399 238.334 
L 362 238.334 
Q 360 238.334 360 240.334 
L 360 305.584 
Q 360 307.584 362 307.584 
z
" style="fill:#ffffff;opacity:0.8;stroke:#cccccc;stroke-linejoin:miter;"/>
    </g>
    <g id="patch_43">
     <path d="M 364 249.334 
L 384 249.334 
L 384 242.334 
L 364 242.334 
z
" style="fill:#1f77b4;"/>
    </g>
    <g id="text_18">
     <!-- 1 -->
     <g transform="translate(392 249.334)scale(0.1 -0.1)">
      <use xlink:href="#SimHei-49"/>
     </g>
    </g>
    <g id="patch_44">
     <path d="M 364 262.584 
L 384 262.584 
L 384 255.584 
L 364 255.584 
z
" style="fill:#ff7f0e;"/>
    </g>
    <g id="text_19">
     <!-- 2 -->
     <g transform="translate(392 262.584)scale(0.1 -0.1)">
      <use xlink:href="#SimHei-50"/>
     </g>
    </g>
    <g id="patch_45">
     <path d="M 364 275.834 
L 384 275.834 
L 384 268.834 
L 364 268.834 
z
" style="fill:#2ca02c;"/>
    </g>
    <g id="text_20">
     <!-- 3 -->
     <defs>
      <path d="M 3.90625 19.140625 
L 10.9375 20.3125 
Q 12.5 15.234375 16.015625 11.90625 
Q 19.53125 8.59375 24.796875 8.78125 
Q 30.078125 8.984375 33.203125 13.078125 
Q 36.328125 17.1875 35.9375 22.453125 
Q 35.546875 27.734375 31.828125 30.65625 
Q 28.125 33.59375 19.921875 34.765625 
L 19.921875 39.84375 
Q 28.125 40.625 31.828125 44.140625 
Q 35.546875 47.65625 35.15625 53.3125 
Q 34.765625 58.984375 30.078125 61.515625 
Q 25.390625 64.0625 20.109375 62.109375 
Q 14.84375 60.15625 11.71875 51.171875 
L 4.6875 52.34375 
Q 7.03125 59.375 11.125 64.0625 
Q 15.234375 68.75 22.265625 69.53125 
Q 29.296875 70.3125 34.5625 67.765625 
Q 39.84375 65.234375 41.984375 59.953125 
Q 44.140625 54.6875 42.578125 48.4375 
Q 41.015625 42.1875 33.59375 37.5 
Q 39.0625 35.15625 41.984375 30.46875 
Q 44.921875 25.78125 43.9375 18.15625 
Q 42.96875 10.546875 37.109375 5.859375 
Q 31.25 1.171875 23.828125 1.359375 
Q 16.40625 1.5625 10.9375 6.046875 
Q 5.46875 10.546875 3.90625 19.140625 
z
" id="SimHei-51"/>
     </defs>
     <g transform="translate(392 275.834)scale(0.1 -0.1)">
      <use xlink:href="#SimHei-51"/>
     </g>
    </g>
    <g id="patch_46">
     <path d="M 364 289.084 
L 384 289.084 
L 384 282.084 
L 364 282.084 
z
" style="fill:#d62728;"/>
    </g>
    <g id="text_21">
     <!-- 4 -->
     <g transform="translate(392 289.084)scale(0.1 -0.1)">
      <use xlink:href="#SimHei-52"/>
     </g>
    </g>
    <g id="patch_47">
     <path d="M 364 302.334 
L 384 302.334 
L 384 295.334 
L 364 295.334 
z
" style="fill:#9467bd;"/>
    </g>
    <g id="text_22">
     <!-- 5 -->
     <defs>
      <path d="M 8.59375 20.703125 
Q 11.328125 10.15625 17.96875 8.984375 
Q 24.609375 7.8125 28.703125 10.34375 
Q 32.8125 12.890625 34.5625 16.984375 
Q 36.328125 21.09375 36.125 26.171875 
Q 35.9375 31.25 33.390625 34.765625 
Q 30.859375 38.28125 26.953125 39.453125 
Q 23.046875 40.625 18.15625 39.453125 
Q 13.28125 38.28125 10.15625 33.984375 
L 3.515625 34.765625 
Q 4.296875 37.109375 10.9375 68.359375 
L 41.796875 68.359375 
L 41.796875 61.328125 
L 16.796875 61.328125 
Q 14.84375 50.78125 12.890625 44.53125 
Q 18.75 47.265625 23.828125 47.0625 
Q 28.90625 46.875 33.59375 44.71875 
Q 38.28125 42.578125 40.421875 38.859375 
Q 42.578125 35.15625 43.546875 31.4375 
Q 44.53125 27.734375 44.328125 23.4375 
Q 44.140625 19.140625 42.578125 14.640625 
Q 41.015625 10.15625 37.890625 7.21875 
Q 34.765625 4.296875 30.265625 2.53125 
Q 25.78125 0.78125 19.921875 1.171875 
Q 14.0625 1.5625 8.78125 5.46875 
Q 3.515625 9.375 1.5625 18.75 
z
" id="SimHei-53"/>
     </defs>
     <g transform="translate(392 302.334)scale(0.1 -0.1)">
      <use xlink:href="#SimHei-53"/>
     </g>
    </g>
   </g>
  </g>
 </g>
 <defs>
  <clipPath id="p04ed3d314e">
   <rect height="266.112" width="288" x="57.6" y="41.472"/>
  </clipPath>
 </defs>
</svg>
