<?xml version="1.0" encoding="utf-8" standalone="no"?>
<!DOCTYPE svg PUBLIC "-//W3C//DTD SVG 1.1//EN"
  "http://www.w3.org/Graphics/SVG/1.1/DTD/svg11.dtd">
<!-- Created with matplotlib (https://matplotlib.org/) -->
<svg height="720pt" version="1.1" viewBox="0 0 1080 720" width="1080pt" xmlns="http://www.w3.org/2000/svg" xmlns:xlink="http://www.w3.org/1999/xlink">
 <defs>
  <style type="text/css">
*{stroke-linecap:butt;stroke-linejoin:round;}
  </style>
 </defs>
 <g id="figure_1">
  <g id="patch_1">
   <path d="M 0 720 
L 1080 720 
L 1080 0 
L 0 0 
z
" style="fill:#ffffff;"/>
  </g>
  <g id="axes_1">
   <g id="patch_2">
    <path d="M 270.284737 165.211083 
C 270.284737 150.873221 265.031172 137.02071 255.523411 126.288666 
C 246.01565 115.556623 232.897386 108.671626 218.664063 106.943388 
L 211.589085 165.211083 
L 270.284737 165.211083 
z
" style="fill:#092436;opacity:0.5;stroke:#092436;stroke-linejoin:miter;"/>
   </g>
   <g id="patch_3">
    <path d="M 214.270631 110.83563 
C 204.837834 109.690281 195.266483 110.852454 186.381886 114.221937 
C 177.497289 117.591421 169.562367 123.068502 163.261324 130.18091 
L 207.195652 169.103325 
L 214.270631 110.83563 
z
" style="fill:#4c2604;opacity:0.5;stroke:#4c2604;stroke-linejoin:miter;"/>
   </g>
   <g id="patch_4">
    <path d="M 163.261324 130.18091 
C 160.122171 133.724281 157.423182 137.634442 155.223232 141.826098 
C 153.023281 146.017754 151.338483 150.460203 150.205588 155.056539 
L 207.195652 169.103325 
L 163.261324 130.18091 
z
" style="fill:#0d300d;opacity:0.5;stroke:#0d300d;stroke-linejoin:miter;"/>
   </g>
   <g id="patch_5">
    <path d="M 150.205588 155.056539 
C 146.774314 168.977769 148.560098 183.685012 155.223235 196.380558 
C 161.886372 209.076103 172.975757 218.90044 186.381891 223.984714 
L 207.195652 169.103325 
L 150.205588 155.056539 
z
" style="fill:#400c0c;opacity:0.5;stroke:#400c0c;stroke-linejoin:miter;"/>
   </g>
   <g id="patch_6">
    <path d="M 186.381891 223.984714 
C 195.266488 227.354197 204.837839 228.516369 214.270636 227.371019 
C 223.703433 226.225669 232.718532 222.806692 240.538588 217.408896 
C 248.358644 212.0111 254.75224 204.794221 259.168074 196.380548 
C 263.583909 187.966876 265.891306 178.605394 265.891304 169.103317 
L 207.195652 169.103325 
L 186.381891 223.984714 
z
" style="fill:#2c1f39;opacity:0.5;stroke:#2c1f39;stroke-linejoin:miter;"/>
   </g>
   <g id="patch_7">
    <path d="M 271.45865 164.03717 
C 271.45865 149.699308 266.205085 135.846797 256.697324 125.114753 
C 247.189563 114.38271 234.071299 107.497713 219.837976 105.769475 
L 212.762998 164.03717 
L 271.45865 164.03717 
z
" style="fill:#1f77b4;"/>
   </g>
   <g id="patch_8">
    <path d="M 215.444544 109.661717 
C 206.011747 108.516368 196.440396 109.678541 187.555799 113.048024 
C 178.671202 116.417508 170.73628 121.894589 164.435237 129.006997 
L 208.369565 167.929412 
L 215.444544 109.661717 
z
" style="fill:#ff7f0e;"/>
   </g>
   <g id="patch_9">
    <path d="M 164.435237 129.006997 
C 161.296084 132.550368 158.597095 136.460529 156.397145 140.652185 
C 154.197194 144.843841 152.512396 149.28629 151.379501 153.882626 
L 208.369565 167.929412 
L 164.435237 129.006997 
z
" style="fill:#2ca02c;"/>
   </g>
   <g id="patch_10">
    <path d="M 151.379501 153.882626 
C 147.948227 167.803856 149.734011 182.511099 156.397148 195.206645 
C 163.060285 207.90219 174.14967 217.726526 187.555804 222.810801 
L 208.369565 167.929412 
L 151.379501 153.882626 
z
" style="fill:#d62728;"/>
   </g>
   <g id="patch_11">
    <path d="M 187.555804 222.810801 
C 196.440401 226.180284 206.011752 227.342456 215.444549 226.197106 
C 224.877346 225.051756 233.892445 221.632779 241.712501 216.234983 
C 249.532557 210.837187 255.926153 203.620308 260.341987 195.206635 
C 264.757822 186.792962 267.065219 177.431481 267.065217 167.929404 
L 208.369565 167.929412 
L 187.555804 222.810801 
z
" style="fill:#9467bd;"/>
   </g>
   <g id="matplotlib.axis_1"/>
   <g id="matplotlib.axis_2"/>
   <g id="text_1">
    <!-- 1 -->
    <defs>
     <path d="M 21.875 56.25 
Q 16.796875 51.171875 8.984375 46.484375 
L 8.984375 53.90625 
Q 18.75 60.546875 25 69.53125 
L 29.6875 69.53125 
L 29.6875 2.34375 
L 21.875 2.34375 
z
" id="SimHei-49"/>
    </defs>
    <g transform="translate(261.090757 124.035011)scale(0.1 -0.1)">
     <use xlink:href="#SimHei-49"/>
    </g>
   </g>
   <g id="text_2">
    <!-- 23% -->
    <defs>
     <path d="M 4.6875 3.90625 
Q 5.078125 9.765625 10.15625 14.453125 
Q 15.234375 19.140625 23.046875 29.09375 
Q 30.859375 39.0625 33.203125 44.53125 
Q 35.546875 50 34.953125 53.90625 
Q 34.375 57.8125 31.25 60.34375 
Q 28.125 62.890625 24.015625 62.5 
Q 19.921875 62.109375 16.203125 59.375 
Q 12.5 56.640625 10.546875 51.171875 
L 3.125 52.34375 
Q 6.25 61.328125 11.125 65.421875 
Q 16.015625 69.53125 22.65625 69.921875 
Q 26.5625 70.3125 29.6875 69.71875 
Q 32.8125 69.140625 36.125 66.984375 
Q 39.453125 64.84375 41.59375 60.546875 
Q 43.75 56.25 43.15625 50.1875 
Q 42.578125 44.140625 37.109375 35.734375 
Q 31.640625 27.34375 16.015625 9.375 
L 44.140625 9.375 
L 44.140625 2.34375 
L 4.6875 2.34375 
z
" id="SimHei-50"/>
     <path d="M 3.90625 19.140625 
L 10.9375 20.3125 
Q 12.5 15.234375 16.015625 11.90625 
Q 19.53125 8.59375 24.796875 8.78125 
Q 30.078125 8.984375 33.203125 13.078125 
Q 36.328125 17.1875 35.9375 22.453125 
Q 35.546875 27.734375 31.828125 30.65625 
Q 28.125 33.59375 19.921875 34.765625 
L 19.921875 39.84375 
Q 28.125 40.625 31.828125 44.140625 
Q 35.546875 47.65625 35.15625 53.3125 
Q 34.765625 58.984375 30.078125 61.515625 
Q 25.390625 64.0625 20.109375 62.109375 
Q 14.84375 60.15625 11.71875 51.171875 
L 4.6875 52.34375 
Q 7.03125 59.375 11.125 64.0625 
Q 15.234375 68.75 22.265625 69.53125 
Q 29.296875 70.3125 34.5625 67.765625 
Q 39.84375 65.234375 41.984375 59.953125 
Q 44.140625 54.6875 42.578125 48.4375 
Q 41.015625 42.1875 33.59375 37.5 
Q 39.0625 35.15625 41.984375 30.46875 
Q 44.921875 25.78125 43.9375 18.15625 
Q 42.96875 10.546875 37.109375 5.859375 
Q 31.25 1.171875 23.828125 1.359375 
Q 16.40625 1.5625 10.9375 6.046875 
Q 5.46875 10.546875 3.90625 19.140625 
z
" id="SimHei-51"/>
     <path d="M 21.875 51.953125 
Q 21.875 40.625 18.546875 37.5 
Q 15.234375 34.375 12.109375 34.375 
Q 8.984375 34.375 5.65625 37.5 
Q 2.34375 40.625 2.34375 51.953125 
Q 2.34375 63.28125 5.65625 66.40625 
Q 8.984375 69.53125 12.109375 69.53125 
Q 15.234375 69.53125 18.546875 66.40625 
Q 21.875 63.28125 21.875 51.953125 
z
M 41.015625 68.359375 
L 10.9375 1.171875 
L 7.8125 2.34375 
L 37.890625 69.53125 
z
M 46.484375 18.75 
Q 46.484375 7.421875 43.15625 4.296875 
Q 39.84375 1.171875 36.71875 1.171875 
Q 33.59375 1.171875 30.265625 4.296875 
Q 26.953125 7.421875 26.953125 18.75 
Q 26.953125 30.078125 30.265625 33.203125 
Q 33.59375 36.328125 36.71875 36.328125 
Q 39.84375 36.328125 43.15625 33.203125 
Q 46.484375 30.078125 46.484375 18.75 
z
M 15.625 51.953125 
Q 15.625 58.984375 14.84375 61.328125 
Q 14.0625 63.671875 12.109375 63.671875 
Q 10.15625 63.671875 9.375 61.328125 
Q 8.59375 58.984375 8.59375 51.953125 
Q 8.59375 44.921875 9.375 42.578125 
Q 10.15625 40.234375 12.109375 40.234375 
Q 14.0625 40.234375 14.84375 42.578125 
Q 15.625 44.921875 15.625 51.953125 
z
M 40.234375 18.75 
Q 40.234375 25.78125 39.453125 28.125 
Q 38.671875 30.46875 36.71875 30.46875 
Q 34.765625 30.46875 33.984375 28.125 
Q 33.203125 25.78125 33.203125 18.75 
Q 33.203125 11.71875 33.984375 9.375 
Q 34.765625 7.03125 36.71875 7.03125 
Q 38.671875 7.03125 39.453125 9.375 
Q 40.234375 11.71875 40.234375 18.75 
z
" id="SimHei-37"/>
    </defs>
    <g transform="translate(231.623594 143.49622)scale(0.1 -0.1)">
     <use xlink:href="#SimHei-50"/>
     <use x="50" xlink:href="#SimHei-51"/>
     <use x="100" xlink:href="#SimHei-37"/>
    </g>
   </g>
   <g id="text_3">
    <!-- 2 -->
    <g transform="translate(180.474422 110.372385)scale(0.1 -0.1)">
     <use xlink:href="#SimHei-50"/>
    </g>
   </g>
   <g id="text_4">
    <!-- 15% -->
    <defs>
     <path d="M 8.59375 20.703125 
Q 11.328125 10.15625 17.96875 8.984375 
Q 24.609375 7.8125 28.703125 10.34375 
Q 32.8125 12.890625 34.5625 16.984375 
Q 36.328125 21.09375 36.125 26.171875 
Q 35.9375 31.25 33.390625 34.765625 
Q 30.859375 38.28125 26.953125 39.453125 
Q 23.046875 40.625 18.15625 39.453125 
Q 13.28125 38.28125 10.15625 33.984375 
L 3.515625 34.765625 
Q 4.296875 37.109375 10.9375 68.359375 
L 41.796875 68.359375 
L 41.796875 61.328125 
L 16.796875 61.328125 
Q 14.84375 50.78125 12.890625 44.53125 
Q 18.75 47.265625 23.828125 47.0625 
Q 28.90625 46.875 33.59375 44.71875 
Q 38.28125 42.578125 40.421875 38.859375 
Q 42.578125 35.15625 43.546875 31.4375 
Q 44.53125 27.734375 44.328125 23.4375 
Q 44.140625 19.140625 42.578125 14.640625 
Q 41.015625 10.15625 37.890625 7.21875 
Q 34.765625 4.296875 30.265625 2.53125 
Q 25.78125 0.78125 19.921875 1.171875 
Q 14.0625 1.5625 8.78125 5.46875 
Q 3.515625 9.375 1.5625 18.75 
z
" id="SimHei-53"/>
    </defs>
    <g transform="translate(188.381305 137.813079)scale(0.1 -0.1)">
     <use xlink:href="#SimHei-49"/>
     <use x="50" xlink:href="#SimHei-53"/>
     <use x="100" xlink:href="#SimHei-37"/>
    </g>
   </g>
   <g id="text_5">
    <!-- 3 -->
    <g transform="translate(146.199903 140.736962)scale(0.1 -0.1)">
     <use xlink:href="#SimHei-51"/>
    </g>
   </g>
   <g id="text_6">
    <!-- 8% -->
    <defs>
     <path d="M 2.734375 16.796875 
Q 2.734375 26.171875 5.078125 30.65625 
Q 7.421875 35.15625 12.890625 37.890625 
Q 8.203125 40.625 6.640625 43.9375 
Q 5.078125 47.265625 4.875 51.5625 
Q 4.6875 55.859375 6.046875 58.984375 
Q 7.421875 62.109375 10.15625 64.84375 
Q 12.890625 67.578125 16.203125 68.546875 
Q 19.53125 69.53125 23.4375 69.53125 
Q 27.34375 69.53125 30.46875 68.75 
Q 33.59375 67.96875 37.109375 65.421875 
Q 40.625 62.890625 42.1875 58.203125 
Q 43.75 53.515625 41.984375 47.265625 
Q 40.234375 41.015625 32.8125 37.5 
Q 39.453125 35.546875 42.1875 31.4375 
Q 44.921875 27.34375 44.921875 21.484375 
Q 44.921875 15.625 43.15625 12.109375 
Q 41.40625 8.59375 39.25 6.25 
Q 37.109375 3.90625 33.390625 2.53125 
Q 29.6875 1.171875 24.015625 1.171875 
Q 18.359375 1.171875 14.25 2.53125 
Q 10.15625 3.90625 7.421875 6.640625 
Q 4.6875 9.375 3.703125 13.078125 
Q 2.734375 16.796875 2.734375 26.171875 
z
M 10.9375 26.5625 
Q 10.546875 17.1875 12.296875 13.671875 
Q 14.0625 10.15625 18.75 9.171875 
Q 23.4375 8.203125 28.515625 9.375 
Q 33.59375 10.546875 35.546875 14.84375 
Q 37.5 19.140625 36.90625 23.4375 
Q 36.328125 27.734375 32.03125 30.65625 
Q 27.734375 33.59375 22.65625 33.203125 
Q 17.578125 32.8125 14.25 29.6875 
Q 10.9375 26.5625 10.546875 17.1875 
z
M 12.109375 56.25 
Q 12.109375 48.4375 14.84375 44.921875 
Q 17.578125 41.40625 23.4375 41.40625 
Q 29.296875 41.40625 32.21875 44.921875 
Q 35.15625 48.4375 34.953125 53.3125 
Q 34.765625 58.203125 31.4375 60.546875 
Q 28.125 62.890625 22.453125 62.5 
Q 16.796875 62.109375 14.453125 59.171875 
Q 12.109375 56.25 12.109375 48.4375 
z
" id="SimHei-56"/>
    </defs>
    <g transform="translate(172.186113 154.375576)scale(0.1 -0.1)">
     <use xlink:href="#SimHei-56"/>
     <use x="50" xlink:href="#SimHei-37"/>
    </g>
   </g>
   <g id="text_7">
    <!-- 4 -->
    <defs>
     <path d="M 31.25 17.1875 
L 1.171875 17.1875 
L 1.171875 23.828125 
L 32.8125 69.53125 
L 38.671875 69.53125 
L 38.671875 23.828125 
L 48.046875 23.828125 
L 48.046875 17.1875 
L 38.671875 17.1875 
L 38.671875 2.34375 
L 31.25 2.34375 
z
M 31.25 23.828125 
L 31.25 54.6875 
L 9.375 23.828125 
z
" id="SimHei-52"/>
    </defs>
    <g transform="translate(146.199906 200.746868)scale(0.1 -0.1)">
     <use xlink:href="#SimHei-52"/>
    </g>
   </g>
   <g id="text_8">
    <!-- 23% -->
    <g transform="translate(169.686115 187.108252)scale(0.1 -0.1)">
     <use xlink:href="#SimHei-50"/>
     <use x="50" xlink:href="#SimHei-51"/>
     <use x="100" xlink:href="#SimHei-37"/>
    </g>
   </g>
   <g id="text_9">
    <!-- 5 -->
    <g transform="translate(245.046795 223.87804)scale(0.1 -0.1)">
     <use xlink:href="#SimHei-53"/>
    </g>
   </g>
   <g id="text_10">
    <!-- 31% -->
    <g transform="translate(220.875327 199.725255)scale(0.1 -0.1)">
     <use xlink:href="#SimHei-51"/>
     <use x="50" xlink:href="#SimHei-49"/>
     <use x="100" xlink:href="#SimHei-37"/>
    </g>
   </g>
   <g id="text_11">
    <!-- 出行方式 越秀区 饼状图 -->
    <defs>
     <path d="M 23.046875 71.09375 
Q 22.65625 66.015625 22.65625 61.71875 
L 22.65625 46.09375 
L 45.703125 46.09375 
L 45.703125 69.140625 
Q 45.703125 74.609375 45.3125 80.078125 
L 53.515625 80.078125 
Q 53.125 75.390625 53.125 69.140625 
L 53.125 46.09375 
L 76.5625 46.09375 
L 76.5625 60.546875 
Q 76.5625 66.796875 76.171875 70.703125 
L 84.375 70.703125 
Q 83.984375 66.796875 83.984375 60.15625 
L 83.984375 49.609375 
Q 83.984375 43.359375 84.375 39.453125 
L 53.125 39.453125 
L 53.125 3.515625 
L 80.078125 3.515625 
L 80.078125 19.921875 
Q 80.078125 25.78125 79.6875 30.078125 
L 87.890625 30.078125 
Q 87.5 25.78125 87.5 20.3125 
L 87.5 2.734375 
Q 87.5 -5.078125 87.890625 -10.15625 
L 80.078125 -10.15625 
L 80.078125 -3.125 
L 10.546875 -3.125 
Q 10.9375 1.5625 10.9375 8.203125 
L 10.9375 19.921875 
Q 10.9375 26.5625 10.546875 30.46875 
L 18.75 30.46875 
Q 18.359375 26.5625 18.359375 19.921875 
L 18.359375 3.515625 
L 45.703125 3.515625 
L 45.703125 39.453125 
L 14.84375 39.453125 
Q 15.234375 43.359375 15.234375 49.21875 
L 15.234375 61.328125 
Q 15.234375 66.40625 14.84375 71.09375 
L 23.046875 71.09375 
z
" id="SimHei-20986"/>
     <path d="M 82.8125 48.4375 
Q 90.234375 48.4375 96.484375 48.828125 
L 96.484375 41.015625 
Q 90.234375 41.40625 83.203125 41.40625 
L 77.734375 41.40625 
L 77.734375 -1.171875 
Q 78.125 -5.859375 74.796875 -7.609375 
Q 71.484375 -9.375 61.71875 -10.546875 
Q 60.9375 -5.859375 57.421875 -1.171875 
Q 64.0625 -1.953125 66.796875 -1.75 
Q 69.53125 -1.5625 69.921875 2.34375 
L 69.921875 41.40625 
L 54.296875 41.40625 
Q 46.875 41.40625 40.234375 41.015625 
L 40.234375 48.828125 
Q 47.265625 48.4375 54.296875 48.4375 
z
M 35.9375 53.125 
Q 32.421875 51.171875 30.65625 48.046875 
Q 28.90625 44.921875 25.78125 40.234375 
L 25.78125 5.078125 
Q 25.78125 0 26.171875 -10.546875 
L 17.96875 -10.546875 
Q 18.359375 1.171875 18.359375 7.03125 
L 18.359375 32.03125 
Q 14.84375 26.171875 8.984375 20.3125 
Q 6.25 24.21875 3.90625 26.953125 
Q 12.890625 35.546875 17.96875 43.359375 
Q 23.046875 51.171875 26.953125 58.203125 
Q 30.859375 55.859375 35.9375 53.125 
z
M 76.171875 75 
Q 82.8125 75 89.84375 75.390625 
L 89.84375 67.96875 
Q 82.8125 68.359375 75.390625 68.359375 
L 60.9375 68.359375 
Q 52.34375 68.359375 46.09375 67.96875 
L 46.09375 75.390625 
Q 52.34375 75 60.9375 75 
z
M 32.421875 76.953125 
Q 29.296875 76.5625 24.21875 68.546875 
Q 19.140625 60.546875 10.15625 50.78125 
Q 7.8125 53.90625 5.078125 56.640625 
Q 11.328125 62.890625 16.40625 70.109375 
Q 21.484375 77.34375 23.828125 82.8125 
Q 27.734375 80.46875 32.421875 76.953125 
z
" id="SimHei-34892"/>
     <path d="M 6.640625 62.109375 
Q 12.890625 61.71875 20.3125 61.71875 
L 78.515625 61.71875 
Q 87.890625 61.71875 93.75 62.109375 
L 93.75 54.296875 
Q 88.671875 54.6875 79.6875 54.6875 
L 39.453125 54.6875 
Q 39.453125 50.390625 39.0625 39.0625 
L 82.8125 39.0625 
Q 82.03125 33.984375 81.25 24.21875 
L 78.90625 2.734375 
Q 78.125 -4.296875 72.265625 -6.4375 
Q 66.40625 -8.59375 55.078125 -9.765625 
Q 54.6875 -4.6875 51.953125 -0.78125 
Q 60.9375 -1.171875 65.625 0 
Q 70.3125 1.171875 71.484375 6.640625 
L 73.828125 32.03125 
L 38.671875 32.03125 
Q 37.109375 21.09375 33.78125 13.671875 
Q 30.46875 6.25 24.609375 0 
Q 18.75 -6.25 12.890625 -10.9375 
Q 11.328125 -8.59375 5.859375 -5.46875 
Q 10.9375 -2.734375 16.59375 3.125 
Q 22.265625 8.984375 25.96875 16.40625 
Q 29.6875 23.828125 30.65625 32.8125 
Q 31.640625 41.796875 31.640625 54.6875 
L 20.703125 54.6875 
Q 12.109375 54.6875 6.640625 54.296875 
z
M 48.046875 63.671875 
Q 44.53125 71.484375 40.234375 78.125 
Q 43.75 80.078125 47.265625 82.421875 
Q 51.5625 75.78125 55.859375 67.96875 
Q 51.953125 66.40625 48.046875 63.671875 
z
" id="SimHei-26041"/>
     <path d="M 51.5625 60.9375 
Q 50.78125 74.609375 50.390625 81.640625 
Q 52.734375 81.25 60.546875 80.859375 
Q 59.765625 78.125 60.15625 60.9375 
L 75.78125 60.9375 
Q 83.203125 60.9375 91.015625 61.328125 
L 91.015625 53.515625 
Q 83.984375 53.90625 76.171875 53.90625 
L 60.546875 53.90625 
Q 61.71875 43.75 63.859375 34.953125 
Q 66.015625 26.171875 69.53125 18.359375 
Q 73.046875 10.546875 78.703125 4.484375 
Q 84.375 -1.5625 85.546875 3.90625 
Q 86.71875 9.375 86.328125 14.84375 
Q 89.84375 12.109375 96.09375 9.765625 
Q 93.359375 -7.03125 88.078125 -8.203125 
Q 82.8125 -9.375 77.53125 -5.65625 
Q 72.265625 -1.953125 67.578125 5.078125 
Q 62.890625 12.109375 59.953125 20.5 
Q 57.03125 28.90625 55.078125 37.890625 
Q 53.125 46.875 52.34375 53.90625 
L 23.828125 53.90625 
Q 12.5 53.90625 5.46875 53.515625 
L 5.46875 61.328125 
Q 12.890625 60.9375 23.4375 60.9375 
z
M 35.15625 40.234375 
Q 42.578125 40.234375 49.21875 40.625 
L 49.21875 33.203125 
Q 42.1875 33.59375 34.375 33.59375 
L 34.375 8.984375 
Q 42.578125 10.9375 53.125 13.671875 
L 53.125 6.640625 
Q 39.0625 3.90625 30.859375 1.359375 
Q 22.65625 -1.171875 10.9375 -5.859375 
L 7.03125 3.515625 
Q 11.71875 3.90625 26.5625 7.03125 
L 26.5625 33.59375 
Q 15.234375 33.59375 10.9375 33.203125 
L 10.9375 40.625 
Q 15.234375 40.234375 23.046875 40.234375 
z
M 73.4375 79.296875 
Q 80.859375 71.09375 83.984375 67.1875 
Q 82.03125 66.40625 76.5625 62.5 
Q 73.828125 67.1875 66.796875 74.21875 
Q 68.75 75.78125 73.4375 79.296875 
z
" id="SimHei-24335"/>
     <path id="SimHei-32"/>
     <path d="M 19.921875 29.296875 
Q 19.140625 23.828125 18.359375 17.578125 
Q 21.875 12.890625 27.34375 9.375 
L 27.34375 39.84375 
Q 15.234375 39.84375 7.8125 39.453125 
L 7.8125 45.703125 
Q 15.234375 45.3125 25.390625 45.3125 
L 25.390625 60.15625 
Q 16.796875 60.15625 10.9375 59.765625 
L 10.9375 66.015625 
Q 16.796875 65.625 25.390625 65.625 
Q 25.390625 73.4375 25 80.078125 
L 32.421875 80.078125 
Q 32.03125 74.21875 32.03125 65.625 
Q 38.671875 65.625 44.53125 66.015625 
L 44.53125 59.765625 
Q 38.671875 60.15625 32.03125 60.15625 
L 32.03125 45.3125 
Q 38.28125 45.3125 45.3125 45.703125 
L 45.3125 39.453125 
Q 38.671875 39.84375 33.984375 39.84375 
L 33.984375 26.5625 
Q 38.28125 26.5625 43.75 26.953125 
L 43.75 21.09375 
Q 38.28125 21.484375 33.984375 21.484375 
L 33.984375 5.46875 
Q 45.703125 0 65.03125 -0.390625 
Q 84.375 -0.78125 94.140625 0.78125 
Q 91.40625 -3.90625 91.015625 -7.421875 
Q 76.5625 -7.421875 64.640625 -7.21875 
Q 52.734375 -7.03125 44.140625 -4.875 
Q 35.546875 -2.734375 28.90625 0.78125 
Q 22.265625 4.296875 17.1875 10.15625 
Q 14.453125 -1.171875 10.546875 -8.203125 
Q 7.03125 -5.078125 5.46875 -3.90625 
Q 8.984375 2.734375 10.34375 8.390625 
Q 11.71875 14.0625 12.296875 20.109375 
Q 12.890625 26.171875 12.890625 31.25 
Q 16.796875 29.6875 19.921875 29.296875 
z
M 71.875 78.125 
Q 71.09375 73.828125 71.09375 70.3125 
L 71.09375 62.109375 
Q 83.59375 62.109375 91.015625 62.5 
L 91.015625 56.640625 
Q 83.59375 57.03125 71.484375 57.03125 
Q 71.875 53.125 72.65625 44.328125 
Q 73.4375 35.546875 75 29.296875 
Q 79.6875 39.84375 81.640625 50 
Q 84.765625 47.65625 88.671875 46.09375 
Q 86.71875 43.75 84.375 37.296875 
Q 82.03125 30.859375 78.125 21.484375 
Q 79.6875 17.578125 82.8125 14.640625 
Q 85.9375 11.71875 87.5 22.265625 
Q 90.625 18.75 93.75 17.578125 
Q 90.625 7.8125 86.328125 5.46875 
Q 82.03125 3.125 73.828125 16.015625 
Q 68.359375 9.375 62.5 3.515625 
Q 59.765625 6.25 56.640625 7.421875 
Q 60.15625 9.765625 63.859375 13.28125 
Q 67.578125 16.796875 70.3125 22.265625 
Q 67.1875 32.421875 65.234375 57.03125 
L 55.46875 57.03125 
L 55.46875 23.828125 
Q 58.59375 25.78125 62.890625 29.6875 
Q 63.671875 26.171875 65.234375 23.046875 
Q 62.109375 20.703125 58.390625 17.96875 
Q 54.6875 15.234375 50.78125 12.109375 
Q 49.21875 14.84375 46.875 17.96875 
Q 49.21875 19.53125 49.21875 23.046875 
L 49.21875 50 
Q 49.21875 55.078125 48.828125 62.109375 
L 64.84375 62.109375 
Q 64.453125 72.65625 64.0625 79.296875 
Q 68.359375 78.125 71.875 78.125 
z
M 79.6875 77.734375 
Q 82.8125 75 89.84375 69.140625 
Q 87.5 67.578125 85.546875 64.453125 
Q 80.46875 69.921875 75.390625 73.4375 
Q 77.734375 75.390625 79.6875 77.734375 
z
" id="SimHei-36234"/>
     <path d="M 82.03125 72.265625 
Q 77.734375 72.265625 70.703125 71.671875 
Q 63.671875 71.09375 53.90625 69.921875 
L 53.90625 59.765625 
L 78.515625 59.765625 
Q 84.375 59.765625 92.1875 60.15625 
L 92.1875 53.125 
Q 84.765625 53.515625 78.515625 53.515625 
L 60.9375 53.515625 
Q 64.453125 49.609375 70.5 45.109375 
Q 76.5625 40.625 82.421875 38.28125 
Q 88.28125 35.9375 94.53125 34.375 
Q 90.625 30.859375 88.671875 26.5625 
Q 82.03125 28.90625 72.65625 34.375 
Q 63.28125 39.84375 53.90625 53.515625 
L 53.90625 32.03125 
L 71.09375 32.03125 
Q 69.921875 28.515625 67.96875 17.578125 
L 85.9375 17.578125 
Q 84.765625 11.328125 84.171875 6.4375 
Q 83.59375 1.5625 82.609375 -2.53125 
Q 81.640625 -6.640625 76.359375 -8 
Q 71.09375 -9.375 65.234375 -10.15625 
Q 64.0625 -5.859375 61.328125 -1.5625 
Q 72.65625 -1.953125 74.40625 -0.1875 
Q 76.171875 1.5625 76.953125 11.71875 
L 58.59375 11.71875 
Q 60.546875 22.65625 61.328125 26.171875 
L 44.53125 26.171875 
Q 43.75 18.359375 41.59375 12.890625 
Q 39.453125 7.421875 36.125 3.3125 
Q 32.8125 -0.78125 26.75 -4.296875 
Q 20.703125 -7.8125 14.0625 -10.546875 
Q 10.546875 -5.859375 7.421875 -3.125 
Q 25.78125 1.171875 31.046875 8.984375 
Q 36.328125 16.796875 36.71875 26.171875 
Q 31.640625 26.171875 23.828125 25.78125 
L 23.828125 31.640625 
Q 22.265625 30.859375 18.75 29.296875 
Q 15.234375 27.734375 10.9375 26.171875 
Q 9.375 30.078125 5.078125 33.984375 
Q 11.328125 34.375 18.546875 37.6875 
Q 25.78125 41.015625 30.265625 45.3125 
Q 34.765625 49.609375 37.109375 53.515625 
L 22.265625 53.515625 
Q 15.625 53.515625 7.421875 53.125 
L 7.421875 60.15625 
Q 16.015625 59.765625 22.265625 59.765625 
L 46.484375 59.765625 
L 46.484375 69.53125 
Q 43.359375 69.140625 36.328125 68.75 
Q 29.296875 68.359375 17.96875 67.1875 
Q 17.1875 70.3125 14.84375 73.828125 
Q 19.921875 73.828125 27.140625 74.21875 
Q 34.375 74.609375 43.359375 75.390625 
Q 52.34375 76.171875 60.9375 77.34375 
Q 69.53125 78.515625 76.5625 80.46875 
Q 77.34375 77.34375 82.03125 72.265625 
z
M 24.609375 32.421875 
Q 31.640625 32.03125 37.890625 32.03125 
L 46.484375 32.03125 
L 46.484375 53.515625 
L 45.3125 53.515625 
Q 40.625 46.09375 36.328125 41.796875 
Q 32.03125 37.5 24.609375 32.421875 
z
" id="SimHei-31168"/>
     <path d="M 91.40625 70.703125 
Q 85.546875 71.09375 75.78125 71.09375 
L 17.96875 71.09375 
L 17.96875 -1.171875 
L 81.640625 -1.171875 
Q 89.453125 -1.171875 94.140625 -0.78125 
L 94.140625 -7.8125 
Q 89.0625 -7.421875 80.859375 -7.421875 
L 9.765625 -7.421875 
Q 10.15625 1.953125 10.15625 6.25 
L 10.15625 65.625 
Q 10.15625 72.265625 9.765625 77.734375 
L 91.40625 77.734375 
z
M 35.546875 60.546875 
Q 49.21875 51.171875 59.375 42.1875 
Q 68.359375 52.734375 72.65625 63.28125 
Q 76.953125 60.546875 82.8125 57.8125 
Q 78.515625 55.078125 75.390625 50.390625 
Q 72.265625 45.703125 66.015625 37.109375 
Q 79.296875 26.171875 87.5 15.625 
Q 82.8125 12.5 80.859375 8.984375 
Q 74.609375 18.359375 60.15625 30.46875 
Q 54.296875 23.828125 48.234375 18.359375 
Q 42.1875 12.890625 33.203125 6.25 
Q 29.6875 9.765625 25.390625 12.109375 
Q 33.203125 15.625 39.453125 20.5 
Q 45.703125 25.390625 54.296875 35.9375 
Q 44.53125 44.921875 30.078125 53.90625 
Q 33.984375 57.03125 35.546875 60.546875 
z
" id="SimHei-21306"/>
     <path d="M 81.25 33.203125 
L 87.109375 33.203125 
Q 92.1875 33.203125 96.09375 33.59375 
L 96.09375 26.171875 
Q 91.40625 26.5625 88.28125 26.5625 
L 81.25 26.5625 
L 81.25 3.515625 
Q 81.25 -5.078125 81.640625 -9.765625 
L 73.4375 -9.765625 
Q 73.828125 -5.46875 73.828125 3.515625 
L 73.828125 26.5625 
L 60.9375 26.5625 
Q 59.765625 12.109375 55.65625 5.265625 
Q 51.5625 -1.5625 41.015625 -10.9375 
Q 37.109375 -7.03125 32.8125 -4.6875 
Q 42.1875 0.390625 47.65625 7.421875 
Q 53.125 14.453125 53.515625 26.5625 
Q 41.796875 26.5625 38.28125 25.78125 
L 38.28125 33.59375 
Q 41.40625 33.203125 53.515625 33.203125 
L 53.515625 53.125 
Q 49.21875 53.125 42.96875 52.734375 
L 42.96875 60.15625 
Q 47.265625 59.765625 51.953125 59.765625 
L 70.703125 59.765625 
Q 74.609375 68.75 77.734375 81.640625 
Q 82.421875 79.296875 87.109375 77.34375 
Q 84.375 75 82.421875 70.5 
Q 80.46875 66.015625 77.734375 59.765625 
L 84.765625 59.765625 
Q 88.28125 59.765625 92.1875 60.15625 
L 92.1875 52.734375 
Q 88.671875 53.125 81.25 53.125 
z
M 17.96875 57.03125 
Q 14.0625 48.828125 7.8125 40.625 
Q 5.859375 44.140625 3.125 46.875 
Q 7.8125 51.953125 11.90625 61.328125 
Q 16.015625 70.703125 17.578125 80.078125 
Q 22.265625 77.734375 26.953125 76.5625 
Q 25 74.21875 23.234375 70.703125 
Q 21.484375 67.1875 20.3125 63.671875 
L 40.625 63.671875 
Q 38.28125 56.25 35.546875 45.3125 
Q 30.46875 46.09375 28.125 46.09375 
Q 29.6875 51.953125 31.25 57.03125 
z
M 25.390625 44.140625 
Q 24.609375 40.234375 24.609375 33.984375 
L 24.609375 11.328125 
Q 30.078125 15.625 35.15625 21.484375 
Q 36.328125 16.796875 38.671875 13.28125 
Q 33.59375 9.765625 28.515625 5.265625 
Q 23.4375 0.78125 19.53125 -4.6875 
Q 16.796875 -0.78125 14.0625 2.34375 
Q 17.1875 6.640625 17.1875 14.453125 
L 17.1875 33.984375 
Q 17.1875 39.84375 16.796875 44.140625 
L 25.390625 44.140625 
z
M 73.828125 33.203125 
L 73.828125 53.125 
L 60.9375 53.125 
L 60.9375 33.203125 
z
M 56.25 81.25 
Q 58.984375 75.390625 64.0625 65.625 
Q 59.375 64.453125 56.25 62.109375 
Q 52.734375 71.09375 48.828125 77.734375 
Q 52.34375 78.90625 56.25 81.25 
z
" id="SimHei-39292"/>
     <path d="M 34.765625 -4.296875 
Q 41.796875 0.390625 46.484375 7.421875 
Q 51.171875 14.453125 53.90625 21.09375 
Q 56.640625 27.734375 57.8125 33.984375 
Q 58.984375 40.234375 59.375 44.921875 
L 50.390625 44.921875 
Q 44.53125 44.921875 39.0625 44.53125 
L 39.0625 51.953125 
Q 44.53125 51.5625 50 51.5625 
L 59.765625 51.5625 
Q 59.765625 62.109375 59.5625 68.359375 
Q 59.375 74.609375 58.984375 79.296875 
L 69.140625 79.296875 
Q 67.96875 74.21875 67.765625 68.9375 
Q 67.578125 63.671875 67.578125 51.5625 
L 83.59375 51.5625 
Q 87.890625 51.5625 93.359375 51.953125 
L 93.359375 44.53125 
Q 87.890625 44.921875 83.59375 44.921875 
L 68.359375 44.921875 
Q 73.046875 22.65625 78.3125 15.03125 
Q 83.59375 7.421875 87.890625 4.09375 
Q 92.1875 0.78125 95.703125 -1.171875 
Q 90.234375 -3.515625 87.890625 -8.203125 
Q 81.640625 -3.125 77.921875 1.75 
Q 74.21875 6.640625 71.671875 11.328125 
Q 69.140625 16.015625 67.375 20.890625 
Q 65.625 25.78125 64.453125 31.25 
Q 62.5 21.875 59.5625 15.234375 
Q 56.640625 8.59375 53.515625 3.703125 
Q 50.390625 -1.171875 42.96875 -9.765625 
Q 39.453125 -6.25 34.765625 -4.296875 
z
M 34.765625 81.25 
Q 34.375 75.390625 34.375 66.40625 
L 34.375 12.109375 
Q 34.375 0.78125 34.765625 -9.765625 
L 26.171875 -9.765625 
Q 26.5625 1.171875 26.5625 12.109375 
L 26.5625 30.46875 
Q 23.828125 27.34375 18.75 21.09375 
Q 13.671875 14.84375 10.9375 11.71875 
Q 7.8125 15.625 4.296875 17.96875 
Q 8.984375 21.484375 14.25 26.75 
Q 19.53125 32.03125 26.5625 40.625 
L 26.5625 66.40625 
Q 26.5625 75.390625 26.171875 81.25 
L 34.765625 81.25 
z
M 9.765625 67.578125 
Q 12.5 64.453125 15.625 60.546875 
Q 18.75 56.640625 21.484375 52.734375 
Q 18.359375 50.390625 16.40625 48.046875 
Q 13.28125 52.34375 3.90625 63.28125 
Q 6.25 65.234375 9.765625 67.578125 
z
M 85.546875 57.03125 
Q 82.03125 62.109375 73.4375 69.921875 
Q 76.5625 72.265625 78.515625 74.21875 
Q 82.03125 71.484375 84.765625 68.546875 
Q 87.5 65.625 91.015625 62.109375 
Q 87.890625 59.375 85.546875 57.03125 
z
" id="SimHei-29366"/>
     <path d="M 90.625 77.734375 
Q 90.234375 67.96875 90.234375 56.25 
L 90.234375 14.453125 
Q 90.234375 2.34375 90.625 -9.375 
L 82.8125 -9.375 
L 82.8125 -4.296875 
L 17.578125 -4.296875 
L 17.578125 -10.15625 
L 9.765625 -10.15625 
Q 10.15625 1.953125 10.15625 14.84375 
L 10.15625 56.25 
Q 10.15625 67.578125 9.765625 77.734375 
L 90.625 77.734375 
z
M 82.8125 2.34375 
L 82.8125 71.484375 
L 17.578125 71.484375 
L 17.578125 2.34375 
z
M 50.390625 66.40625 
Q 48.046875 64.0625 46.09375 61.328125 
L 72.265625 61.328125 
Q 70.703125 57.8125 67.1875 52.734375 
Q 63.671875 47.65625 56.25 40.625 
Q 67.96875 34.765625 79.296875 33.59375 
Q 76.5625 30.078125 74.609375 26.171875 
Q 60.15625 30.46875 50.390625 36.71875 
Q 39.0625 29.296875 26.171875 25.78125 
Q 25 29.296875 21.875 32.421875 
Q 34.375 34.375 44.921875 40.625 
Q 39.453125 45.703125 37.109375 49.21875 
Q 33.59375 45.3125 29.6875 41.40625 
Q 26.953125 44.53125 23.828125 46.09375 
Q 30.46875 51.5625 35.15625 58.390625 
Q 39.84375 65.234375 41.796875 69.921875 
Q 45.703125 67.96875 50.390625 66.40625 
z
M 38.28125 19.921875 
Q 55.46875 14.84375 64.0625 11.328125 
Q 62.109375 8.203125 60.15625 4.6875 
Q 44.140625 11.328125 35.546875 13.28125 
Q 37.109375 16.40625 38.28125 19.921875 
z
M 45.703125 32.03125 
Q 58.984375 26.5625 63.671875 25 
Q 61.71875 21.875 60.15625 17.96875 
Q 46.875 24.21875 42.1875 25.78125 
Q 44.140625 28.515625 45.703125 32.03125 
z
M 41.015625 53.90625 
Q 46.875 47.265625 51.171875 44.53125 
Q 56.25 48.4375 60.546875 55.078125 
L 41.796875 55.078125 
L 41.015625 53.90625 
z
" id="SimHei-22270"/>
    </defs>
    <g transform="translate(142.369565 88.559847)scale(0.12 -0.12)">
     <use xlink:href="#SimHei-20986"/>
     <use x="100" xlink:href="#SimHei-34892"/>
     <use x="200" xlink:href="#SimHei-26041"/>
     <use x="300" xlink:href="#SimHei-24335"/>
     <use x="400" xlink:href="#SimHei-32"/>
     <use x="450" xlink:href="#SimHei-36234"/>
     <use x="550" xlink:href="#SimHei-31168"/>
     <use x="650" xlink:href="#SimHei-21306"/>
     <use x="750" xlink:href="#SimHei-32"/>
     <use x="800" xlink:href="#SimHei-39292"/>
     <use x="900" xlink:href="#SimHei-29366"/>
     <use x="1000" xlink:href="#SimHei-22270"/>
    </g>
   </g>
  </g>
  <g id="axes_2">
   <g id="patch_12">
    <path d="M 447.061453 166.168542 
C 447.061453 155.86607 444.348963 145.742918 439.197727 136.820715 
C 434.04649 127.898513 426.635829 120.487851 417.713626 115.336615 
L 388.365801 166.168542 
L 447.061453 166.168542 
z
" style="fill:#092436;opacity:0.5;stroke:#092436;stroke-linejoin:miter;"/>
   </g>
   <g id="patch_13">
    <path d="M 412.630433 118.271398 
C 403.70823 113.120162 393.585078 110.407672 383.282606 110.407673 
C 372.980134 110.407673 362.856982 113.120164 353.934779 118.271401 
L 383.282609 169.103325 
L 412.630433 118.271398 
z
" style="fill:#4c2604;opacity:0.5;stroke:#4c2604;stroke-linejoin:miter;"/>
   </g>
   <g id="patch_14">
    <path d="M 353.934779 118.271401 
C 345.012577 123.422637 337.601916 130.8333 332.450681 139.755503 
C 327.299445 148.677706 324.586956 158.800858 324.586957 169.10333 
C 324.586957 179.405803 327.299449 189.528954 332.450686 198.451156 
C 337.601923 207.373359 345.012586 214.784019 353.934789 219.935254 
L 383.282609 169.103325 
L 353.934779 118.271401 
z
" style="fill:#0d300d;opacity:0.5;stroke:#0d300d;stroke-linejoin:miter;"/>
   </g>
   <g id="patch_15">
    <path d="M 353.934789 219.935254 
C 362.856992 225.086489 372.980145 227.798978 383.282617 227.798977 
C 393.585089 227.798976 403.708241 225.086484 412.630443 219.935246 
C 421.552645 214.784009 428.963305 207.373346 434.11454 198.451142 
C 439.265774 189.528939 441.978263 179.405786 441.978261 169.103314 
L 383.282609 169.103325 
L 353.934789 219.935254 
z
" style="fill:#400c0c;opacity:0.5;stroke:#400c0c;stroke-linejoin:miter;"/>
   </g>
   <g id="patch_16">
    <path d="M 441.978261 169.103314 
C 441.978261 169.103314 441.978261 169.103314 441.978261 169.103314 
L 383.282609 169.103325 
L 441.978261 169.103314 
z
" style="fill:#2c1f39;opacity:0.5;stroke:#2c1f39;stroke-linejoin:miter;"/>
   </g>
   <g id="patch_17">
    <path d="M 448.235366 164.994629 
C 448.235366 154.692157 445.522876 144.569005 440.37164 135.646802 
C 435.220403 126.7246 427.809742 119.313938 418.887539 114.162702 
L 389.539714 164.994629 
L 448.235366 164.994629 
z
" style="fill:#1f77b4;"/>
   </g>
   <g id="patch_18">
    <path d="M 413.804346 117.097485 
C 404.882143 111.946249 394.758991 109.233759 384.456519 109.23376 
C 374.154047 109.23376 364.030895 111.946251 355.108692 117.097488 
L 384.456522 167.929412 
L 413.804346 117.097485 
z
" style="fill:#ff7f0e;"/>
   </g>
   <g id="patch_19">
    <path d="M 355.108692 117.097488 
C 346.18649 122.248724 338.775829 129.659387 333.624594 138.58159 
C 328.473358 147.503793 325.760869 157.626945 325.76087 167.929417 
C 325.760871 178.231889 328.473362 188.355041 333.624599 197.277243 
C 338.775836 206.199445 346.186499 213.610106 355.108702 218.761341 
L 384.456522 167.929412 
L 355.108692 117.097488 
z
" style="fill:#2ca02c;"/>
   </g>
   <g id="patch_20">
    <path d="M 355.108702 218.761341 
C 364.030905 223.912576 374.154058 226.625065 384.45653 226.625064 
C 394.759002 226.625062 404.882154 223.912571 413.804356 218.761333 
C 422.726558 213.610096 430.137218 206.199433 435.288453 197.277229 
C 440.439687 188.355026 443.152176 178.231873 443.152174 167.929401 
L 384.456522 167.929412 
L 355.108702 218.761341 
z
" style="fill:#d62728;"/>
   </g>
   <g id="patch_21">
    <path d="M 443.152174 167.929401 
C 443.152174 167.929401 443.152174 167.929401 443.152174 167.929401 
L 384.456522 167.929412 
L 443.152174 167.929401 
z
" style="fill:#9467bd;"/>
   </g>
   <g id="matplotlib.axis_3"/>
   <g id="matplotlib.axis_4"/>
   <g id="text_12">
    <!-- 1 -->
    <g transform="translate(445.454832 135.52452)scale(0.1 -0.1)">
     <use xlink:href="#SimHei-49"/>
    </g>
   </g>
   <g id="text_13">
    <!-- 17% -->
    <defs>
     <path d="M 13.28125 2.34375 
Q 20.3125 32.03125 37.890625 61.328125 
L 4.296875 61.328125 
L 4.296875 68.359375 
L 46.09375 68.359375 
L 46.09375 61.71875 
Q 27.734375 32.03125 21.875 2.34375 
L 13.28125 2.34375 
z
" id="SimHei-55"/>
    </defs>
    <g transform="translate(412.53887 150.198433)scale(0.1 -0.1)">
     <use xlink:href="#SimHei-49"/>
     <use x="50" xlink:href="#SimHei-55"/>
     <use x="100" xlink:href="#SimHei-37"/>
    </g>
   </g>
   <g id="text_14">
    <!-- 2 -->
    <g transform="translate(379.456519 106.176694)scale(0.1 -0.1)">
     <use xlink:href="#SimHei-50"/>
    </g>
   </g>
   <g id="text_15">
    <!-- 17% -->
    <g transform="translate(376.95652 135.52452)scale(0.1 -0.1)">
     <use xlink:href="#SimHei-49"/>
     <use x="50" xlink:href="#SimHei-55"/>
     <use x="100" xlink:href="#SimHei-37"/>
    </g>
   </g>
   <g id="text_16">
    <!-- 3 -->
    <g transform="translate(314.891304 170.741918)scale(0.1 -0.1)">
     <use xlink:href="#SimHei-51"/>
    </g>
   </g>
   <g id="text_17">
    <!-- 33% -->
    <g transform="translate(341.73913 170.741915)scale(0.1 -0.1)">
     <use xlink:href="#SimHei-51"/>
     <use x="50" xlink:href="#SimHei-51"/>
     <use x="100" xlink:href="#SimHei-37"/>
    </g>
   </g>
   <g id="text_18">
    <!-- 4 -->
    <g transform="translate(416.739139 226.657025)scale(0.1 -0.1)">
     <use xlink:href="#SimHei-52"/>
    </g>
   </g>
   <g id="text_19">
    <!-- 33% -->
    <g transform="translate(394.565222 201.241065)scale(0.1 -0.1)">
     <use xlink:href="#SimHei-51"/>
     <use x="50" xlink:href="#SimHei-51"/>
     <use x="100" xlink:href="#SimHei-37"/>
    </g>
   </g>
   <g id="text_20">
    <!-- 5 -->
    <g transform="translate(449.021739 170.7419)scale(0.1 -0.1)">
     <use xlink:href="#SimHei-53"/>
    </g>
   </g>
   <g id="text_21">
    <!-- 0% -->
    <defs>
     <path d="M 3.125 29.296875 
Q 3.90625 50 6.4375 56.046875 
Q 8.984375 62.109375 13.671875 66.015625 
Q 18.359375 69.921875 25.1875 69.921875 
Q 32.03125 69.921875 37.109375 64.25 
Q 42.1875 58.59375 43.75 50 
Q 45.3125 41.40625 44.71875 30.265625 
Q 44.140625 19.140625 40.8125 12.109375 
Q 37.5 5.078125 30.859375 2.34375 
Q 24.21875 -0.390625 17.578125 2.921875 
Q 10.9375 6.25 8.203125 11.71875 
Q 5.46875 17.1875 4.296875 23.234375 
Q 3.125 29.296875 3.90625 50 
z
M 12.890625 52.734375 
Q 10.546875 31.25 12.5 22.84375 
Q 14.453125 14.453125 18.9375 10.9375 
Q 23.4375 7.421875 28.125 9.5625 
Q 32.8125 11.71875 34.953125 18.15625 
Q 37.109375 24.609375 37.109375 32.21875 
Q 37.109375 39.84375 36.515625 46.09375 
Q 35.9375 52.34375 33 57.421875 
Q 30.078125 62.5 25.1875 62.6875 
Q 20.3125 62.890625 16.59375 57.8125 
Q 12.890625 52.734375 10.546875 31.25 
z
" id="SimHei-48"/>
    </defs>
    <g transform="translate(414.673913 170.741905)scale(0.1 -0.1)">
     <use xlink:href="#SimHei-48"/>
     <use x="50" xlink:href="#SimHei-37"/>
    </g>
   </g>
   <g id="text_22">
    <!-- 出行方式 天河区 饼状图 -->
    <defs>
     <path d="M 69.921875 76.5625 
Q 76.953125 76.5625 83.984375 76.953125 
L 83.984375 68.75 
Q 76.953125 69.140625 69.921875 69.140625 
L 53.90625 69.140625 
L 53.90625 48.046875 
L 78.90625 48.046875 
Q 86.328125 48.046875 92.1875 48.4375 
L 92.1875 40.234375 
Q 86.71875 40.625 79.296875 40.625 
L 55.078125 40.625 
Q 60.546875 25.78125 70.703125 15.234375 
Q 80.859375 4.6875 96.875 0.78125 
Q 91.40625 -3.515625 90.234375 -7.03125 
Q 78.125 -2.734375 67.96875 6.4375 
Q 57.8125 15.625 50.390625 32.8125 
Q 45.703125 16.796875 35.546875 7.21875 
Q 25.390625 -2.34375 10.15625 -8.984375 
Q 8.59375 -5.078125 3.515625 -1.5625 
Q 14.84375 1.5625 27.34375 11.515625 
Q 39.84375 21.484375 44.921875 40.625 
L 23.4375 40.625 
Q 14.84375 40.625 8.984375 40.234375 
L 8.984375 48.4375 
Q 15.234375 48.046875 23.4375 48.046875 
L 46.09375 48.046875 
L 46.09375 69.140625 
L 29.6875 69.140625 
Q 21.484375 69.140625 15.625 68.75 
L 15.625 76.953125 
Q 21.875 76.5625 29.6875 76.5625 
z
" id="SimHei-22825"/>
     <path d="M 66.40625 53.90625 
Q 66.015625 46.484375 66.015625 31.25 
Q 66.015625 16.015625 66.40625 11.71875 
L 58.59375 11.71875 
L 58.59375 17.96875 
L 44.53125 17.96875 
L 44.53125 6.640625 
L 36.71875 6.640625 
Q 37.5 11.328125 37.5 29.296875 
Q 37.5 47.65625 37.109375 53.90625 
L 66.40625 53.90625 
z
M 85.546875 73.046875 
Q 90.625 73.046875 96.484375 73.4375 
L 96.484375 65.625 
Q 89.0625 66.015625 84.765625 66.015625 
L 84.765625 0 
Q 84.765625 -5.859375 80.859375 -7.609375 
Q 76.953125 -9.375 68.75 -10.546875 
Q 68.359375 -6.640625 64.453125 -1.5625 
Q 73.046875 -1.953125 75.390625 -1.359375 
Q 77.734375 -0.78125 77.734375 3.125 
L 77.734375 66.015625 
L 47.265625 66.015625 
Q 41.015625 66.015625 33.203125 65.625 
L 33.203125 73.4375 
Q 41.015625 73.046875 47.265625 73.046875 
z
M 30.078125 25.390625 
Q 26.171875 19.140625 21.484375 8.59375 
Q 16.796875 -1.953125 14.0625 -8.59375 
Q 10.546875 -5.46875 4.6875 -2.734375 
Q 8.203125 1.171875 13.46875 11.328125 
Q 18.75 21.484375 21.875 30.46875 
Q 26.171875 27.34375 30.078125 25.390625 
z
M 58.59375 25 
L 58.59375 46.875 
L 44.53125 46.875 
L 44.53125 25 
z
M 8.203125 54.6875 
Q 17.96875 48.828125 26.171875 43.75 
Q 22.65625 39.84375 20.703125 36.328125 
Q 13.28125 42.578125 3.90625 47.65625 
Q 6.25 50.78125 8.203125 54.6875 
z
M 13.28125 78.90625 
Q 21.09375 73.046875 28.90625 66.015625 
Q 24.609375 62.5 21.875 59.765625 
Q 16.015625 66.796875 7.8125 73.4375 
Q 10.546875 75.78125 13.28125 78.90625 
z
" id="SimHei-27827"/>
    </defs>
    <g transform="translate(318.456522 88.559847)scale(0.12 -0.12)">
     <use xlink:href="#SimHei-20986"/>
     <use x="100" xlink:href="#SimHei-34892"/>
     <use x="200" xlink:href="#SimHei-26041"/>
     <use x="300" xlink:href="#SimHei-24335"/>
     <use x="400" xlink:href="#SimHei-32"/>
     <use x="450" xlink:href="#SimHei-22825"/>
     <use x="550" xlink:href="#SimHei-27827"/>
     <use x="650" xlink:href="#SimHei-21306"/>
     <use x="750" xlink:href="#SimHei-32"/>
     <use x="800" xlink:href="#SimHei-39292"/>
     <use x="900" xlink:href="#SimHei-29366"/>
     <use x="1000" xlink:href="#SimHei-22270"/>
    </g>
   </g>
  </g>
  <g id="axes_3">
   <g id="patch_22">
    <path d="M 622.215627 164.952915 
C 622.215627 149.391831 616.027417 134.45217 605.024068 123.448822 
C 594.02072 112.445473 579.081059 106.257263 563.519975 106.257263 
L 563.519975 164.952915 
L 622.215627 164.952915 
z
" style="fill:#092436;opacity:0.5;stroke:#092436;stroke-linejoin:miter;"/>
   </g>
   <g id="patch_23">
    <path d="M 559.369565 110.407673 
C 543.808481 110.407673 528.86882 116.595883 517.865472 127.599231 
C 506.862123 138.60258 500.673913 153.54224 500.673913 169.103325 
L 559.369565 169.103325 
L 559.369565 110.407673 
z
" style="fill:#4c2604;opacity:0.5;stroke:#4c2604;stroke-linejoin:miter;"/>
   </g>
   <g id="patch_24">
    <path d="M 500.673913 169.103325 
C 500.673913 184.664409 506.862123 199.60407 517.865472 210.607418 
C 528.86882 221.610767 543.808481 227.798977 559.369565 227.798977 
L 559.369565 169.103325 
L 500.673913 169.103325 
z
" style="fill:#0d300d;opacity:0.5;stroke:#0d300d;stroke-linejoin:miter;"/>
   </g>
   <g id="patch_25">
    <path d="M 559.369565 227.798977 
C 567.077408 227.798977 574.710301 226.2807 581.831419 223.331036 
C 588.952537 220.381373 595.423391 216.057686 600.873659 210.607418 
L 559.369565 169.103325 
L 559.369565 227.798977 
z
" style="fill:#400c0c;opacity:0.5;stroke:#400c0c;stroke-linejoin:miter;"/>
   </g>
   <g id="patch_26">
    <path d="M 600.873659 210.607418 
C 606.323927 205.157151 610.647613 198.686296 613.597277 191.565178 
C 616.546941 184.444061 618.065217 176.811167 618.065217 169.103325 
L 559.369565 169.103325 
L 600.873659 210.607418 
z
" style="fill:#2c1f39;opacity:0.5;stroke:#2c1f39;stroke-linejoin:miter;"/>
   </g>
   <g id="patch_27">
    <path d="M 623.38954 163.779002 
C 623.38954 148.217918 617.20133 133.278257 606.197981 122.274909 
C 595.194633 111.27156 580.254972 105.08335 564.693888 105.08335 
L 564.693888 163.779002 
L 623.38954 163.779002 
z
" style="fill:#1f77b4;"/>
   </g>
   <g id="patch_28">
    <path d="M 560.543478 109.23376 
C 544.982394 109.23376 530.042733 115.42197 519.039385 126.425318 
C 508.036036 137.428666 501.847826 152.368327 501.847826 167.929412 
L 560.543478 167.929412 
L 560.543478 109.23376 
z
" style="fill:#ff7f0e;"/>
   </g>
   <g id="patch_29">
    <path d="M 501.847826 167.929412 
C 501.847826 183.490496 508.036036 198.430157 519.039385 209.433505 
C 530.042733 220.436854 544.982394 226.625064 560.543478 226.625064 
L 560.543478 167.929412 
L 501.847826 167.929412 
z
" style="fill:#2ca02c;"/>
   </g>
   <g id="patch_30">
    <path d="M 560.543478 226.625064 
C 568.251321 226.625064 575.884214 225.106787 583.005332 222.157123 
C 590.12645 219.20746 596.597304 214.883773 602.047572 209.433505 
L 560.543478 167.929412 
L 560.543478 226.625064 
z
" style="fill:#d62728;"/>
   </g>
   <g id="patch_31">
    <path d="M 602.047572 209.433505 
C 607.49784 203.983238 611.821526 197.512383 614.77119 190.391265 
C 617.720854 183.270148 619.23913 175.637254 619.23913 167.929412 
L 560.543478 167.929412 
L 602.047572 209.433505 
z
" style="fill:#9467bd;"/>
   </g>
   <g id="matplotlib.axis_5"/>
   <g id="matplotlib.axis_6"/>
   <g id="text_23">
    <!-- 1 -->
    <g transform="translate(610.348391 120.936999)scale(0.1 -0.1)">
     <use xlink:href="#SimHei-49"/>
    </g>
   </g>
   <g id="text_24">
    <!-- 25% -->
    <g transform="translate(582.096344 141.689046)scale(0.1 -0.1)">
     <use xlink:href="#SimHei-50"/>
     <use x="50" xlink:href="#SimHei-53"/>
     <use x="100" xlink:href="#SimHei-37"/>
    </g>
   </g>
   <g id="text_25">
    <!-- 2 -->
    <g transform="translate(509.888975 125.087409)scale(0.1 -0.1)">
     <use xlink:href="#SimHei-50"/>
    </g>
   </g>
   <g id="text_26">
    <!-- 25% -->
    <g transform="translate(528.141022 145.839456)scale(0.1 -0.1)">
     <use xlink:href="#SimHei-50"/>
     <use x="50" xlink:href="#SimHei-53"/>
     <use x="100" xlink:href="#SimHei-37"/>
    </g>
   </g>
   <g id="text_27">
    <!-- 3 -->
    <g transform="translate(509.888975 216.396415)scale(0.1 -0.1)">
     <use xlink:href="#SimHei-51"/>
    </g>
   </g>
   <g id="text_28">
    <!-- 25% -->
    <g transform="translate(528.141022 195.644368)scale(0.1 -0.1)">
     <use xlink:href="#SimHei-50"/>
     <use x="50" xlink:href="#SimHei-53"/>
     <use x="100" xlink:href="#SimHei-37"/>
    </g>
   </g>
   <g id="text_29">
    <!-- 4 -->
    <g transform="translate(585.251517 230.392395)scale(0.1 -0.1)">
     <use xlink:href="#SimHei-52"/>
    </g>
   </g>
   <g id="text_30">
    <!-- 12% -->
    <g transform="translate(566.52059 203.278539)scale(0.1 -0.1)">
     <use xlink:href="#SimHei-49"/>
     <use x="50" xlink:href="#SimHei-50"/>
     <use x="100" xlink:href="#SimHei-37"/>
    </g>
   </g>
   <g id="text_31">
    <!-- 5 -->
    <g transform="translate(620.193961 195.449951)scale(0.1 -0.1)">
     <use xlink:href="#SimHei-53"/>
    </g>
   </g>
   <g id="text_32">
    <!-- 12% -->
    <g transform="translate(585.580105 184.219024)scale(0.1 -0.1)">
     <use xlink:href="#SimHei-49"/>
     <use x="50" xlink:href="#SimHei-50"/>
     <use x="100" xlink:href="#SimHei-37"/>
    </g>
   </g>
   <g id="text_33">
    <!-- 出行方式 白云区 饼状图 -->
    <defs>
     <path d="M 49.609375 77.734375 
Q 47.65625 75.78125 45.703125 72.453125 
Q 43.75 69.140625 41.796875 65.234375 
L 86.71875 65.234375 
Q 86.328125 57.421875 86.328125 46.09375 
L 86.328125 11.328125 
Q 86.328125 2.734375 86.71875 -7.8125 
L 78.515625 -7.8125 
L 78.515625 1.953125 
L 23.046875 1.953125 
L 23.046875 -8.59375 
L 14.84375 -8.59375 
Q 15.234375 3.125 15.234375 10.9375 
L 15.234375 46.09375 
Q 15.234375 56.640625 14.84375 65.234375 
L 34.375 65.234375 
Q 38.28125 73.828125 40.234375 82.03125 
Q 44.53125 79.6875 49.609375 77.734375 
z
M 78.515625 8.984375 
L 78.515625 30.859375 
L 23.046875 30.859375 
L 23.046875 8.984375 
z
M 78.515625 37.890625 
L 78.515625 58.59375 
L 23.046875 58.59375 
L 23.046875 37.890625 
z
" id="SimHei-30333"/>
     <path d="M 76.953125 0.78125 
Q 42.96875 -1.953125 31.4375 -3.3125 
Q 19.921875 -4.6875 17.578125 -5.46875 
Q 16.015625 -1.171875 14.0625 3.125 
Q 16.796875 3.90625 21.484375 9.375 
Q 26.171875 14.84375 32.609375 25.1875 
Q 39.0625 35.546875 39.84375 40.625 
L 19.53125 40.625 
Q 14.84375 40.625 6.640625 40.234375 
L 6.640625 47.65625 
Q 14.84375 47.265625 20.703125 47.265625 
L 81.640625 47.265625 
Q 86.71875 47.265625 93.359375 47.65625 
L 93.359375 40.234375 
Q 87.109375 40.625 81.25 40.625 
L 41.796875 40.625 
Q 44.140625 39.0625 49.609375 35.546875 
Q 46.875 32.8125 44.71875 29.6875 
Q 42.578125 26.5625 38.078125 19.921875 
Q 33.59375 13.28125 25 3.125 
Q 37.890625 4.296875 72.65625 6.640625 
Q 65.625 16.015625 59.765625 22.265625 
Q 62.890625 24.609375 65.625 27.34375 
Q 83.984375 5.859375 89.0625 -1.5625 
Q 86.328125 -3.515625 82.421875 -6.640625 
Q 79.6875 -2.34375 76.953125 0.78125 
z
M 70.703125 73.828125 
Q 76.5625 73.828125 82.8125 74.21875 
L 82.8125 66.40625 
Q 76.953125 66.796875 70.703125 66.796875 
L 29.6875 66.796875 
Q 25 66.796875 19.140625 66.40625 
L 19.140625 74.21875 
Q 25 73.828125 29.296875 73.828125 
z
" id="SimHei-20113"/>
    </defs>
    <g transform="translate(494.543478 88.559847)scale(0.12 -0.12)">
     <use xlink:href="#SimHei-20986"/>
     <use x="100" xlink:href="#SimHei-34892"/>
     <use x="200" xlink:href="#SimHei-26041"/>
     <use x="300" xlink:href="#SimHei-24335"/>
     <use x="400" xlink:href="#SimHei-32"/>
     <use x="450" xlink:href="#SimHei-30333"/>
     <use x="550" xlink:href="#SimHei-20113"/>
     <use x="650" xlink:href="#SimHei-21306"/>
     <use x="750" xlink:href="#SimHei-32"/>
     <use x="800" xlink:href="#SimHei-39292"/>
     <use x="900" xlink:href="#SimHei-29366"/>
     <use x="1000" xlink:href="#SimHei-22270"/>
    </g>
   </g>
  </g>
  <g id="axes_4">
   <g id="patch_32">
    <path d="M 799.667761 167.095815 
C 799.667761 160.248976 798.469737 153.454644 796.12798 147.02072 
C 793.786223 140.586796 790.33665 134.61196 785.935587 129.366977 
L 740.972109 167.095815 
L 799.667761 167.095815 
z
" style="fill:#092436;opacity:0.5;stroke:#092436;stroke-linejoin:miter;"/>
   </g>
   <g id="patch_33">
    <path d="M 780.42 131.374487 
C 773.797698 123.482335 765.212773 117.471106 755.531616 113.947453 
C 745.850459 110.4238 735.410081 109.510386 725.264127 111.299392 
C 715.118172 113.088398 705.619833 117.517547 697.727681 124.139849 
C 689.83553 130.76215 683.824302 139.347076 680.300649 149.028233 
L 735.456522 169.103325 
L 780.42 131.374487 
z
" style="fill:#4c2604;opacity:0.5;stroke:#4c2604;stroke-linejoin:miter;"/>
   </g>
   <g id="patch_34">
    <path d="M 680.300649 149.028233 
C 676.776997 158.709391 675.863583 169.149768 677.652589 179.295723 
C 679.441596 189.441677 683.870745 198.940016 690.493047 206.832167 
C 697.11535 214.724318 705.700275 220.735546 715.381433 224.259198 
C 725.06259 227.78285 735.502968 228.696264 745.648922 226.907257 
L 735.456522 169.103325 
L 680.300649 149.028233 
z
" style="fill:#0d300d;opacity:0.5;stroke:#0d300d;stroke-linejoin:miter;"/>
   </g>
   <g id="patch_35">
    <path d="M 745.648922 226.907257 
C 752.391742 225.718315 758.874818 223.358667 764.804355 219.935247 
C 770.733891 216.511826 776.018942 212.07714 780.420005 206.832157 
L 735.456522 169.103325 
L 745.648922 226.907257 
z
" style="fill:#400c0c;opacity:0.5;stroke:#400c0c;stroke-linejoin:miter;"/>
   </g>
   <g id="patch_36">
    <path d="M 780.420005 206.832157 
C 784.821068 201.587173 788.27064 195.612337 790.612396 189.178413 
C 792.954152 182.744488 794.152175 175.950156 794.152174 169.103317 
L 735.456522 169.103325 
L 780.420005 206.832157 
z
" style="fill:#2c1f39;opacity:0.5;stroke:#2c1f39;stroke-linejoin:miter;"/>
   </g>
   <g id="patch_37">
    <path d="M 800.841674 165.921902 
C 800.841674 159.075063 799.64365 152.280731 797.301893 145.846807 
C 794.960136 139.412883 791.510563 133.438047 787.1095 128.193064 
L 742.146022 165.921902 
L 800.841674 165.921902 
z
" style="fill:#1f77b4;"/>
   </g>
   <g id="patch_38">
    <path d="M 781.593913 130.200574 
C 774.971611 122.308422 766.386686 116.297193 756.705529 112.77354 
C 747.024372 109.249887 736.583994 108.336473 726.43804 110.125479 
C 716.292085 111.914485 706.793746 116.343634 698.901594 122.965936 
C 691.009443 129.588237 684.998215 138.173163 681.474562 147.85432 
L 736.630435 167.929412 
L 781.593913 130.200574 
z
" style="fill:#ff7f0e;"/>
   </g>
   <g id="patch_39">
    <path d="M 681.474562 147.85432 
C 677.95091 157.535477 677.037496 167.975855 678.826502 178.12181 
C 680.615509 188.267764 685.044658 197.766103 691.66696 205.658254 
C 698.289263 213.550405 706.874188 219.561633 716.555346 223.085285 
C 726.236503 226.608937 736.676881 227.522351 746.822835 225.733344 
L 736.630435 167.929412 
L 681.474562 147.85432 
z
" style="fill:#2ca02c;"/>
   </g>
   <g id="patch_40">
    <path d="M 746.822835 225.733344 
C 753.565655 224.544402 760.048732 222.184754 765.978268 218.761334 
C 771.907804 215.337913 777.192855 210.903227 781.593918 205.658244 
L 736.630435 167.929412 
L 746.822835 225.733344 
z
" style="fill:#d62728;"/>
   </g>
   <g id="patch_41">
    <path d="M 781.593918 205.658244 
C 785.994981 200.41326 789.444553 194.438424 791.786309 188.0045 
C 794.128065 181.570575 795.326088 174.776243 795.326087 167.929404 
L 736.630435 167.929412 
L 781.593918 205.658244 
z
" style="fill:#9467bd;"/>
   </g>
   <g id="matplotlib.axis_7"/>
   <g id="matplotlib.axis_8"/>
   <g id="text_34">
    <!-- 1 -->
    <g transform="translate(802.81748 146.651797)scale(0.1 -0.1)">
     <use xlink:href="#SimHei-49"/>
    </g>
   </g>
   <g id="text_35">
    <!-- 11% -->
    <g transform="translate(767.739545 156.689345)scale(0.1 -0.1)">
     <use xlink:href="#SimHei-49"/>
     <use x="50" xlink:href="#SimHei-49"/>
     <use x="100" xlink:href="#SimHei-37"/>
    </g>
   </g>
   <g id="text_36">
    <!-- 2 -->
    <g transform="translate(720.4188 107.157586)scale(0.1 -0.1)">
     <use xlink:href="#SimHei-50"/>
    </g>
   </g>
   <g id="text_37">
    <!-- 33% -->
    <g transform="translate(723.014998 136.059552)scale(0.1 -0.1)">
     <use xlink:href="#SimHei-51"/>
     <use x="50" xlink:href="#SimHei-51"/>
     <use x="100" xlink:href="#SimHei-37"/>
    </g>
   </g>
   <g id="text_38">
    <!-- 3 -->
    <g transform="translate(682.170613 212.243638)scale(0.1 -0.1)">
     <use xlink:href="#SimHei-51"/>
    </g>
   </g>
   <g id="text_39">
    <!-- 33% -->
    <g transform="translate(702.15235 193.379217)scale(0.1 -0.1)">
     <use xlink:href="#SimHei-51"/>
     <use x="50" xlink:href="#SimHei-51"/>
     <use x="100" xlink:href="#SimHei-37"/>
    </g>
   </g>
   <g id="text_40">
    <!-- 4 -->
    <g transform="translate(768.913051 226.657026)scale(0.1 -0.1)">
     <use xlink:href="#SimHei-52"/>
    </g>
   </g>
   <g id="text_41">
    <!-- 11% -->
    <g transform="translate(746.739134 201.241065)scale(0.1 -0.1)">
     <use xlink:href="#SimHei-49"/>
     <use x="50" xlink:href="#SimHei-49"/>
     <use x="100" xlink:href="#SimHei-37"/>
    </g>
   </g>
   <g id="text_42">
    <!-- 5 -->
    <g transform="translate(797.301896 192.824508)scale(0.1 -0.1)">
     <use xlink:href="#SimHei-53"/>
    </g>
   </g>
   <g id="text_43">
    <!-- 11% -->
    <g transform="translate(762.223959 182.786964)scale(0.1 -0.1)">
     <use xlink:href="#SimHei-49"/>
     <use x="50" xlink:href="#SimHei-49"/>
     <use x="100" xlink:href="#SimHei-37"/>
    </g>
   </g>
   <g id="text_44">
    <!-- 出行方式 海珠区 饼状图 -->
    <defs>
     <path d="M 83.203125 9.375 
Q 85.9375 9.375 90.625 9.765625 
L 90.625 2.734375 
Q 87.5 3.125 82.8125 3.125 
Q 82.03125 -5.859375 79.09375 -7.8125 
Q 76.171875 -9.765625 69.53125 -10.546875 
Q 68.359375 -7.03125 66.40625 -2.734375 
Q 72.265625 -3.125 74.015625 -2.140625 
Q 75.78125 -1.171875 76.171875 3.125 
L 38.671875 3.125 
Q 39.84375 15.234375 40.625 26.953125 
Q 36.328125 26.953125 31.640625 26.5625 
L 31.640625 33.59375 
Q 35.546875 33.203125 41.015625 33.203125 
Q 41.796875 47.65625 42.1875 54.296875 
Q 40.234375 51.5625 35.15625 44.921875 
Q 32.421875 47.65625 29.296875 49.609375 
Q 35.9375 56.25 40.421875 65.234375 
Q 44.921875 74.21875 46.875 82.03125 
Q 51.5625 79.296875 55.078125 78.515625 
Q 53.515625 76.5625 50.78125 70.703125 
L 78.90625 70.703125 
Q 86.328125 70.703125 92.1875 71.09375 
L 92.1875 64.0625 
Q 86.328125 64.453125 78.515625 64.453125 
L 48.046875 64.453125 
Q 45.3125 59.765625 42.578125 55.46875 
L 85.15625 55.46875 
Q 84.765625 46.09375 84.375 33.203125 
Q 88.671875 33.203125 93.75 33.59375 
L 93.75 26.5625 
Q 88.671875 26.953125 83.984375 26.953125 
Q 83.59375 21.875 83.203125 9.375 
z
M 77.734375 26.953125 
L 46.875 26.953125 
Q 46.09375 16.40625 45.703125 9.375 
L 76.953125 9.375 
z
M 48.046875 49.21875 
Q 48.046875 44.140625 47.265625 33.203125 
L 78.125 33.203125 
Q 78.125 41.796875 78.515625 49.21875 
z
M 27.34375 23.828125 
Q 25 20.3125 21.484375 11.71875 
Q 17.96875 3.125 12.109375 -7.421875 
Q 10.546875 -5.078125 4.6875 -3.125 
Q 9.375 3.515625 13.671875 12.296875 
Q 17.96875 21.09375 21.09375 28.90625 
Q 23.828125 25.78125 27.34375 23.828125 
z
M 21.875 34.765625 
Q 11.328125 43.359375 3.90625 47.65625 
Q 6.640625 50.390625 8.203125 53.90625 
Q 15.234375 49.609375 26.953125 41.40625 
Q 23.828125 37.890625 21.875 34.765625 
z
M 12.890625 78.90625 
Q 20.3125 74.609375 31.640625 67.1875 
Q 28.90625 63.671875 26.5625 60.546875 
Q 17.578125 67.96875 8.59375 73.046875 
Q 11.328125 76.171875 12.890625 78.90625 
z
M 60.546875 25.390625 
Q 64.84375 19.140625 67.578125 14.0625 
Q 64.453125 12.5 62.109375 10.546875 
Q 58.984375 16.796875 55.46875 21.875 
Q 58.203125 23.828125 60.546875 25.390625 
z
M 61.328125 48.4375 
Q 65.625 42.1875 67.96875 37.5 
Q 64.84375 35.9375 62.5 33.984375 
Q 60.15625 39.0625 56.640625 44.921875 
L 61.328125 48.4375 
z
" id="SimHei-28023"/>
     <path d="M 89.84375 -2.734375 
Q 79.6875 5.859375 75.578125 12.5 
Q 71.484375 19.140625 68.359375 27.734375 
L 68.359375 3.125 
Q 68.359375 -1.171875 68.75 -8.203125 
L 60.546875 -8.203125 
Q 60.9375 -0.78125 60.9375 3.515625 
L 60.9375 30.46875 
Q 55.859375 17.578125 51.171875 10.34375 
Q 46.484375 3.125 35.9375 -7.421875 
Q 32.03125 -2.734375 28.125 -1.171875 
Q 37.890625 5.078125 44.53125 14.0625 
Q 51.171875 23.046875 54.6875 33.984375 
L 48.046875 33.984375 
Q 41.015625 33.984375 35.9375 33.59375 
L 35.9375 40.625 
Q 42.1875 40.234375 48.046875 40.234375 
L 60.9375 40.234375 
L 60.9375 55.46875 
L 48.046875 55.46875 
Q 46.484375 51.5625 42.578125 44.140625 
Q 39.0625 46.484375 34.765625 48.4375 
Q 39.453125 55.46875 41.796875 60.734375 
Q 44.140625 66.015625 45.703125 73.828125 
Q 50 72.265625 54.6875 71.09375 
Q 53.125 68.75 50.390625 61.71875 
L 60.9375 61.71875 
L 60.9375 69.53125 
Q 60.9375 74.609375 60.546875 79.6875 
L 69.140625 79.6875 
Q 68.359375 75 68.359375 69.53125 
L 68.359375 61.71875 
L 76.5625 61.71875 
Q 83.203125 61.71875 89.0625 62.109375 
L 89.0625 55.078125 
Q 83.59375 55.46875 76.171875 55.46875 
L 68.359375 55.46875 
L 68.359375 40.234375 
L 80.859375 40.234375 
Q 87.5 40.234375 93.75 40.625 
L 93.75 33.59375 
Q 87.5 33.984375 80.859375 33.984375 
L 71.484375 33.984375 
Q 76.953125 21.09375 83.390625 14.453125 
Q 89.84375 7.8125 95.703125 5.46875 
Q 91.015625 0.390625 89.84375 -2.734375 
z
M 26.953125 70.703125 
Q 31.25 70.703125 35.9375 71.09375 
L 35.9375 64.0625 
Q 30.859375 64.453125 26.953125 64.453125 
L 23.4375 64.453125 
L 23.4375 44.53125 
Q 28.90625 44.53125 33.984375 44.921875 
L 33.984375 37.890625 
Q 28.90625 38.28125 23.4375 38.28125 
L 23.4375 14.84375 
Q 30.859375 17.1875 35.546875 19.53125 
Q 36.328125 16.015625 37.109375 13.28125 
Q 30.078125 10.9375 21.09375 7.421875 
Q 12.109375 3.90625 6.640625 1.171875 
Q 5.078125 4.6875 3.125 8.984375 
Q 8.59375 9.765625 16.40625 12.890625 
L 16.40625 38.28125 
Q 9.765625 38.28125 4.296875 37.890625 
L 4.296875 44.921875 
Q 10.15625 44.53125 16.40625 44.53125 
L 16.40625 64.453125 
L 12.109375 64.453125 
Q 8.59375 64.453125 3.125 64.0625 
L 3.125 71.09375 
Q 8.59375 70.703125 12.109375 70.703125 
z
" id="SimHei-29664"/>
    </defs>
    <g transform="translate(670.630435 88.559847)scale(0.12 -0.12)">
     <use xlink:href="#SimHei-20986"/>
     <use x="100" xlink:href="#SimHei-34892"/>
     <use x="200" xlink:href="#SimHei-26041"/>
     <use x="300" xlink:href="#SimHei-24335"/>
     <use x="400" xlink:href="#SimHei-32"/>
     <use x="450" xlink:href="#SimHei-28023"/>
     <use x="550" xlink:href="#SimHei-29664"/>
     <use x="650" xlink:href="#SimHei-21306"/>
     <use x="750" xlink:href="#SimHei-32"/>
     <use x="800" xlink:href="#SimHei-39292"/>
     <use x="900" xlink:href="#SimHei-29366"/>
     <use x="1000" xlink:href="#SimHei-22270"/>
    </g>
   </g>
  </g>
  <g id="axes_5">
   <g id="patch_42">
    <path d="M 270.829097 361.600586 
C 270.829097 350.349561 267.594132 339.332285 261.511369 329.86732 
C 255.428605 320.402356 246.75079 312.882987 236.516498 308.209142 
L 212.133445 361.600586 
L 270.829097 361.600586 
z
" style="fill:#092436;opacity:0.5;stroke:#092436;stroke-linejoin:miter;"/>
   </g>
   <g id="patch_43">
    <path d="M 231.578705 311.382469 
C 221.344413 306.708625 209.978893 305.07451 198.842387 306.675698 
C 187.705881 308.276887 177.261128 313.046846 168.758171 320.414702 
L 207.195652 364.773913 
L 231.578705 311.382469 
z
" style="fill:#4c2604;opacity:0.5;stroke:#4c2604;stroke-linejoin:miter;"/>
   </g>
   <g id="patch_44">
    <path d="M 168.758171 320.414702 
C 168.758171 320.414702 168.758171 320.414702 168.758171 320.414702 
L 207.195652 364.773913 
L 168.758171 320.414702 
z
" style="fill:#0d300d;opacity:0.5;stroke:#0d300d;stroke-linejoin:miter;"/>
   </g>
   <g id="patch_45">
    <path d="M 168.758171 320.414702 
C 162.39957 325.924461 157.299357 332.73755 153.804207 340.390862 
C 150.309057 348.044174 148.499999 356.360283 148.5 364.773919 
C 148.500001 373.187554 150.30906 381.503662 153.804212 389.156974 
C 157.299363 396.810285 162.399578 403.623373 168.75818 409.133132 
L 207.195652 364.773913 
L 168.758171 320.414702 
z
" style="fill:#400c0c;opacity:0.5;stroke:#400c0c;stroke-linejoin:miter;"/>
   </g>
   <g id="patch_46">
    <path d="M 168.75818 409.133132 
C 177.261138 416.500985 187.705892 421.270943 198.842398 422.872129 
C 209.978904 424.473316 221.344424 422.839199 231.578715 418.165353 
C 241.813007 413.491506 250.490821 405.972136 256.573582 396.50717 
C 262.656344 387.042204 265.891306 376.024927 265.891304 364.773902 
L 207.195652 364.773913 
L 168.75818 409.133132 
z
" style="fill:#2c1f39;opacity:0.5;stroke:#2c1f39;stroke-linejoin:miter;"/>
   </g>
   <g id="patch_47">
    <path d="M 272.00301 360.426673 
C 272.00301 349.175648 268.768045 338.158372 262.685282 328.693407 
C 256.602518 319.228443 247.924703 311.709074 237.690411 307.035229 
L 213.307358 360.426673 
L 272.00301 360.426673 
z
" style="fill:#1f77b4;"/>
   </g>
   <g id="patch_48">
    <path d="M 232.752619 310.208556 
C 222.518326 305.534712 211.152806 303.900597 200.0163 305.501785 
C 188.879794 307.102974 178.435041 311.872933 169.932084 319.240788 
L 208.369565 363.6 
L 232.752619 310.208556 
z
" style="fill:#ff7f0e;"/>
   </g>
   <g id="patch_49">
    <path d="M 169.932084 319.240788 
C 169.932084 319.240788 169.932084 319.240788 169.932084 319.240788 
L 208.369565 363.6 
L 169.932084 319.240788 
z
" style="fill:#2ca02c;"/>
   </g>
   <g id="patch_50">
    <path d="M 169.932084 319.240788 
C 163.573483 324.750548 158.47327 331.563637 154.97812 339.216949 
C 151.48297 346.870261 149.673912 355.18637 149.673913 363.600005 
C 149.673914 372.013641 151.482973 380.329749 154.978125 387.983061 
C 158.473276 395.636372 163.573491 402.44946 169.932093 407.959219 
L 208.369565 363.6 
L 169.932084 319.240788 
z
" style="fill:#d62728;"/>
   </g>
   <g id="patch_51">
    <path d="M 169.932093 407.959219 
C 178.435051 415.327072 188.879805 420.09703 200.016311 421.698216 
C 211.152817 423.299402 222.518337 421.665286 232.752629 416.991439 
C 242.98692 412.317593 251.664734 404.798223 257.747495 395.333257 
C 263.830257 385.868291 267.065219 374.851014 267.065217 363.599989 
L 208.369565 363.6 
L 169.932093 407.959219 
z
" style="fill:#9467bd;"/>
   </g>
   <g id="matplotlib.axis_9"/>
   <g id="matplotlib.axis_10"/>
   <g id="text_45">
    <!-- 1 -->
    <g transform="translate(267.623074 328.332581)scale(0.1 -0.1)">
     <use xlink:href="#SimHei-49"/>
    </g>
   </g>
   <g id="text_46">
    <!-- 18% -->
    <g transform="translate(235.434112 344.199214)scale(0.1 -0.1)">
     <use xlink:href="#SimHei-49"/>
     <use x="50" xlink:href="#SimHei-56"/>
     <use x="100" xlink:href="#SimHei-37"/>
    </g>
   </g>
   <g id="text_47">
    <!-- 2 -->
    <g transform="translate(194.180973 302.504464)scale(0.1 -0.1)">
     <use xlink:href="#SimHei-50"/>
    </g>
   </g>
   <g id="text_48">
    <!-- 18% -->
    <g transform="translate(195.857606 331.553571)scale(0.1 -0.1)">
     <use xlink:href="#SimHei-49"/>
     <use x="50" xlink:href="#SimHei-56"/>
     <use x="100" xlink:href="#SimHei-37"/>
    </g>
   </g>
   <g id="text_49">
    <!-- 3 -->
    <g transform="translate(161.088336 317.617367)scale(0.1 -0.1)">
     <use xlink:href="#SimHei-51"/>
    </g>
   </g>
   <g id="text_50">
    <!-- 0% -->
    <g transform="translate(180.307077 339.796973)scale(0.1 -0.1)">
     <use xlink:href="#SimHei-48"/>
     <use x="50" xlink:href="#SimHei-37"/>
    </g>
   </g>
   <g id="text_51">
    <!-- 4 -->
    <g transform="translate(138.804348 366.412506)scale(0.1 -0.1)">
     <use xlink:href="#SimHei-52"/>
    </g>
   </g>
   <g id="text_52">
    <!-- 27% -->
    <g transform="translate(165.652174 366.412503)scale(0.1 -0.1)">
     <use xlink:href="#SimHei-50"/>
     <use x="50" xlink:href="#SimHei-55"/>
     <use x="100" xlink:href="#SimHei-37"/>
    </g>
   </g>
   <g id="text_53">
    <!-- 5 -->
    <g transform="translate(235.190935 425.143083)scale(0.1 -0.1)">
     <use xlink:href="#SimHei-53"/>
    </g>
   </g>
   <g id="text_54">
    <!-- 36% -->
    <defs>
     <path d="M 3.515625 19.53125 
Q 4.296875 30.859375 6.046875 34.765625 
Q 7.8125 38.671875 11.328125 44.53125 
L 27.34375 69.53125 
L 36.328125 69.53125 
L 19.921875 43.75 
Q 30.46875 46.484375 36.71875 42.96875 
Q 42.96875 39.453125 45.109375 34.953125 
Q 47.265625 30.46875 47.453125 25.1875 
Q 47.65625 19.921875 45.890625 14.84375 
Q 44.140625 9.765625 39.640625 5.65625 
Q 35.15625 1.5625 27.140625 1.171875 
Q 19.140625 0.78125 13.46875 4.09375 
Q 7.8125 7.421875 5.65625 13.46875 
Q 3.515625 19.53125 4.296875 30.859375 
z
M 12.5 16.015625 
Q 19.53125 8.59375 25.390625 8.203125 
Q 31.25 7.8125 35.15625 12.109375 
Q 39.0625 16.40625 39.0625 24.609375 
Q 39.0625 32.8125 34.171875 35.9375 
Q 29.296875 39.0625 23.234375 38.28125 
Q 17.1875 37.5 14.453125 32.421875 
Q 11.71875 27.34375 12.109375 21.671875 
Q 12.5 16.015625 19.53125 8.59375 
z
" id="SimHei-54"/>
    </defs>
    <g transform="translate(215.499403 398.447364)scale(0.1 -0.1)">
     <use xlink:href="#SimHei-51"/>
     <use x="50" xlink:href="#SimHei-54"/>
     <use x="100" xlink:href="#SimHei-37"/>
    </g>
   </g>
   <g id="text_55">
    <!-- 出行方式 从化区 饼状图 -->
    <defs>
     <path d="M 68.75 78.125 
Q 67.96875 73.828125 67.765625 68.75 
Q 67.578125 63.671875 68.15625 50.390625 
Q 68.75 37.109375 76.5625 22.0625 
Q 84.375 7.03125 95.3125 -0.78125 
Q 91.015625 -4.6875 88.671875 -8.203125 
Q 71.09375 7.8125 64.453125 33.59375 
Q 58.984375 8.59375 39.0625 -9.765625 
Q 36.328125 -6.640625 32.421875 -4.296875 
Q 44.53125 5.078125 50.78125 17.578125 
Q 57.03125 30.078125 58.59375 41.984375 
Q 60.15625 53.90625 59.375 79.296875 
Q 64.0625 78.515625 68.75 78.125 
z
M 33.984375 76.5625 
Q 33.203125 71.484375 32.421875 40.625 
Q 46.09375 26.5625 50.390625 21.09375 
Q 46.484375 18.75 43.75 14.84375 
Q 41.015625 20.3125 30.859375 32.03125 
Q 27.34375 14.0625 10.15625 -5.078125 
Q 9.375 -3.125 3.90625 0.390625 
Q 16.40625 12.890625 20.890625 25 
Q 25.390625 37.109375 25.390625 55.078125 
Q 25.390625 73.046875 25 77.734375 
Q 30.078125 76.5625 33.984375 76.5625 
z
" id="SimHei-20174"/>
     <path d="M 61.328125 78.515625 
Q 60.9375 76.5625 60.9375 68.75 
L 60.9375 41.015625 
Q 68.359375 47.265625 74.609375 53.90625 
Q 80.859375 60.546875 84.375 67.1875 
Q 87.5 64.0625 92.1875 61.328125 
Q 89.0625 57.8125 81.640625 50.1875 
Q 74.21875 42.578125 70.109375 39.25 
Q 66.015625 35.9375 60.9375 31.640625 
L 60.9375 7.03125 
Q 60.9375 0.78125 66.015625 0.78125 
L 81.25 0.78125 
Q 84.375 1.171875 85.34375 4.09375 
Q 86.328125 7.03125 87.109375 13.28125 
Q 90.625 10.15625 96.09375 9.375 
Q 93.75 -1.5625 91.015625 -3.90625 
Q 88.28125 -6.25 83.59375 -6.25 
L 61.71875 -6.25 
Q 53.515625 -6.25 53.125 3.125 
L 53.125 26.171875 
Q 50.390625 23.828125 46.28125 21.09375 
Q 42.1875 18.359375 37.109375 15.234375 
Q 34.765625 19.140625 31.640625 21.875 
Q 36.71875 24.21875 42.765625 27.921875 
Q 48.828125 31.640625 53.125 35.15625 
L 53.125 70.3125 
Q 53.125 75 52.734375 78.515625 
L 61.328125 78.515625 
z
M 37.5 75.78125 
Q 33.984375 71.09375 32.421875 67.765625 
Q 30.859375 64.453125 28.515625 58.984375 
L 28.515625 10.546875 
Q 28.515625 -1.171875 28.90625 -8.59375 
L 20.703125 -8.59375 
Q 21.09375 -1.953125 21.09375 10.15625 
L 21.09375 47.65625 
Q 17.578125 42.578125 15.03125 39.453125 
Q 12.5 36.328125 10.546875 33.984375 
Q 7.8125 37.109375 4.296875 39.453125 
Q 9.765625 44.53125 13.671875 50.1875 
Q 17.578125 55.859375 20.5 61.125 
Q 23.4375 66.40625 25.390625 71.484375 
Q 27.34375 76.5625 28.515625 79.6875 
Q 30.859375 77.734375 37.5 75.78125 
z
" id="SimHei-21270"/>
    </defs>
    <g transform="translate(142.369565 284.230435)scale(0.12 -0.12)">
     <use xlink:href="#SimHei-20986"/>
     <use x="100" xlink:href="#SimHei-34892"/>
     <use x="200" xlink:href="#SimHei-26041"/>
     <use x="300" xlink:href="#SimHei-24335"/>
     <use x="400" xlink:href="#SimHei-32"/>
     <use x="450" xlink:href="#SimHei-20174"/>
     <use x="550" xlink:href="#SimHei-21270"/>
     <use x="650" xlink:href="#SimHei-21306"/>
     <use x="750" xlink:href="#SimHei-32"/>
     <use x="800" xlink:href="#SimHei-39292"/>
     <use x="900" xlink:href="#SimHei-29366"/>
     <use x="1000" xlink:href="#SimHei-22270"/>
    </g>
   </g>
  </g>
  <g id="axes_6">
   <g id="patch_52">
    <path d="M 447.401032 362.527728 
C 447.401032 354.819885 445.882755 347.186992 442.933092 340.065874 
C 439.983428 332.944756 435.659741 326.473902 430.209474 321.023634 
L 388.70538 362.527728 
L 447.401032 362.527728 
z
" style="fill:#092436;opacity:0.5;stroke:#092436;stroke-linejoin:miter;"/>
   </g>
   <g id="patch_53">
    <path d="M 424.786702 323.269819 
C 413.783354 312.266471 398.843693 306.078261 383.282609 306.078261 
C 367.721524 306.078261 352.781863 312.266471 341.778515 323.269819 
L 383.282609 364.773913 
L 424.786702 323.269819 
z
" style="fill:#4c2604;opacity:0.5;stroke:#4c2604;stroke-linejoin:miter;"/>
   </g>
   <g id="patch_54">
    <path d="M 341.778515 323.269819 
C 333.570763 331.477571 327.979291 341.938481 325.714777 353.322959 
C 323.450263 364.707438 324.612894 376.511822 329.054897 387.235767 
C 333.4969 397.959711 341.021757 407.128775 350.673052 413.577564 
C 360.324347 420.026353 371.675095 423.469565 383.282609 423.469565 
L 383.282609 364.773913 
L 341.778515 323.269819 
z
" style="fill:#0d300d;opacity:0.5;stroke:#0d300d;stroke-linejoin:miter;"/>
   </g>
   <g id="patch_55">
    <path d="M 383.282609 423.469565 
C 390.990451 423.469565 398.623344 421.951288 405.744462 419.001625 
C 412.86558 416.051961 419.336435 411.728274 424.786702 406.278007 
L 383.282609 364.773913 
L 383.282609 423.469565 
z
" style="fill:#400c0c;opacity:0.5;stroke:#400c0c;stroke-linejoin:miter;"/>
   </g>
   <g id="patch_56">
    <path d="M 424.786702 406.278007 
C 430.23697 400.827739 434.560657 394.356885 437.51032 387.235767 
C 440.459984 380.114649 441.978261 372.481755 441.978261 364.773913 
L 383.282609 364.773913 
L 424.786702 406.278007 
z
" style="fill:#2c1f39;opacity:0.5;stroke:#2c1f39;stroke-linejoin:miter;"/>
   </g>
   <g id="patch_57">
    <path d="M 448.574945 361.353815 
C 448.574945 353.645972 447.056668 346.013079 444.107005 338.891961 
C 441.157341 331.770843 436.833654 325.299989 431.383387 319.849721 
L 389.879293 361.353815 
L 448.574945 361.353815 
z
" style="fill:#1f77b4;"/>
   </g>
   <g id="patch_58">
    <path d="M 425.960615 322.095906 
C 414.957267 311.092558 400.017606 304.904348 384.456522 304.904348 
C 368.895437 304.904348 353.955776 311.092558 342.952428 322.095906 
L 384.456522 363.6 
L 425.960615 322.095906 
z
" style="fill:#ff7f0e;"/>
   </g>
   <g id="patch_59">
    <path d="M 342.952428 322.095906 
C 334.744676 330.303658 329.153204 340.764568 326.88869 352.149046 
C 324.624176 363.533525 325.786807 375.337909 330.22881 386.061854 
C 334.670813 396.785798 342.19567 405.954862 351.846965 412.403651 
C 361.49826 418.85244 372.849008 422.295652 384.456522 422.295652 
L 384.456522 363.6 
L 342.952428 322.095906 
z
" style="fill:#2ca02c;"/>
   </g>
   <g id="patch_60">
    <path d="M 384.456522 422.295652 
C 392.164364 422.295652 399.797258 420.777375 406.918375 417.827712 
C 414.039493 414.878048 420.510348 410.554361 425.960615 405.104094 
L 384.456522 363.6 
L 384.456522 422.295652 
z
" style="fill:#d62728;"/>
   </g>
   <g id="patch_61">
    <path d="M 425.960615 405.104094 
C 431.410883 399.653826 435.73457 393.182971 438.684233 386.061854 
C 441.633897 378.940736 443.152174 371.307842 443.152174 363.6 
L 384.456522 363.6 
L 425.960615 405.104094 
z
" style="fill:#9467bd;"/>
   </g>
   <g id="matplotlib.axis_11"/>
   <g id="matplotlib.axis_12"/>
   <g id="text_56">
    <!-- 1 -->
    <g transform="translate(449.529776 339.458276)scale(0.1 -0.1)">
     <use xlink:href="#SimHei-49"/>
    </g>
   </g>
   <g id="text_57">
    <!-- 12% -->
    <g transform="translate(414.91592 350.689202)scale(0.1 -0.1)">
     <use xlink:href="#SimHei-49"/>
     <use x="50" xlink:href="#SimHei-50"/>
     <use x="100" xlink:href="#SimHei-37"/>
    </g>
   </g>
   <g id="text_58">
    <!-- 2 -->
    <g transform="translate(384.456522 301.847283)scale(0.1 -0.1)">
     <use xlink:href="#SimHei-50"/>
    </g>
   </g>
   <g id="text_59">
    <!-- 25% -->
    <g transform="translate(376.956522 331.195109)scale(0.1 -0.1)">
     <use xlink:href="#SimHei-50"/>
     <use x="50" xlink:href="#SimHei-53"/>
     <use x="100" xlink:href="#SimHei-37"/>
    </g>
   </g>
   <g id="text_60">
    <!-- 3 -->
    <g transform="translate(319.806039 391.120539)scale(0.1 -0.1)">
     <use xlink:href="#SimHei-51"/>
    </g>
   </g>
   <g id="text_61">
    <!-- 38% -->
    <g transform="translate(344.419895 379.889612)scale(0.1 -0.1)">
     <use xlink:href="#SimHei-51"/>
     <use x="50" xlink:href="#SimHei-56"/>
     <use x="100" xlink:href="#SimHei-37"/>
    </g>
   </g>
   <g id="text_62">
    <!-- 4 -->
    <g transform="translate(409.164561 426.062983)scale(0.1 -0.1)">
     <use xlink:href="#SimHei-52"/>
    </g>
   </g>
   <g id="text_63">
    <!-- 12% -->
    <g transform="translate(390.433634 398.949127)scale(0.1 -0.1)">
     <use xlink:href="#SimHei-49"/>
     <use x="50" xlink:href="#SimHei-50"/>
     <use x="100" xlink:href="#SimHei-37"/>
    </g>
   </g>
   <g id="text_64">
    <!-- 5 -->
    <g transform="translate(444.107005 391.120539)scale(0.1 -0.1)">
     <use xlink:href="#SimHei-53"/>
    </g>
   </g>
   <g id="text_65">
    <!-- 12% -->
    <g transform="translate(409.493149 379.889612)scale(0.1 -0.1)">
     <use xlink:href="#SimHei-49"/>
     <use x="50" xlink:href="#SimHei-50"/>
     <use x="100" xlink:href="#SimHei-37"/>
    </g>
   </g>
   <g id="text_66">
    <!-- 出行方式 番禺区 饼状图 -->
    <defs>
     <path d="M 24.609375 65.234375 
Q 28.515625 66.40625 32.03125 67.578125 
Q 34.375 61.71875 36.328125 56.640625 
L 46.484375 56.640625 
L 46.484375 71.09375 
Q 37.5 70.703125 30.859375 70.5 
Q 24.21875 70.3125 14.84375 69.921875 
Q 14.0625 73.4375 12.109375 76.953125 
Q 23.4375 76.5625 43.15625 77.140625 
Q 62.890625 77.734375 81.25 82.8125 
Q 82.8125 78.125 86.328125 73.046875 
Q 82.421875 73.4375 72.453125 72.65625 
Q 62.5 71.875 53.90625 71.484375 
L 53.90625 56.640625 
L 63.671875 56.640625 
Q 67.96875 65.625 68.75 69.921875 
Q 70.703125 68.359375 76.953125 66.40625 
Q 74.21875 62.890625 70.703125 56.640625 
L 81.25 56.640625 
Q 87.890625 56.640625 95.3125 57.03125 
L 95.3125 49.609375 
Q 87.890625 50 81.25 50 
L 64.0625 50 
Q 67.96875 44.53125 76.171875 39.84375 
Q 84.375 35.15625 96.484375 34.375 
Q 91.796875 29.6875 91.796875 25.390625 
Q 85.546875 26.953125 80.859375 29.296875 
Q 80.46875 25.390625 80.46875 11.328125 
Q 80.46875 -2.734375 80.859375 -8.203125 
L 73.046875 -8.203125 
L 73.046875 -4.6875 
L 26.953125 -4.6875 
L 26.953125 -10.15625 
L 19.53125 -10.15625 
Q 19.921875 -1.953125 19.921875 11.328125 
Q 19.921875 24.609375 19.53125 29.296875 
Q 14.0625 26.5625 8.203125 24.21875 
Q 6.25 28.125 3.125 31.640625 
Q 11.328125 33.59375 20.109375 37.890625 
Q 28.90625 42.1875 35.15625 50 
L 17.96875 50 
Q 12.890625 50 5.859375 49.609375 
L 5.859375 57.03125 
Q 12.890625 56.640625 17.96875 56.640625 
L 28.515625 56.640625 
Q 26.953125 60.15625 24.609375 65.234375 
z
M 79.296875 30.078125 
Q 70.703125 33.984375 65.625 38.859375 
Q 60.546875 43.75 56.25 50 
L 53.90625 50 
L 53.90625 32.8125 
L 46.484375 32.8125 
L 46.484375 50 
L 43.75 50 
Q 38.28125 42.1875 32.609375 37.890625 
Q 26.953125 33.59375 20.703125 30.078125 
z
M 46.484375 1.5625 
L 46.484375 9.765625 
L 26.953125 9.765625 
L 26.953125 1.5625 
z
M 73.046875 1.5625 
L 73.046875 9.765625 
L 53.90625 9.765625 
L 53.90625 1.5625 
z
M 46.484375 16.40625 
L 46.484375 23.828125 
L 26.953125 23.828125 
L 26.953125 16.40625 
z
M 73.046875 16.40625 
L 73.046875 23.828125 
L 53.90625 23.828125 
L 53.90625 16.40625 
z
" id="SimHei-30058"/>
     <path d="M 83.984375 78.515625 
Q 83.59375 69.140625 83.59375 60.546875 
Q 83.59375 52.34375 83.984375 41.40625 
L 52.734375 41.40625 
L 52.734375 33.203125 
L 92.96875 33.203125 
Q 92.578125 27.34375 92.578125 20.3125 
L 92.578125 0 
Q 92.578125 -3.90625 89.453125 -6.046875 
Q 86.328125 -8.203125 77.34375 -9.375 
Q 76.5625 -4.296875 73.828125 -0.390625 
Q 82.421875 -0.390625 83.78125 0.1875 
Q 85.15625 0.78125 85.15625 4.6875 
L 85.15625 27.34375 
L 52.734375 27.34375 
L 52.734375 14.0625 
L 66.015625 14.84375 
Q 64.84375 17.96875 62.890625 21.09375 
Q 66.40625 22.265625 69.921875 24.21875 
Q 73.4375 17.96875 78.515625 7.421875 
Q 75 6.25 70.703125 4.296875 
Q 69.53125 7.421875 68.75 8.984375 
Q 39.453125 6.640625 33.59375 5.65625 
Q 27.734375 4.6875 25 3.90625 
Q 23.4375 8.59375 21.484375 12.890625 
Q 25.78125 12.5 44.921875 13.671875 
L 44.921875 27.34375 
L 15.234375 27.34375 
L 15.234375 -8.59375 
L 7.03125 -8.59375 
Q 7.421875 0 7.421875 5.859375 
L 7.421875 19.921875 
Q 7.421875 26.5625 7.03125 33.203125 
L 44.921875 33.203125 
L 44.921875 41.40625 
L 15.234375 41.40625 
Q 15.625 52.34375 15.625 60.15625 
Q 15.625 67.96875 15.234375 78.515625 
L 83.984375 78.515625 
z
M 76.171875 62.890625 
L 76.171875 72.65625 
L 52.734375 72.65625 
L 52.734375 62.890625 
z
M 76.171875 47.65625 
L 76.171875 57.03125 
L 52.734375 57.03125 
L 52.734375 47.65625 
z
M 44.921875 62.890625 
L 44.921875 72.65625 
L 23.046875 72.65625 
L 23.046875 62.890625 
z
M 44.921875 47.65625 
L 44.921875 57.03125 
L 23.046875 57.03125 
L 23.046875 47.65625 
z
" id="SimHei-31162"/>
    </defs>
    <g transform="translate(318.456522 284.230435)scale(0.12 -0.12)">
     <use xlink:href="#SimHei-20986"/>
     <use x="100" xlink:href="#SimHei-34892"/>
     <use x="200" xlink:href="#SimHei-26041"/>
     <use x="300" xlink:href="#SimHei-24335"/>
     <use x="400" xlink:href="#SimHei-32"/>
     <use x="450" xlink:href="#SimHei-30058"/>
     <use x="550" xlink:href="#SimHei-31162"/>
     <use x="650" xlink:href="#SimHei-21306"/>
     <use x="750" xlink:href="#SimHei-32"/>
     <use x="800" xlink:href="#SimHei-39292"/>
     <use x="900" xlink:href="#SimHei-29366"/>
     <use x="1000" xlink:href="#SimHei-22270"/>
    </g>
   </g>
  </g>
  <g id="axes_7">
   <g id="patch_62">
    <path d="M 623.697024 363.120265 
C 623.697024 357.522974 622.896377 351.954351 621.319437 346.583789 
C 619.742498 341.213227 617.40542 336.09574 614.379296 331.386999 
L 565.001372 363.120265 
L 623.697024 363.120265 
z
" style="fill:#092436;opacity:0.5;stroke:#092436;stroke-linejoin:miter;"/>
   </g>
   <g id="patch_63">
    <path d="M 608.747489 333.040647 
C 605.721365 328.331906 602.037193 324.080144 597.807042 320.414698 
C 593.576891 316.749252 588.844094 313.707668 583.752619 311.382469 
L 559.369565 364.773913 
L 608.747489 333.040647 
z
" style="fill:#4c2604;opacity:0.5;stroke:#4c2604;stroke-linejoin:miter;"/>
   </g>
   <g id="patch_64">
    <path d="M 583.752619 311.382469 
C 576.099307 307.887319 567.783198 306.07826 559.369562 306.078261 
C 550.955927 306.078261 542.639819 307.88732 534.986507 311.382471 
C 527.333195 314.877622 520.520107 319.977837 515.010348 326.336438 
C 509.500589 332.69504 505.421892 340.164618 503.051498 348.237442 
L 559.369565 364.773913 
L 583.752619 311.382469 
z
" style="fill:#0d300d;opacity:0.5;stroke:#0d300d;stroke-linejoin:miter;"/>
   </g>
   <g id="patch_65">
    <path d="M 503.051498 348.237442 
C 499.881719 359.032721 499.88172 370.515116 503.051501 381.310395 
C 506.221282 392.105674 512.429134 401.765278 520.932093 409.133132 
C 529.435051 416.500985 539.879805 421.270943 551.016311 422.872129 
C 562.152817 424.473316 573.518337 422.839199 583.752629 418.165353 
L 559.369565 364.773913 
L 503.051498 348.237442 
z
" style="fill:#400c0c;opacity:0.5;stroke:#400c0c;stroke-linejoin:miter;"/>
   </g>
   <g id="patch_66">
    <path d="M 583.752629 418.165353 
C 593.98692 413.491506 602.664734 405.972136 608.747495 396.50717 
C 614.830257 387.042204 618.065219 376.024927 618.065217 364.773902 
L 559.369565 364.773913 
L 583.752629 418.165353 
z
" style="fill:#2c1f39;opacity:0.5;stroke:#2c1f39;stroke-linejoin:miter;"/>
   </g>
   <g id="patch_67">
    <path d="M 624.870937 361.946352 
C 624.870937 356.349061 624.07029 350.780438 622.493351 345.409876 
C 620.916411 340.039314 618.579333 334.921827 615.553209 330.213086 
L 566.175285 361.946352 
L 624.870937 361.946352 
z
" style="fill:#1f77b4;"/>
   </g>
   <g id="patch_68">
    <path d="M 609.921402 331.866734 
C 606.895278 327.157993 603.211106 322.906231 598.980955 319.240785 
C 594.750804 315.575339 590.018007 312.533755 584.926532 310.208556 
L 560.543478 363.6 
L 609.921402 331.866734 
z
" style="fill:#ff7f0e;"/>
   </g>
   <g id="patch_69">
    <path d="M 584.926532 310.208556 
C 577.27322 306.713406 568.957111 304.904347 560.543476 304.904348 
C 552.12984 304.904348 543.813732 306.713407 536.16042 310.208558 
C 528.507108 313.703709 521.69402 318.803924 516.184261 325.162525 
C 510.674502 331.521127 506.595805 338.990705 504.225411 347.063529 
L 560.543478 363.6 
L 584.926532 310.208556 
z
" style="fill:#2ca02c;"/>
   </g>
   <g id="patch_70">
    <path d="M 504.225411 347.063529 
C 501.055632 357.858808 501.055633 369.341203 504.225414 380.136482 
C 507.395195 390.931761 513.603047 400.591365 522.106006 407.959219 
C 530.608964 415.327072 541.053718 420.09703 552.190224 421.698216 
C 563.32673 423.299402 574.69225 421.665286 584.926542 416.991439 
L 560.543478 363.6 
L 504.225411 347.063529 
z
" style="fill:#d62728;"/>
   </g>
   <g id="patch_71">
    <path d="M 584.926542 416.991439 
C 595.160833 412.317593 603.838647 404.798223 609.921408 395.333257 
C 616.00417 385.868291 619.239133 374.851014 619.23913 363.599989 
L 560.543478 363.6 
L 584.926542 416.991439 
z
" style="fill:#9467bd;"/>
   </g>
   <g id="matplotlib.axis_13"/>
   <g id="matplotlib.axis_14"/>
   <g id="text_67">
    <!-- 1 -->
    <g transform="translate(628.125157 346.568728)scale(0.1 -0.1)">
     <use xlink:href="#SimHei-49"/>
    </g>
   </g>
   <g id="text_68">
    <!-- 9% -->
    <defs>
     <path d="M 12.5 1.171875 
Q 21.09375 15.625 26.5625 27.34375 
Q 16.796875 25.78125 10.34375 29.875 
Q 3.90625 33.984375 2.53125 41.015625 
Q 1.171875 48.046875 2.734375 53.703125 
Q 4.296875 59.375 7.609375 63.078125 
Q 10.9375 66.796875 15.625 68.359375 
Q 20.3125 69.921875 24.015625 69.921875 
Q 27.734375 69.921875 31.640625 68.359375 
Q 35.546875 66.796875 38.671875 63.671875 
Q 41.796875 60.546875 42.96875 57.21875 
Q 44.140625 53.90625 44.140625 48.625 
Q 44.140625 43.359375 40.234375 35.15625 
Q 36.328125 26.953125 21.09375 1.171875 
z
M 9.765625 50 
Q 10.9375 39.84375 14.640625 36.515625 
Q 18.359375 33.203125 22.65625 33.59375 
Q 26.953125 33.984375 29.484375 35.9375 
Q 32.03125 37.890625 34.375 42.578125 
Q 35.9375 48.4375 35.15625 52.53125 
Q 34.375 56.640625 31.046875 59.375 
Q 27.734375 62.109375 23.828125 62.109375 
Q 21.484375 62.5 17.765625 60.9375 
Q 14.0625 59.375 11.90625 54.6875 
Q 9.765625 50 10.9375 39.84375 
z
" id="SimHei-57"/>
    </defs>
    <g transform="translate(594.966124 354.836966)scale(0.1 -0.1)">
     <use xlink:href="#SimHei-57"/>
     <use x="50" xlink:href="#SimHei-37"/>
    </g>
   </g>
   <g id="text_69">
    <!-- 2 -->
    <g transform="translate(602.824703 317.617363)scale(0.1 -0.1)">
     <use xlink:href="#SimHei-50"/>
    </g>
   </g>
   <g id="text_70">
    <!-- 9% -->
    <g transform="translate(578.605964 339.796971)scale(0.1 -0.1)">
     <use xlink:href="#SimHei-57"/>
     <use x="50" xlink:href="#SimHei-37"/>
    </g>
   </g>
   <g id="text_71">
    <!-- 3 -->
    <g transform="translate(528.722114 307.681914)scale(0.1 -0.1)">
     <use xlink:href="#SimHei-51"/>
    </g>
   </g>
   <g id="text_72">
    <!-- 27% -->
    <g transform="translate(538.413643 334.377635)scale(0.1 -0.1)">
     <use xlink:href="#SimHei-50"/>
     <use x="50" xlink:href="#SimHei-55"/>
     <use x="100" xlink:href="#SimHei-37"/>
    </g>
   </g>
   <g id="text_73">
    <!-- 4 -->
    <g transform="translate(513.262258 415.207641)scale(0.1 -0.1)">
     <use xlink:href="#SimHei-52"/>
    </g>
   </g>
   <g id="text_74">
    <!-- 36% -->
    <g transform="translate(529.980995 393.028031)scale(0.1 -0.1)">
     <use xlink:href="#SimHei-51"/>
     <use x="50" xlink:href="#SimHei-54"/>
     <use x="100" xlink:href="#SimHei-37"/>
    </g>
   </g>
   <g id="text_75">
    <!-- 5 -->
    <g transform="translate(614.859201 401.319083)scale(0.1 -0.1)">
     <use xlink:href="#SimHei-53"/>
    </g>
   </g>
   <g id="text_76">
    <!-- 18% -->
    <g transform="translate(582.670236 385.452454)scale(0.1 -0.1)">
     <use xlink:href="#SimHei-49"/>
     <use x="50" xlink:href="#SimHei-56"/>
     <use x="100" xlink:href="#SimHei-37"/>
    </g>
   </g>
   <g id="text_77">
    <!-- 出行方式 花都区 饼状图 -->
    <defs>
     <path d="M 61.71875 51.171875 
Q 61.328125 46.484375 61.328125 39.84375 
L 61.328125 28.90625 
Q 65.625 31.25 71.671875 36.90625 
Q 77.734375 42.578125 80.46875 46.875 
Q 83.984375 43.75 89.0625 41.40625 
Q 84.375 38.671875 79.6875 34.171875 
Q 75 29.6875 61.328125 20.3125 
L 61.328125 4.296875 
Q 61.328125 0 66.40625 0 
L 78.515625 0 
Q 82.421875 0 83.984375 1.75 
Q 85.546875 3.515625 86.71875 10.546875 
Q 90.625 7.8125 94.921875 7.03125 
Q 92.1875 -2.34375 89.640625 -4.296875 
Q 87.109375 -6.25 82.03125 -6.25 
L 62.890625 -6.25 
Q 53.90625 -6.25 53.90625 0 
L 53.90625 16.015625 
Q 50 13.671875 40.234375 8.59375 
Q 38.28125 12.109375 34.765625 15.234375 
Q 42.96875 17.578125 53.90625 24.21875 
L 53.90625 39.84375 
Q 53.90625 46.484375 53.515625 51.171875 
L 61.71875 51.171875 
z
M 38.28125 62.890625 
Q 38.28125 58.59375 38.671875 53.90625 
L 30.078125 53.90625 
Q 30.46875 58.59375 30.46875 62.890625 
L 19.53125 62.890625 
Q 12.890625 62.890625 6.25 62.5 
L 6.25 69.53125 
Q 12.890625 69.140625 19.53125 69.140625 
L 30.46875 69.140625 
Q 30.46875 75.390625 30.078125 80.078125 
L 39.0625 80.078125 
Q 38.28125 75.390625 38.28125 69.140625 
L 58.203125 69.140625 
L 58.203125 80.859375 
L 66.40625 80.859375 
Q 66.015625 76.171875 66.015625 69.140625 
L 81.640625 69.140625 
Q 88.671875 69.140625 93.75 69.53125 
L 93.75 62.5 
Q 88.671875 62.890625 81.640625 62.890625 
L 66.015625 62.890625 
Q 66.015625 59.375 66.40625 53.90625 
L 58.203125 53.90625 
L 58.203125 62.890625 
z
M 41.40625 48.046875 
Q 36.71875 44.921875 31.25 39.0625 
L 31.25 5.078125 
Q 31.25 -1.171875 31.640625 -8.984375 
L 23.4375 -8.984375 
Q 23.828125 -1.5625 23.828125 5.078125 
L 23.828125 31.640625 
Q 17.1875 25.390625 9.375 19.921875 
Q 7.421875 23.4375 4.6875 26.5625 
Q 11.328125 30.078125 20.5 38.859375 
Q 29.6875 47.65625 32.03125 52.734375 
Q 35.546875 50 41.40625 48.046875 
z
" id="SimHei-33457"/>
     <path d="M 53.515625 33.984375 
Q 53.125 24.21875 53.125 14.0625 
Q 53.125 3.90625 53.515625 -7.421875 
L 46.484375 -7.421875 
L 46.484375 -1.953125 
L 23.828125 -1.953125 
L 23.828125 -7.8125 
L 16.796875 -7.8125 
Q 17.1875 0 17.1875 7.421875 
L 17.1875 23.4375 
Q 12.890625 20.3125 9.375 18.359375 
Q 7.03125 22.265625 3.90625 24.21875 
Q 11.71875 28.515625 18.15625 33.203125 
Q 24.609375 37.890625 30.46875 44.140625 
Q 15.625 44.140625 5.859375 43.75 
L 5.859375 50.390625 
Q 15.234375 50 25.78125 50 
L 25.78125 61.71875 
Q 16.40625 61.71875 10.546875 61.328125 
L 10.546875 67.578125 
Q 16.40625 67.1875 25.78125 67.1875 
Q 25.78125 76.171875 25.390625 79.6875 
L 33.59375 79.6875 
Q 33.203125 77.34375 33.203125 67.1875 
Q 38.28125 67.1875 42.96875 67.578125 
L 42.96875 61.328125 
Q 37.890625 61.71875 33.203125 61.71875 
L 33.203125 50 
L 35.546875 50 
Q 44.921875 62.890625 50.78125 76.171875 
Q 53.125 74.609375 58.203125 71.484375 
Q 54.6875 67.578125 50.96875 61.328125 
Q 47.265625 55.078125 43.359375 50 
Q 50.390625 50 59.375 50.390625 
L 59.375 43.75 
Q 50.390625 44.140625 39.0625 44.140625 
Q 33.984375 38.671875 28.90625 33.984375 
z
M 82.421875 40.234375 
Q 89.84375 32.8125 92.765625 26.5625 
Q 95.703125 20.3125 94.921875 14.640625 
Q 94.140625 8.984375 90.421875 6.640625 
Q 86.71875 4.296875 77.734375 1.953125 
Q 76.953125 5.46875 74.21875 10.9375 
Q 81.640625 10.9375 84.765625 12.5 
Q 87.890625 14.0625 87.5 18.9375 
Q 87.109375 23.828125 82.609375 29.6875 
Q 78.125 35.546875 74.609375 39.453125 
Q 77.734375 46.875 83.203125 68.359375 
L 69.140625 68.359375 
L 69.140625 -9.765625 
L 61.71875 -9.765625 
Q 62.109375 -1.171875 62.109375 7.8125 
L 62.109375 56.25 
Q 62.109375 65.625 61.71875 74.609375 
L 92.96875 74.609375 
Q 86.328125 53.515625 82.421875 40.234375 
z
M 46.484375 18.75 
L 46.484375 28.515625 
L 23.828125 28.515625 
L 23.828125 18.75 
z
M 46.484375 3.90625 
L 46.484375 12.890625 
L 23.828125 12.890625 
L 23.828125 3.90625 
z
" id="SimHei-37117"/>
    </defs>
    <g transform="translate(494.543478 284.230435)scale(0.12 -0.12)">
     <use xlink:href="#SimHei-20986"/>
     <use x="100" xlink:href="#SimHei-34892"/>
     <use x="200" xlink:href="#SimHei-26041"/>
     <use x="300" xlink:href="#SimHei-24335"/>
     <use x="400" xlink:href="#SimHei-32"/>
     <use x="450" xlink:href="#SimHei-33457"/>
     <use x="550" xlink:href="#SimHei-37117"/>
     <use x="650" xlink:href="#SimHei-21306"/>
     <use x="750" xlink:href="#SimHei-32"/>
     <use x="800" xlink:href="#SimHei-39292"/>
     <use x="900" xlink:href="#SimHei-29366"/>
     <use x="1000" xlink:href="#SimHei-22270"/>
    </g>
   </g>
  </g>
 </g>
</svg>
