<?xml version="1.0" encoding="utf-8" standalone="no"?>
<!DOCTYPE svg PUBLIC "-//W3C//DTD SVG 1.1//EN"
  "http://www.w3.org/Graphics/SVG/1.1/DTD/svg11.dtd">
<!-- Created with matplotlib (https://matplotlib.org/) -->
<svg height="345.6pt" version="1.1" viewBox="0 0 460.8 345.6" width="460.8pt" xmlns="http://www.w3.org/2000/svg" xmlns:xlink="http://www.w3.org/1999/xlink">
 <defs>
  <style type="text/css">
*{stroke-linecap:butt;stroke-linejoin:round;}
  </style>
 </defs>
 <g id="figure_1">
  <g id="patch_1">
   <path d="M 0 345.6 
L 460.8 345.6 
L 460.8 0 
L 0 0 
z
" style="fill:#ffffff;"/>
  </g>
  <g id="axes_1">
   <g id="patch_2">
    <path d="M 57.6 307.584 
L 345.6 307.584 
L 345.6 41.472 
L 57.6 41.472 
z
" style="fill:#ffffff;"/>
   </g>
   <g id="patch_3">
    <path clip-path="url(#pc824e9a6a5)" d="M 57.6 295.488 
L 120.896703 295.488 
L 120.896703 277.568 
L 57.6 277.568 
z
" style="fill:#1f77b4;"/>
   </g>
   <g id="patch_4">
    <path clip-path="url(#pc824e9a6a5)" d="M 57.6 250.688 
L 141.995604 250.688 
L 141.995604 232.768 
L 57.6 232.768 
z
" style="fill:#1f77b4;"/>
   </g>
   <g id="patch_5">
    <path clip-path="url(#pc824e9a6a5)" d="M 57.6 205.888 
L 141.995604 205.888 
L 141.995604 187.968 
L 57.6 187.968 
z
" style="fill:#1f77b4;"/>
   </g>
   <g id="patch_6">
    <path clip-path="url(#pc824e9a6a5)" d="M 57.6 161.088 
L 78.698901 161.088 
L 78.698901 143.168 
L 57.6 143.168 
z
" style="fill:#1f77b4;"/>
   </g>
   <g id="patch_7">
    <path clip-path="url(#pc824e9a6a5)" d="M 57.6 116.288 
L 99.797802 116.288 
L 99.797802 98.368 
L 57.6 98.368 
z
" style="fill:#1f77b4;"/>
   </g>
   <g id="patch_8">
    <path clip-path="url(#pc824e9a6a5)" d="M 57.6 71.488 
L 141.995604 71.488 
L 141.995604 53.568 
L 57.6 53.568 
z
" style="fill:#1f77b4;"/>
   </g>
   <g id="patch_9">
    <path clip-path="url(#pc824e9a6a5)" d="M 120.896703 295.488 
L 184.193407 295.488 
L 184.193407 277.568 
L 120.896703 277.568 
z
" style="fill:#ff7f0e;"/>
   </g>
   <g id="patch_10">
    <path clip-path="url(#pc824e9a6a5)" d="M 141.995604 250.688 
L 205.292308 250.688 
L 205.292308 232.768 
L 141.995604 232.768 
z
" style="fill:#ff7f0e;"/>
   </g>
   <g id="patch_11">
    <path clip-path="url(#pc824e9a6a5)" d="M 141.995604 205.888 
L 205.292308 205.888 
L 205.292308 187.968 
L 141.995604 187.968 
z
" style="fill:#ff7f0e;"/>
   </g>
   <g id="patch_12">
    <path clip-path="url(#pc824e9a6a5)" d="M 78.698901 161.088 
L 120.896703 161.088 
L 120.896703 143.168 
L 78.698901 143.168 
z
" style="fill:#ff7f0e;"/>
   </g>
   <g id="patch_13">
    <path clip-path="url(#pc824e9a6a5)" d="M 99.797802 116.288 
L 205.292308 116.288 
L 205.292308 98.368 
L 99.797802 98.368 
z
" style="fill:#ff7f0e;"/>
   </g>
   <g id="patch_14">
    <path clip-path="url(#pc824e9a6a5)" d="M 141.995604 71.488 
L 141.995604 71.488 
L 141.995604 53.568 
L 141.995604 53.568 
z
" style="fill:#ff7f0e;"/>
   </g>
   <g id="patch_15">
    <path clip-path="url(#pc824e9a6a5)" d="M 184.193407 295.488 
L 226.391209 295.488 
L 226.391209 277.568 
L 184.193407 277.568 
z
" style="fill:#2ca02c;"/>
   </g>
   <g id="patch_16">
    <path clip-path="url(#pc824e9a6a5)" d="M 205.292308 250.688 
L 289.687912 250.688 
L 289.687912 232.768 
L 205.292308 232.768 
z
" style="fill:#2ca02c;"/>
   </g>
   <g id="patch_17">
    <path clip-path="url(#pc824e9a6a5)" d="M 205.292308 205.888 
L 226.391209 205.888 
L 226.391209 187.968 
L 205.292308 187.968 
z
" style="fill:#2ca02c;"/>
   </g>
   <g id="patch_18">
    <path clip-path="url(#pc824e9a6a5)" d="M 120.896703 161.088 
L 247.49011 161.088 
L 247.49011 143.168 
L 120.896703 143.168 
z
" style="fill:#2ca02c;"/>
   </g>
   <g id="patch_19">
    <path clip-path="url(#pc824e9a6a5)" d="M 205.292308 116.288 
L 247.49011 116.288 
L 247.49011 98.368 
L 205.292308 98.368 
z
" style="fill:#2ca02c;"/>
   </g>
   <g id="patch_20">
    <path clip-path="url(#pc824e9a6a5)" d="M 141.995604 71.488 
L 163.094505 71.488 
L 163.094505 53.568 
L 141.995604 53.568 
z
" style="fill:#2ca02c;"/>
   </g>
   <g id="patch_21">
    <path clip-path="url(#pc824e9a6a5)" d="M 226.391209 295.488 
L 226.391209 295.488 
L 226.391209 277.568 
L 226.391209 277.568 
z
" style="fill:#d62728;"/>
   </g>
   <g id="patch_22">
    <path clip-path="url(#pc824e9a6a5)" d="M 289.687912 250.688 
L 331.885714 250.688 
L 331.885714 232.768 
L 289.687912 232.768 
z
" style="fill:#d62728;"/>
   </g>
   <g id="patch_23">
    <path clip-path="url(#pc824e9a6a5)" d="M 226.391209 205.888 
L 331.885714 205.888 
L 331.885714 187.968 
L 226.391209 187.968 
z
" style="fill:#d62728;"/>
   </g>
   <g id="patch_24">
    <path clip-path="url(#pc824e9a6a5)" d="M 247.49011 161.088 
L 310.786813 161.088 
L 310.786813 143.168 
L 247.49011 143.168 
z
" style="fill:#d62728;"/>
   </g>
   <g id="patch_25">
    <path clip-path="url(#pc824e9a6a5)" d="M 247.49011 116.288 
L 289.687912 116.288 
L 289.687912 98.368 
L 247.49011 98.368 
z
" style="fill:#d62728;"/>
   </g>
   <g id="patch_26">
    <path clip-path="url(#pc824e9a6a5)" d="M 163.094505 71.488 
L 247.49011 71.488 
L 247.49011 53.568 
L 163.094505 53.568 
z
" style="fill:#d62728;"/>
   </g>
   <g id="matplotlib.axis_1">
    <g id="xtick_1">
     <g id="line2d_1">
      <defs>
       <path d="M 0 0 
L 0 3.5 
" id="m28f64ad079" style="stroke:#000000;stroke-width:0.8;"/>
      </defs>
      <g>
       <use style="stroke:#000000;stroke-width:0.8;" x="57.6" xlink:href="#m28f64ad079" y="307.584"/>
      </g>
     </g>
     <g id="text_1">
      <!-- 0 -->
      <defs>
       <path d="M 3.125 29.296875 
Q 3.90625 50 6.4375 56.046875 
Q 8.984375 62.109375 13.671875 66.015625 
Q 18.359375 69.921875 25.1875 69.921875 
Q 32.03125 69.921875 37.109375 64.25 
Q 42.1875 58.59375 43.75 50 
Q 45.3125 41.40625 44.71875 30.265625 
Q 44.140625 19.140625 40.8125 12.109375 
Q 37.5 5.078125 30.859375 2.34375 
Q 24.21875 -0.390625 17.578125 2.921875 
Q 10.9375 6.25 8.203125 11.71875 
Q 5.46875 17.1875 4.296875 23.234375 
Q 3.125 29.296875 3.90625 50 
z
M 12.890625 52.734375 
Q 10.546875 31.25 12.5 22.84375 
Q 14.453125 14.453125 18.9375 10.9375 
Q 23.4375 7.421875 28.125 9.5625 
Q 32.8125 11.71875 34.953125 18.15625 
Q 37.109375 24.609375 37.109375 32.21875 
Q 37.109375 39.84375 36.515625 46.09375 
Q 35.9375 52.34375 33 57.421875 
Q 30.078125 62.5 25.1875 62.6875 
Q 20.3125 62.890625 16.59375 57.8125 
Q 12.890625 52.734375 10.546875 31.25 
z
" id="SimHei-48"/>
      </defs>
      <g transform="translate(55.1 321.459)scale(0.1 -0.1)">
       <use xlink:href="#SimHei-48"/>
      </g>
     </g>
    </g>
    <g id="xtick_2">
     <g id="line2d_2">
      <g>
       <use style="stroke:#000000;stroke-width:0.8;" x="99.797802" xlink:href="#m28f64ad079" y="307.584"/>
      </g>
     </g>
     <g id="text_2">
      <!-- 2 -->
      <defs>
       <path d="M 4.6875 3.90625 
Q 5.078125 9.765625 10.15625 14.453125 
Q 15.234375 19.140625 23.046875 29.09375 
Q 30.859375 39.0625 33.203125 44.53125 
Q 35.546875 50 34.953125 53.90625 
Q 34.375 57.8125 31.25 60.34375 
Q 28.125 62.890625 24.015625 62.5 
Q 19.921875 62.109375 16.203125 59.375 
Q 12.5 56.640625 10.546875 51.171875 
L 3.125 52.34375 
Q 6.25 61.328125 11.125 65.421875 
Q 16.015625 69.53125 22.65625 69.921875 
Q 26.5625 70.3125 29.6875 69.71875 
Q 32.8125 69.140625 36.125 66.984375 
Q 39.453125 64.84375 41.59375 60.546875 
Q 43.75 56.25 43.15625 50.1875 
Q 42.578125 44.140625 37.109375 35.734375 
Q 31.640625 27.34375 16.015625 9.375 
L 44.140625 9.375 
L 44.140625 2.34375 
L 4.6875 2.34375 
z
" id="SimHei-50"/>
      </defs>
      <g transform="translate(97.297802 321.459)scale(0.1 -0.1)">
       <use xlink:href="#SimHei-50"/>
      </g>
     </g>
    </g>
    <g id="xtick_3">
     <g id="line2d_3">
      <g>
       <use style="stroke:#000000;stroke-width:0.8;" x="141.995604" xlink:href="#m28f64ad079" y="307.584"/>
      </g>
     </g>
     <g id="text_3">
      <!-- 4 -->
      <defs>
       <path d="M 31.25 17.1875 
L 1.171875 17.1875 
L 1.171875 23.828125 
L 32.8125 69.53125 
L 38.671875 69.53125 
L 38.671875 23.828125 
L 48.046875 23.828125 
L 48.046875 17.1875 
L 38.671875 17.1875 
L 38.671875 2.34375 
L 31.25 2.34375 
z
M 31.25 23.828125 
L 31.25 54.6875 
L 9.375 23.828125 
z
" id="SimHei-52"/>
      </defs>
      <g transform="translate(139.495604 321.459)scale(0.1 -0.1)">
       <use xlink:href="#SimHei-52"/>
      </g>
     </g>
    </g>
    <g id="xtick_4">
     <g id="line2d_4">
      <g>
       <use style="stroke:#000000;stroke-width:0.8;" x="184.193407" xlink:href="#m28f64ad079" y="307.584"/>
      </g>
     </g>
     <g id="text_4">
      <!-- 6 -->
      <defs>
       <path d="M 3.515625 19.53125 
Q 4.296875 30.859375 6.046875 34.765625 
Q 7.8125 38.671875 11.328125 44.53125 
L 27.34375 69.53125 
L 36.328125 69.53125 
L 19.921875 43.75 
Q 30.46875 46.484375 36.71875 42.96875 
Q 42.96875 39.453125 45.109375 34.953125 
Q 47.265625 30.46875 47.453125 25.1875 
Q 47.65625 19.921875 45.890625 14.84375 
Q 44.140625 9.765625 39.640625 5.65625 
Q 35.15625 1.5625 27.140625 1.171875 
Q 19.140625 0.78125 13.46875 4.09375 
Q 7.8125 7.421875 5.65625 13.46875 
Q 3.515625 19.53125 4.296875 30.859375 
z
M 12.5 16.015625 
Q 19.53125 8.59375 25.390625 8.203125 
Q 31.25 7.8125 35.15625 12.109375 
Q 39.0625 16.40625 39.0625 24.609375 
Q 39.0625 32.8125 34.171875 35.9375 
Q 29.296875 39.0625 23.234375 38.28125 
Q 17.1875 37.5 14.453125 32.421875 
Q 11.71875 27.34375 12.109375 21.671875 
Q 12.5 16.015625 19.53125 8.59375 
z
" id="SimHei-54"/>
      </defs>
      <g transform="translate(181.693407 321.459)scale(0.1 -0.1)">
       <use xlink:href="#SimHei-54"/>
      </g>
     </g>
    </g>
    <g id="xtick_5">
     <g id="line2d_5">
      <g>
       <use style="stroke:#000000;stroke-width:0.8;" x="226.391209" xlink:href="#m28f64ad079" y="307.584"/>
      </g>
     </g>
     <g id="text_5">
      <!-- 8 -->
      <defs>
       <path d="M 2.734375 16.796875 
Q 2.734375 26.171875 5.078125 30.65625 
Q 7.421875 35.15625 12.890625 37.890625 
Q 8.203125 40.625 6.640625 43.9375 
Q 5.078125 47.265625 4.875 51.5625 
Q 4.6875 55.859375 6.046875 58.984375 
Q 7.421875 62.109375 10.15625 64.84375 
Q 12.890625 67.578125 16.203125 68.546875 
Q 19.53125 69.53125 23.4375 69.53125 
Q 27.34375 69.53125 30.46875 68.75 
Q 33.59375 67.96875 37.109375 65.421875 
Q 40.625 62.890625 42.1875 58.203125 
Q 43.75 53.515625 41.984375 47.265625 
Q 40.234375 41.015625 32.8125 37.5 
Q 39.453125 35.546875 42.1875 31.4375 
Q 44.921875 27.34375 44.921875 21.484375 
Q 44.921875 15.625 43.15625 12.109375 
Q 41.40625 8.59375 39.25 6.25 
Q 37.109375 3.90625 33.390625 2.53125 
Q 29.6875 1.171875 24.015625 1.171875 
Q 18.359375 1.171875 14.25 2.53125 
Q 10.15625 3.90625 7.421875 6.640625 
Q 4.6875 9.375 3.703125 13.078125 
Q 2.734375 16.796875 2.734375 26.171875 
z
M 10.9375 26.5625 
Q 10.546875 17.1875 12.296875 13.671875 
Q 14.0625 10.15625 18.75 9.171875 
Q 23.4375 8.203125 28.515625 9.375 
Q 33.59375 10.546875 35.546875 14.84375 
Q 37.5 19.140625 36.90625 23.4375 
Q 36.328125 27.734375 32.03125 30.65625 
Q 27.734375 33.59375 22.65625 33.203125 
Q 17.578125 32.8125 14.25 29.6875 
Q 10.9375 26.5625 10.546875 17.1875 
z
M 12.109375 56.25 
Q 12.109375 48.4375 14.84375 44.921875 
Q 17.578125 41.40625 23.4375 41.40625 
Q 29.296875 41.40625 32.21875 44.921875 
Q 35.15625 48.4375 34.953125 53.3125 
Q 34.765625 58.203125 31.4375 60.546875 
Q 28.125 62.890625 22.453125 62.5 
Q 16.796875 62.109375 14.453125 59.171875 
Q 12.109375 56.25 12.109375 48.4375 
z
" id="SimHei-56"/>
      </defs>
      <g transform="translate(223.891209 321.459)scale(0.1 -0.1)">
       <use xlink:href="#SimHei-56"/>
      </g>
     </g>
    </g>
    <g id="xtick_6">
     <g id="line2d_6">
      <g>
       <use style="stroke:#000000;stroke-width:0.8;" x="268.589011" xlink:href="#m28f64ad079" y="307.584"/>
      </g>
     </g>
     <g id="text_6">
      <!-- 10 -->
      <defs>
       <path d="M 21.875 56.25 
Q 16.796875 51.171875 8.984375 46.484375 
L 8.984375 53.90625 
Q 18.75 60.546875 25 69.53125 
L 29.6875 69.53125 
L 29.6875 2.34375 
L 21.875 2.34375 
z
" id="SimHei-49"/>
      </defs>
      <g transform="translate(263.589011 321.459)scale(0.1 -0.1)">
       <use xlink:href="#SimHei-49"/>
       <use x="50" xlink:href="#SimHei-48"/>
      </g>
     </g>
    </g>
    <g id="xtick_7">
     <g id="line2d_7">
      <g>
       <use style="stroke:#000000;stroke-width:0.8;" x="310.786813" xlink:href="#m28f64ad079" y="307.584"/>
      </g>
     </g>
     <g id="text_7">
      <!-- 12 -->
      <g transform="translate(305.786813 321.459)scale(0.1 -0.1)">
       <use xlink:href="#SimHei-49"/>
       <use x="50" xlink:href="#SimHei-50"/>
      </g>
     </g>
    </g>
   </g>
   <g id="matplotlib.axis_2">
    <g id="ytick_1">
     <g id="line2d_8">
      <defs>
       <path d="M 0 0 
L -3.5 0 
" id="me034f75913" style="stroke:#000000;stroke-width:0.8;"/>
      </defs>
      <g>
       <use style="stroke:#000000;stroke-width:0.8;" x="57.6" xlink:href="#me034f75913" y="286.528"/>
      </g>
     </g>
     <g id="text_8">
      <!-- [12-22) -->
      <defs>
       <path d="M 44.140625 -8.203125 
L 19.53125 -8.203125 
L 19.53125 78.90625 
L 44.140625 78.90625 
L 44.140625 72.65625 
L 26.171875 72.65625 
L 26.171875 -1.953125 
L 44.140625 -1.953125 
z
" id="SimHei-91"/>
       <path d="M 46.484375 33.203125 
L 1.953125 33.203125 
L 1.953125 39.453125 
L 46.484375 39.453125 
z
" id="SimHei-45"/>
       <path d="M 26.171875 35.15625 
Q 26.171875 22.265625 21.28125 12.109375 
Q 16.40625 1.953125 6.640625 -7.421875 
L 2.34375 -3.125 
Q 11.328125 5.078125 15.8125 14.25 
Q 20.3125 23.4375 20.3125 35.15625 
Q 20.3125 46.875 15.8125 56.046875 
Q 11.328125 65.234375 2.34375 73.828125 
L 6.640625 78.125 
Q 16.40625 68.359375 21.28125 58.203125 
Q 26.171875 48.046875 26.171875 35.15625 
z
" id="SimHei-41"/>
      </defs>
      <g transform="translate(15.6 290.258469)scale(0.1 -0.1)">
       <use xlink:href="#SimHei-91"/>
       <use x="50" xlink:href="#SimHei-49"/>
       <use x="100" xlink:href="#SimHei-50"/>
       <use x="150" xlink:href="#SimHei-45"/>
       <use x="200" xlink:href="#SimHei-50"/>
       <use x="250" xlink:href="#SimHei-50"/>
       <use x="300" xlink:href="#SimHei-41"/>
      </g>
     </g>
    </g>
    <g id="ytick_2">
     <g id="line2d_9">
      <g>
       <use style="stroke:#000000;stroke-width:0.8;" x="57.6" xlink:href="#me034f75913" y="241.728"/>
      </g>
     </g>
     <g id="text_9">
      <!-- [22-32) -->
      <defs>
       <path d="M 3.90625 19.140625 
L 10.9375 20.3125 
Q 12.5 15.234375 16.015625 11.90625 
Q 19.53125 8.59375 24.796875 8.78125 
Q 30.078125 8.984375 33.203125 13.078125 
Q 36.328125 17.1875 35.9375 22.453125 
Q 35.546875 27.734375 31.828125 30.65625 
Q 28.125 33.59375 19.921875 34.765625 
L 19.921875 39.84375 
Q 28.125 40.625 31.828125 44.140625 
Q 35.546875 47.65625 35.15625 53.3125 
Q 34.765625 58.984375 30.078125 61.515625 
Q 25.390625 64.0625 20.109375 62.109375 
Q 14.84375 60.15625 11.71875 51.171875 
L 4.6875 52.34375 
Q 7.03125 59.375 11.125 64.0625 
Q 15.234375 68.75 22.265625 69.53125 
Q 29.296875 70.3125 34.5625 67.765625 
Q 39.84375 65.234375 41.984375 59.953125 
Q 44.140625 54.6875 42.578125 48.4375 
Q 41.015625 42.1875 33.59375 37.5 
Q 39.0625 35.15625 41.984375 30.46875 
Q 44.921875 25.78125 43.9375 18.15625 
Q 42.96875 10.546875 37.109375 5.859375 
Q 31.25 1.171875 23.828125 1.359375 
Q 16.40625 1.5625 10.9375 6.046875 
Q 5.46875 10.546875 3.90625 19.140625 
z
" id="SimHei-51"/>
      </defs>
      <g transform="translate(15.6 245.458469)scale(0.1 -0.1)">
       <use xlink:href="#SimHei-91"/>
       <use x="50" xlink:href="#SimHei-50"/>
       <use x="100" xlink:href="#SimHei-50"/>
       <use x="150" xlink:href="#SimHei-45"/>
       <use x="200" xlink:href="#SimHei-51"/>
       <use x="250" xlink:href="#SimHei-50"/>
       <use x="300" xlink:href="#SimHei-41"/>
      </g>
     </g>
    </g>
    <g id="ytick_3">
     <g id="line2d_10">
      <g>
       <use style="stroke:#000000;stroke-width:0.8;" x="57.6" xlink:href="#me034f75913" y="196.928"/>
      </g>
     </g>
     <g id="text_10">
      <!-- [32-42) -->
      <g transform="translate(15.6 200.658469)scale(0.1 -0.1)">
       <use xlink:href="#SimHei-91"/>
       <use x="50" xlink:href="#SimHei-51"/>
       <use x="100" xlink:href="#SimHei-50"/>
       <use x="150" xlink:href="#SimHei-45"/>
       <use x="200" xlink:href="#SimHei-52"/>
       <use x="250" xlink:href="#SimHei-50"/>
       <use x="300" xlink:href="#SimHei-41"/>
      </g>
     </g>
    </g>
    <g id="ytick_4">
     <g id="line2d_11">
      <g>
       <use style="stroke:#000000;stroke-width:0.8;" x="57.6" xlink:href="#me034f75913" y="152.128"/>
      </g>
     </g>
     <g id="text_11">
      <!-- [42-52) -->
      <defs>
       <path d="M 8.59375 20.703125 
Q 11.328125 10.15625 17.96875 8.984375 
Q 24.609375 7.8125 28.703125 10.34375 
Q 32.8125 12.890625 34.5625 16.984375 
Q 36.328125 21.09375 36.125 26.171875 
Q 35.9375 31.25 33.390625 34.765625 
Q 30.859375 38.28125 26.953125 39.453125 
Q 23.046875 40.625 18.15625 39.453125 
Q 13.28125 38.28125 10.15625 33.984375 
L 3.515625 34.765625 
Q 4.296875 37.109375 10.9375 68.359375 
L 41.796875 68.359375 
L 41.796875 61.328125 
L 16.796875 61.328125 
Q 14.84375 50.78125 12.890625 44.53125 
Q 18.75 47.265625 23.828125 47.0625 
Q 28.90625 46.875 33.59375 44.71875 
Q 38.28125 42.578125 40.421875 38.859375 
Q 42.578125 35.15625 43.546875 31.4375 
Q 44.53125 27.734375 44.328125 23.4375 
Q 44.140625 19.140625 42.578125 14.640625 
Q 41.015625 10.15625 37.890625 7.21875 
Q 34.765625 4.296875 30.265625 2.53125 
Q 25.78125 0.78125 19.921875 1.171875 
Q 14.0625 1.5625 8.78125 5.46875 
Q 3.515625 9.375 1.5625 18.75 
z
" id="SimHei-53"/>
      </defs>
      <g transform="translate(15.6 155.858469)scale(0.1 -0.1)">
       <use xlink:href="#SimHei-91"/>
       <use x="50" xlink:href="#SimHei-52"/>
       <use x="100" xlink:href="#SimHei-50"/>
       <use x="150" xlink:href="#SimHei-45"/>
       <use x="200" xlink:href="#SimHei-53"/>
       <use x="250" xlink:href="#SimHei-50"/>
       <use x="300" xlink:href="#SimHei-41"/>
      </g>
     </g>
    </g>
    <g id="ytick_5">
     <g id="line2d_12">
      <g>
       <use style="stroke:#000000;stroke-width:0.8;" x="57.6" xlink:href="#me034f75913" y="107.328"/>
      </g>
     </g>
     <g id="text_12">
      <!-- [52-62) -->
      <g transform="translate(15.6 111.058469)scale(0.1 -0.1)">
       <use xlink:href="#SimHei-91"/>
       <use x="50" xlink:href="#SimHei-53"/>
       <use x="100" xlink:href="#SimHei-50"/>
       <use x="150" xlink:href="#SimHei-45"/>
       <use x="200" xlink:href="#SimHei-54"/>
       <use x="250" xlink:href="#SimHei-50"/>
       <use x="300" xlink:href="#SimHei-41"/>
      </g>
     </g>
    </g>
    <g id="ytick_6">
     <g id="line2d_13">
      <g>
       <use style="stroke:#000000;stroke-width:0.8;" x="57.6" xlink:href="#me034f75913" y="62.528"/>
      </g>
     </g>
     <g id="text_13">
      <!-- [62-70] -->
      <defs>
       <path d="M 13.28125 2.34375 
Q 20.3125 32.03125 37.890625 61.328125 
L 4.296875 61.328125 
L 4.296875 68.359375 
L 46.09375 68.359375 
L 46.09375 61.71875 
Q 27.734375 32.03125 21.875 2.34375 
L 13.28125 2.34375 
z
" id="SimHei-55"/>
       <path d="M 29.296875 -8.203125 
L 4.6875 -8.203125 
L 4.6875 -1.953125 
L 22.65625 -1.953125 
L 22.65625 72.65625 
L 4.6875 72.65625 
L 4.6875 78.90625 
L 29.296875 78.90625 
z
" id="SimHei-93"/>
      </defs>
      <g transform="translate(15.6 66.258469)scale(0.1 -0.1)">
       <use xlink:href="#SimHei-91"/>
       <use x="50" xlink:href="#SimHei-54"/>
       <use x="100" xlink:href="#SimHei-50"/>
       <use x="150" xlink:href="#SimHei-45"/>
       <use x="200" xlink:href="#SimHei-55"/>
       <use x="250" xlink:href="#SimHei-48"/>
       <use x="300" xlink:href="#SimHei-93"/>
      </g>
     </g>
    </g>
   </g>
   <g id="patch_27">
    <path d="M 57.6 307.584 
L 57.6 41.472 
" style="fill:none;stroke:#000000;stroke-linecap:square;stroke-linejoin:miter;stroke-width:0.8;"/>
   </g>
   <g id="patch_28">
    <path d="M 345.6 307.584 
L 345.6 41.472 
" style="fill:none;stroke:#000000;stroke-linecap:square;stroke-linejoin:miter;stroke-width:0.8;"/>
   </g>
   <g id="patch_29">
    <path d="M 57.6 307.584 
L 345.6 307.584 
" style="fill:none;stroke:#000000;stroke-linecap:square;stroke-linejoin:miter;stroke-width:0.8;"/>
   </g>
   <g id="patch_30">
    <path d="M 57.6 41.472 
L 345.6 41.472 
" style="fill:none;stroke:#000000;stroke-linecap:square;stroke-linejoin:miter;stroke-width:0.8;"/>
   </g>
   <g id="text_14">
    <!-- age和cause条形图 -->
    <defs>
     <path d="M 44.921875 1.953125 
L 35.546875 1.953125 
Q 34.765625 2.734375 34.375 4.09375 
Q 33.984375 5.46875 33.984375 7.421875 
Q 31.25 4.296875 27.34375 2.734375 
Q 23.4375 1.171875 19.140625 1.171875 
Q 12.890625 1.171875 8.59375 4.296875 
Q 4.296875 7.421875 4.296875 13.28125 
Q 4.296875 19.140625 8.203125 22.65625 
Q 12.109375 26.171875 20.3125 27.34375 
Q 25.78125 28.125 29.875 29.296875 
Q 33.984375 30.46875 33.984375 32.421875 
Q 33.984375 34.765625 32.21875 37.109375 
Q 30.46875 39.453125 24.609375 39.453125 
Q 19.921875 39.453125 17.765625 37.6875 
Q 15.625 35.9375 14.84375 32.8125 
L 6.25 32.8125 
Q 7.03125 39.0625 11.90625 42.765625 
Q 16.796875 46.484375 24.609375 46.484375 
Q 33.203125 46.484375 37.5 42.578125 
Q 41.796875 38.671875 41.796875 31.640625 
L 41.796875 10.15625 
Q 41.796875 7.8125 42.578125 5.859375 
Q 43.359375 3.90625 44.921875 1.953125 
z
M 33.984375 16.40625 
L 33.984375 24.21875 
Q 31.640625 23.4375 29.484375 22.84375 
Q 27.34375 22.265625 22.265625 21.484375 
Q 16.40625 20.703125 14.640625 18.75 
Q 12.890625 16.796875 12.890625 14.0625 
Q 12.890625 11.71875 14.640625 9.953125 
Q 16.40625 8.203125 19.921875 8.203125 
Q 23.4375 8.203125 27.53125 10.15625 
Q 31.640625 12.109375 33.984375 16.40625 
z
" id="SimHei-97"/>
     <path d="M 46.484375 39.0625 
Q 43.75 39.84375 41.203125 40.03125 
Q 38.671875 40.234375 35.9375 39.453125 
Q 37.109375 38.28125 37.890625 36.515625 
Q 38.671875 34.765625 38.671875 31.25 
Q 38.671875 24.609375 34.171875 20.3125 
Q 29.6875 16.015625 23.046875 16.015625 
Q 21.484375 16.015625 18.9375 16.59375 
Q 16.40625 17.1875 14.84375 17.96875 
Q 13.671875 17.1875 13.28125 16.40625 
Q 12.890625 15.625 12.890625 14.453125 
Q 12.890625 12.5 15.625 11.515625 
Q 18.359375 10.546875 25.390625 10.546875 
Q 36.71875 10.546875 40.8125 7.421875 
Q 44.921875 4.296875 44.921875 -0.390625 
Q 44.921875 -6.640625 38.859375 -9.5625 
Q 32.8125 -12.5 24.609375 -12.5 
Q 14.0625 -12.5 8.984375 -9.765625 
Q 3.90625 -7.03125 3.90625 -2.34375 
Q 3.90625 0 5.859375 2.34375 
Q 7.8125 4.6875 10.9375 6.25 
Q 8.59375 7.421875 7.21875 9.171875 
Q 5.859375 10.9375 5.859375 13.671875 
Q 5.859375 16.015625 7.609375 17.765625 
Q 9.375 19.53125 11.71875 20.703125 
Q 9.765625 22.65625 8.59375 25.390625 
Q 7.421875 28.125 7.421875 31.25 
Q 7.421875 37.890625 11.90625 42.1875 
Q 16.40625 46.484375 23.046875 46.484375 
Q 26.5625 46.484375 29.09375 45.5 
Q 31.640625 44.53125 33.59375 42.578125 
Q 36.71875 44.921875 39.84375 45.890625 
Q 42.96875 46.875 46.484375 46.484375 
z
M 30.859375 31.25 
Q 30.859375 35.15625 28.90625 37.5 
Q 26.953125 39.84375 23.046875 39.84375 
Q 19.140625 39.84375 17.1875 37.5 
Q 15.234375 35.15625 15.234375 31.25 
Q 15.234375 27.34375 17.1875 25 
Q 19.140625 22.65625 23.046875 22.65625 
Q 26.953125 22.65625 28.90625 25 
Q 30.859375 27.34375 30.859375 31.25 
z
M 37.5 -1.171875 
Q 37.5 0.390625 35.734375 1.953125 
Q 33.984375 3.515625 26.953125 3.515625 
Q 25.390625 3.515625 22.65625 3.703125 
Q 19.921875 3.90625 16.40625 4.296875 
Q 13.28125 3.125 12.109375 1.5625 
Q 10.9375 0 10.9375 -1.5625 
Q 10.9375 -3.90625 14.0625 -5.46875 
Q 17.1875 -7.03125 25 -7.03125 
Q 31.640625 -7.03125 34.5625 -5.265625 
Q 37.5 -3.515625 37.5 -1.171875 
z
" id="SimHei-103"/>
     <path d="M 44.53125 16.796875 
Q 43.75 9.765625 38.28125 5.46875 
Q 32.8125 1.171875 25.390625 1.171875 
Q 16.015625 1.171875 9.953125 7.21875 
Q 3.90625 13.28125 3.90625 23.828125 
Q 3.90625 34.375 9.953125 40.421875 
Q 16.015625 46.484375 25.390625 46.484375 
Q 33.59375 46.484375 38.859375 41.203125 
Q 44.140625 35.9375 44.140625 23.828125 
L 12.5 23.828125 
Q 12.5 15.234375 16.203125 11.71875 
Q 19.921875 8.203125 25.390625 8.203125 
Q 29.6875 8.203125 32.421875 10.34375 
Q 35.15625 12.5 35.9375 16.796875 
z
M 35.15625 30.078125 
Q 34.375 35.546875 31.640625 37.6875 
Q 28.90625 39.84375 24.609375 39.84375 
Q 20.703125 39.84375 17.578125 37.6875 
Q 14.453125 35.546875 12.890625 30.078125 
z
" id="SimHei-101"/>
     <path d="M 91.796875 65.625 
Q 91.40625 57.8125 91.40625 51.171875 
L 91.40625 10.9375 
Q 91.40625 3.90625 91.796875 -0.390625 
L 83.984375 -0.390625 
L 83.984375 8.984375 
L 65.234375 8.984375 
L 65.234375 -1.171875 
L 57.8125 -1.171875 
Q 58.203125 7.8125 58.203125 9.765625 
L 58.203125 51.171875 
Q 58.203125 57.8125 57.8125 65.625 
L 91.796875 65.625 
z
M 51.171875 69.53125 
Q 47.65625 69.53125 35.15625 67.578125 
L 35.15625 50 
L 41.015625 50 
Q 46.875 50 53.515625 50.390625 
L 53.515625 43.359375 
Q 46.875 43.75 41.40625 43.75 
L 35.15625 43.75 
L 35.15625 3.515625 
Q 35.15625 -3.125 35.546875 -8.59375 
L 27.734375 -8.59375 
Q 28.125 -2.34375 28.125 3.515625 
L 28.125 28.90625 
Q 22.265625 17.96875 10.546875 3.90625 
Q 8.59375 6.640625 4.296875 9.375 
Q 12.890625 17.578125 19.328125 28.3125 
Q 25.78125 39.0625 26.5625 43.75 
L 19.53125 43.75 
Q 10.9375 43.75 7.03125 43.359375 
L 7.03125 50.390625 
Q 11.328125 50 19.53125 50 
L 28.125 50 
L 28.125 66.40625 
Q 23.046875 65.625 12.109375 64.453125 
Q 11.328125 68.359375 9.765625 71.484375 
Q 17.1875 71.875 28.515625 73.4375 
Q 39.84375 75 47.65625 78.125 
Q 48.4375 73.828125 51.171875 69.53125 
z
M 83.984375 15.234375 
L 83.984375 58.984375 
L 65.234375 58.984375 
L 65.234375 15.234375 
z
M 48.046875 15.625 
Q 42.96875 25.390625 36.328125 32.8125 
Q 38.671875 34.375 42.1875 37.5 
Q 49.609375 29.296875 54.6875 20.703125 
Q 50.78125 18.359375 48.046875 15.625 
z
" id="SimHei-21644"/>
     <path d="M 44.53125 19.53125 
Q 44.53125 11.328125 38.859375 6.25 
Q 33.203125 1.171875 24.609375 1.171875 
Q 16.015625 1.171875 9.765625 7.21875 
Q 3.515625 13.28125 3.515625 23.828125 
Q 3.515625 34.375 9.765625 40.421875 
Q 16.015625 46.484375 24.609375 46.484375 
Q 33.203125 46.484375 38.28125 41.984375 
Q 43.359375 37.5 43.359375 31.25 
L 34.765625 31.25 
Q 34.375 35.9375 31.4375 37.6875 
Q 28.515625 39.453125 24.609375 39.453125 
Q 19.921875 39.453125 16.015625 35.734375 
Q 12.109375 32.03125 12.109375 23.828125 
Q 12.109375 15.625 16.015625 11.90625 
Q 19.921875 8.203125 24.609375 8.203125 
Q 29.6875 8.203125 32.8125 10.9375 
Q 35.9375 13.671875 35.9375 19.53125 
z
" id="SimHei-99"/>
     <path d="M 43.75 1.953125 
L 35.9375 1.953125 
L 35.9375 10.15625 
Q 32.8125 5.859375 29.09375 3.515625 
Q 25.390625 1.171875 19.53125 1.171875 
Q 12.5 1.171875 8.984375 5.078125 
Q 5.46875 8.984375 5.46875 14.84375 
L 5.46875 45.703125 
L 13.28125 45.703125 
L 13.28125 17.578125 
Q 13.28125 12.890625 15.625 10.15625 
Q 17.96875 7.421875 21.875 7.421875 
Q 26.953125 7.421875 31.4375 12.6875 
Q 35.9375 17.96875 35.9375 25.78125 
L 35.9375 45.703125 
L 43.75 45.703125 
z
" id="SimHei-117"/>
     <path d="M 42.96875 14.0625 
Q 42.96875 7.8125 38.078125 4.484375 
Q 33.203125 1.171875 25.78125 1.171875 
Q 16.40625 1.171875 11.328125 4.875 
Q 6.25 8.59375 6.25 15.625 
L 14.0625 15.625 
Q 14.0625 10.9375 17.375 9.375 
Q 20.703125 7.8125 25.390625 7.8125 
Q 30.078125 7.8125 32.421875 9.5625 
Q 34.765625 11.328125 34.765625 14.0625 
Q 34.765625 16.015625 32.8125 17.96875 
Q 30.859375 19.921875 23.046875 21.09375 
Q 14.0625 22.265625 10.734375 25.578125 
Q 7.421875 28.90625 7.421875 34.375 
Q 7.421875 39.0625 11.90625 42.765625 
Q 16.40625 46.484375 25 46.484375 
Q 32.8125 46.484375 37.296875 42.96875 
Q 41.796875 39.453125 41.796875 33.59375 
L 33.984375 33.59375 
Q 33.984375 37.109375 31.4375 38.46875 
Q 28.90625 39.84375 25 39.84375 
Q 19.921875 39.84375 17.765625 38.078125 
Q 15.625 36.328125 15.625 33.984375 
Q 15.625 31.25 17.578125 29.6875 
Q 19.53125 28.125 25.78125 27.34375 
Q 35.9375 25.78125 39.453125 22.453125 
Q 42.96875 19.140625 42.96875 14.0625 
z
" id="SimHei-115"/>
     <path d="M 42.1875 79.296875 
Q 40.625 78.125 37.5 73.4375 
L 81.640625 73.4375 
Q 77.734375 67.1875 72.265625 60.546875 
Q 66.796875 53.90625 58.59375 47.65625 
Q 64.0625 44.53125 74.21875 41.984375 
Q 84.375 39.453125 96.875 39.453125 
Q 92.96875 35.546875 92.578125 31.25 
Q 78.125 32.8125 68.546875 35.9375 
Q 58.984375 39.0625 51.171875 44.140625 
Q 39.0625 37.109375 28.703125 33.984375 
Q 18.359375 30.859375 8.984375 28.90625 
Q 7.8125 33.203125 4.296875 35.9375 
Q 19.53125 37.5 29.875 41.015625 
Q 40.234375 44.53125 44.140625 48.046875 
Q 37.5 53.515625 30.078125 62.109375 
Q 25 55.46875 17.96875 48.046875 
Q 14.453125 51.5625 11.328125 52.34375 
Q 19.140625 58.984375 25.390625 67.96875 
Q 31.640625 76.953125 33.203125 82.8125 
Q 39.453125 80.078125 42.1875 79.296875 
z
M 46.09375 27.734375 
Q 46.09375 31.25 45.703125 37.5 
L 54.296875 37.5 
Q 53.90625 30.859375 53.90625 27.734375 
L 70.3125 27.734375 
Q 78.515625 27.734375 86.71875 28.125 
L 86.71875 20.703125 
Q 78.515625 21.09375 70.703125 21.09375 
L 53.90625 21.09375 
L 53.90625 -0.78125 
Q 54.296875 -8.984375 38.28125 -9.765625 
Q 37.109375 -5.859375 34.765625 -1.171875 
Q 46.484375 -2.34375 46.09375 3.125 
L 46.09375 21.09375 
L 28.90625 21.09375 
Q 21.09375 21.09375 12.890625 20.703125 
L 12.890625 28.125 
Q 21.09375 27.734375 28.90625 27.734375 
z
M 51.5625 51.5625 
Q 62.890625 58.984375 67.578125 66.796875 
L 35.15625 66.796875 
Q 42.1875 57.421875 51.5625 51.5625 
z
M 65.625 15.625 
Q 77.34375 8.984375 90.625 0 
Q 88.28125 -2.734375 85.9375 -6.25 
Q 80.46875 -2.34375 74.796875 1.5625 
Q 69.140625 5.46875 61.328125 9.375 
Q 63.671875 12.109375 65.625 15.625 
z
M 37.109375 10.9375 
Q 35.546875 9.375 28.125 3.90625 
Q 20.703125 -1.5625 13.28125 -6.25 
Q 10.9375 -3.125 7.8125 -0.78125 
Q 12.890625 1.5625 20.109375 6.828125 
Q 27.34375 12.109375 30.46875 16.40625 
z
" id="SimHei-26465"/>
     <path d="M 42.96875 75.78125 
Q 52.34375 75.78125 57.421875 76.171875 
L 57.421875 69.140625 
Q 53.125 69.53125 46.09375 69.53125 
L 46.09375 42.1875 
Q 54.296875 42.1875 58.203125 42.578125 
L 58.203125 35.15625 
Q 54.6875 35.546875 46.09375 35.546875 
L 46.09375 7.8125 
Q 46.09375 -0.78125 46.484375 -5.46875 
L 38.671875 -5.46875 
Q 39.0625 0 39.0625 7.421875 
L 39.0625 35.546875 
L 25.78125 35.546875 
Q 25 16.796875 20.703125 6.828125 
Q 16.40625 -3.125 12.890625 -7.8125 
Q 8.59375 -4.6875 4.6875 -3.90625 
Q 10.9375 2.34375 14.640625 11.90625 
Q 18.359375 21.484375 18.75 35.546875 
Q 12.109375 35.546875 6.640625 35.15625 
L 6.640625 42.578125 
Q 12.109375 42.1875 19.140625 42.1875 
L 19.140625 69.53125 
Q 12.5 69.53125 9.375 69.140625 
L 9.375 76.171875 
Q 12.5 75.78125 21.484375 75.78125 
z
M 95.3125 19.921875 
Q 91.40625 16.40625 80.46875 7.21875 
Q 69.53125 -1.953125 59.375 -8.203125 
Q 57.03125 -4.6875 53.125 -1.5625 
Q 63.28125 2.734375 73.828125 11.71875 
Q 84.375 20.703125 87.890625 25.78125 
Q 90.625 22.65625 95.3125 19.921875 
z
M 39.0625 42.1875 
L 39.0625 69.53125 
L 26.171875 69.53125 
L 26.171875 42.1875 
z
M 91.796875 46.484375 
Q 88.28125 44.140625 81.046875 35.9375 
Q 73.828125 27.734375 60.9375 18.359375 
Q 58.59375 21.484375 54.296875 24.21875 
Q 65.234375 30.46875 72.265625 37.6875 
Q 79.296875 44.921875 83.984375 51.953125 
Q 89.0625 47.65625 91.796875 46.484375 
z
M 88.671875 75 
Q 84.765625 71.484375 79.09375 63.859375 
Q 73.4375 56.25 63.671875 46.484375 
Q 60.15625 49.21875 56.640625 51.171875 
Q 65.234375 58.59375 69.921875 64.453125 
Q 74.609375 70.3125 80.078125 79.6875 
Q 82.03125 78.515625 88.671875 75 
z
" id="SimHei-24418"/>
     <path d="M 90.625 77.734375 
Q 90.234375 67.96875 90.234375 56.25 
L 90.234375 14.453125 
Q 90.234375 2.34375 90.625 -9.375 
L 82.8125 -9.375 
L 82.8125 -4.296875 
L 17.578125 -4.296875 
L 17.578125 -10.15625 
L 9.765625 -10.15625 
Q 10.15625 1.953125 10.15625 14.84375 
L 10.15625 56.25 
Q 10.15625 67.578125 9.765625 77.734375 
L 90.625 77.734375 
z
M 82.8125 2.34375 
L 82.8125 71.484375 
L 17.578125 71.484375 
L 17.578125 2.34375 
z
M 50.390625 66.40625 
Q 48.046875 64.0625 46.09375 61.328125 
L 72.265625 61.328125 
Q 70.703125 57.8125 67.1875 52.734375 
Q 63.671875 47.65625 56.25 40.625 
Q 67.96875 34.765625 79.296875 33.59375 
Q 76.5625 30.078125 74.609375 26.171875 
Q 60.15625 30.46875 50.390625 36.71875 
Q 39.0625 29.296875 26.171875 25.78125 
Q 25 29.296875 21.875 32.421875 
Q 34.375 34.375 44.921875 40.625 
Q 39.453125 45.703125 37.109375 49.21875 
Q 33.59375 45.3125 29.6875 41.40625 
Q 26.953125 44.53125 23.828125 46.09375 
Q 30.46875 51.5625 35.15625 58.390625 
Q 39.84375 65.234375 41.796875 69.921875 
Q 45.703125 67.96875 50.390625 66.40625 
z
M 38.28125 19.921875 
Q 55.46875 14.84375 64.0625 11.328125 
Q 62.109375 8.203125 60.15625 4.6875 
Q 44.140625 11.328125 35.546875 13.28125 
Q 37.109375 16.40625 38.28125 19.921875 
z
M 45.703125 32.03125 
Q 58.984375 26.5625 63.671875 25 
Q 61.71875 21.875 60.15625 17.96875 
Q 46.875 24.21875 42.1875 25.78125 
Q 44.140625 28.515625 45.703125 32.03125 
z
M 41.015625 53.90625 
Q 46.875 47.265625 51.171875 44.53125 
Q 56.25 48.4375 60.546875 55.078125 
L 41.796875 55.078125 
L 41.015625 53.90625 
z
" id="SimHei-22270"/>
    </defs>
    <g transform="translate(153.6 35.472)scale(0.12 -0.12)">
     <use xlink:href="#SimHei-97"/>
     <use x="50" xlink:href="#SimHei-103"/>
     <use x="100" xlink:href="#SimHei-101"/>
     <use x="150" xlink:href="#SimHei-21644"/>
     <use x="250" xlink:href="#SimHei-99"/>
     <use x="300" xlink:href="#SimHei-97"/>
     <use x="350" xlink:href="#SimHei-117"/>
     <use x="400" xlink:href="#SimHei-115"/>
     <use x="450" xlink:href="#SimHei-101"/>
     <use x="500" xlink:href="#SimHei-26465"/>
     <use x="600" xlink:href="#SimHei-24418"/>
     <use x="700" xlink:href="#SimHei-22270"/>
    </g>
   </g>
   <g id="legend_1">
    <g id="patch_31">
     <path d="M 362 307.584 
L 434 307.584 
Q 436 307.584 436 305.584 
L 436 249.357437 
Q 436 247.357437 434 247.357437 
L 362 247.357437 
Q 360 247.357437 360 249.357437 
L 360 305.584 
Q 360 307.584 362 307.584 
z
" style="fill:#ffffff;opacity:0.8;stroke:#cccccc;stroke-linejoin:miter;"/>
    </g>
    <g id="patch_32">
     <path d="M 364 259.36525 
L 384 259.36525 
L 384 252.36525 
L 364 252.36525 
z
" style="fill:#1f77b4;"/>
    </g>
    <g id="text_15">
     <!-- 消费低 -->
     <defs>
      <path d="M 60.15625 52.34375 
Q 60.15625 75.390625 59.765625 81.640625 
L 69.140625 81.640625 
Q 68.75 75.390625 68.75 52.34375 
L 91.796875 52.34375 
Q 91.40625 42.1875 91.40625 36.328125 
L 91.40625 -1.5625 
Q 91.40625 -4.296875 88.859375 -6.4375 
Q 86.328125 -8.59375 77.734375 -10.15625 
Q 77.34375 -6.25 73.046875 -1.171875 
Q 78.90625 -1.5625 81.046875 -1.171875 
Q 83.203125 -0.78125 83.203125 1.953125 
L 83.203125 10.9375 
L 46.09375 10.9375 
L 46.09375 -9.375 
L 37.890625 -9.375 
Q 38.28125 1.5625 38.28125 9.765625 
L 38.28125 36.71875 
Q 38.28125 46.09375 37.890625 52.34375 
L 60.15625 52.34375 
z
M 83.203125 35.15625 
L 83.203125 45.703125 
L 46.09375 45.703125 
L 46.09375 35.15625 
z
M 83.203125 17.578125 
L 83.203125 28.125 
L 46.09375 28.125 
L 46.09375 17.578125 
z
M 27.34375 23.4375 
Q 25 19.921875 21.671875 10.34375 
Q 18.359375 0.78125 15.625 -9.375 
Q 10.9375 -5.46875 4.6875 -3.90625 
Q 8.59375 0.390625 12.5 8.59375 
Q 16.40625 16.796875 19.53125 29.296875 
Q 23.4375 25.78125 27.34375 23.4375 
z
M 14.84375 78.515625 
Q 21.875 73.4375 29.6875 65.625 
Q 25.390625 62.5 23.046875 59.375 
Q 16.40625 67.1875 8.59375 73.4375 
Q 11.328125 74.609375 14.84375 78.515625 
z
M 8.203125 53.125 
Q 17.578125 48.4375 25.78125 42.96875 
Q 23.046875 39.84375 20.3125 35.9375 
Q 12.890625 41.796875 3.90625 46.875 
Q 5.859375 49.21875 8.203125 53.125 
z
M 96.484375 73.046875 
Q 94.140625 71.484375 90.234375 66.59375 
Q 86.328125 61.71875 83.59375 57.03125 
L 76.5625 60.9375 
Q 82.03125 67.1875 87.5 78.125 
Q 92.1875 75 96.484375 73.046875 
z
M 41.015625 77.734375 
Q 46.09375 71.484375 51.5625 61.71875 
Q 47.265625 59.765625 44.140625 57.421875 
Q 40.234375 65.625 33.59375 73.4375 
Q 37.109375 75 41.015625 77.734375 
z
" id="SimHei-28040"/>
      <path d="M 35.15625 81.640625 
Q 39.453125 80.859375 44.140625 80.46875 
Q 43.359375 78.515625 42.96875 73.046875 
L 56.640625 73.046875 
Q 56.640625 76.953125 56.25 81.25 
L 63.671875 81.25 
Q 63.28125 76.953125 63.28125 73.046875 
L 88.671875 73.046875 
Q 88.28125 68.359375 88.28125 63.28125 
Q 88.28125 58.203125 88.671875 53.90625 
L 63.28125 53.90625 
L 63.28125 46.875 
L 94.140625 46.875 
Q 93.75 40.234375 93.546875 35.9375 
Q 93.359375 31.640625 91.203125 30.078125 
Q 89.0625 28.515625 81.640625 26.953125 
Q 80.859375 30.859375 78.125 34.765625 
Q 83.203125 34.765625 84.765625 35.34375 
Q 86.328125 35.9375 86.328125 41.015625 
L 63.28125 41.015625 
L 63.28125 32.03125 
L 79.6875 32.03125 
L 79.6875 18.359375 
Q 79.6875 14.0625 80.078125 8.203125 
L 71.875 8.203125 
L 71.875 26.171875 
L 29.6875 26.171875 
L 29.6875 5.46875 
L 21.875 5.46875 
Q 22.265625 12.109375 22.265625 17.1875 
L 22.265625 26.953125 
Q 18.359375 24.609375 9.375 21.09375 
Q 7.421875 25 4.6875 28.90625 
Q 9.765625 29.296875 18.15625 32.609375 
Q 26.5625 35.9375 31.25 41.015625 
L 13.671875 41.015625 
Q 15.234375 52.34375 15.234375 59.765625 
L 35.9375 59.765625 
L 35.9375 67.1875 
Q 18.75 67.1875 13.28125 66.796875 
L 13.28125 73.4375 
Q 19.140625 73.046875 35.9375 73.046875 
Q 35.9375 76.5625 35.15625 81.640625 
z
M 57.03125 20.3125 
Q 55.078125 16.015625 52.53125 10.15625 
Q 50 4.296875 45.703125 0.78125 
Q 41.40625 -2.734375 33.59375 -5.65625 
Q 25.78125 -8.59375 13.28125 -9.765625 
Q 12.109375 -5.859375 9.375 -1.5625 
Q 17.578125 -1.5625 25 -0.1875 
Q 32.421875 1.171875 38.859375 5.859375 
Q 45.3125 10.546875 47.65625 22.65625 
Q 51.5625 21.09375 57.03125 20.3125 
z
M 60.9375 10.9375 
Q 68.75 7.8125 75.96875 4.6875 
Q 83.203125 1.5625 89.84375 -1.5625 
Q 86.328125 -5.859375 84.375 -8.984375 
Q 76.953125 -5.078125 71.875 -2.53125 
Q 66.796875 0 56.640625 3.90625 
Q 58.203125 6.25 60.9375 10.9375 
z
M 56.25 32.03125 
L 56.25 41.015625 
L 41.015625 41.015625 
Q 36.328125 34.375 32.03125 32.03125 
z
M 80.46875 59.765625 
L 80.46875 67.1875 
L 63.28125 67.1875 
L 63.28125 59.765625 
z
M 56.25 59.765625 
L 56.25 67.1875 
L 42.96875 67.1875 
L 42.96875 59.765625 
z
M 56.25 46.875 
L 56.25 53.90625 
L 42.96875 53.90625 
Q 42.578125 49.609375 42.1875 46.875 
z
M 34.375 46.875 
Q 35.546875 51.171875 35.546875 53.90625 
L 22.65625 53.90625 
L 22.265625 46.875 
z
" id="SimHei-36153"/>
      <path d="M 35.9375 71.09375 
Q 42.96875 70.703125 58.59375 72.453125 
Q 74.21875 74.21875 82.421875 78.125 
Q 84.765625 73.828125 87.5 69.921875 
Q 80.078125 68.75 67.96875 67.1875 
Q 67.96875 59.765625 68.75 44.53125 
L 78.125 44.53125 
Q 84.765625 44.53125 91.40625 44.921875 
L 91.40625 37.890625 
Q 84.765625 38.28125 78.515625 38.28125 
L 69.53125 38.28125 
Q 71.484375 20.703125 75.96875 11.90625 
Q 80.46875 3.125 83.203125 1.171875 
Q 85.9375 -0.78125 86.90625 1.953125 
Q 87.890625 4.6875 88.671875 12.109375 
Q 92.578125 8.984375 96.09375 8.203125 
Q 93.75 -1.5625 91.40625 -5.265625 
Q 89.0625 -8.984375 83.59375 -7.8125 
Q 78.125 -6.640625 71.671875 4.09375 
Q 65.234375 14.84375 62.5 38.28125 
L 43.359375 38.28125 
L 43.359375 7.8125 
Q 51.171875 14.84375 55.859375 19.921875 
Q 57.421875 15.234375 58.984375 12.5 
Q 43.359375 -0.78125 39.0625 -5.46875 
Q 36.328125 -2.734375 33.984375 0.390625 
Q 35.9375 2.34375 36.328125 7.8125 
L 36.328125 58.203125 
Q 36.328125 63.671875 35.9375 71.09375 
z
M 32.03125 79.296875 
Q 29.6875 76.5625 25 61.71875 
L 25 6.640625 
Q 25 -1.171875 25.390625 -9.765625 
L 17.1875 -9.765625 
Q 17.578125 -1.171875 17.578125 7.03125 
L 17.578125 47.265625 
Q 13.671875 39.0625 9.765625 33.203125 
Q 6.25 36.71875 3.515625 37.890625 
Q 9.375 45.3125 15.03125 57.609375 
Q 20.703125 69.921875 23.4375 82.421875 
Q 24.609375 81.25 32.03125 79.296875 
z
M 61.71875 44.53125 
Q 60.9375 58.984375 60.9375 66.015625 
Q 48.828125 65.234375 43.359375 64.84375 
L 43.359375 44.53125 
z
M 60.15625 -9.765625 
Q 53.90625 -1.171875 50.78125 1.5625 
Q 53.90625 4.296875 55.859375 6.640625 
Q 61.328125 0.78125 66.015625 -4.6875 
Q 62.890625 -7.03125 60.15625 -9.765625 
z
" id="SimHei-20302"/>
     </defs>
     <g transform="translate(392 259.36525)scale(0.1 -0.1)">
      <use xlink:href="#SimHei-28040"/>
      <use x="100" xlink:href="#SimHei-36153"/>
      <use x="200" xlink:href="#SimHei-20302"/>
     </g>
    </g>
    <g id="patch_33">
     <path d="M 364 273.74025 
L 384 273.74025 
L 384 266.74025 
L 364 266.74025 
z
" style="fill:#ff7f0e;"/>
    </g>
    <g id="text_16">
     <!-- 高效便捷 -->
     <defs>
      <path d="M 91.015625 -0.390625 
Q 91.40625 -6.25 86.71875 -7.8125 
Q 82.03125 -9.375 77.734375 -9.765625 
Q 76.171875 -5.078125 73.828125 -1.5625 
Q 77.734375 -1.5625 80.859375 -1.359375 
Q 83.984375 -1.171875 83.59375 3.90625 
L 83.59375 28.515625 
L 17.1875 28.515625 
L 17.1875 -8.984375 
L 9.375 -8.984375 
Q 9.765625 -3.515625 9.765625 13.28125 
Q 9.765625 30.46875 9.375 34.375 
L 91.40625 34.375 
Q 91.015625 28.90625 91.015625 22.265625 
z
M 76.953125 59.375 
Q 76.5625 54.296875 76.5625 49.609375 
Q 76.5625 45.3125 76.953125 40.625 
L 21.875 40.625 
Q 22.265625 44.140625 22.265625 49.609375 
Q 22.265625 55.078125 21.875 59.375 
L 76.953125 59.375 
z
M 70.3125 21.875 
Q 69.921875 17.578125 69.921875 12.5 
Q 69.921875 7.8125 70.3125 3.125 
L 30.46875 3.125 
Q 31.25 7.8125 31.25 12.5 
Q 31.25 17.578125 30.46875 21.875 
L 70.3125 21.875 
z
M 6.640625 71.875 
Q 11.71875 71.484375 17.578125 71.484375 
L 45.703125 71.484375 
Q 44.53125 76.171875 42.96875 79.6875 
Q 47.65625 80.078125 52.34375 81.25 
Q 53.125 77.34375 55.078125 71.484375 
L 82.03125 71.484375 
Q 87.5 71.484375 93.359375 71.875 
L 93.359375 64.84375 
Q 87.5 65.234375 78.90625 65.234375 
L 17.96875 65.234375 
Q 11.71875 65.234375 6.640625 64.84375 
z
M 69.53125 46.484375 
L 69.53125 53.515625 
L 29.6875 53.515625 
L 29.6875 46.484375 
z
M 62.890625 8.59375 
L 62.890625 16.40625 
L 37.5 16.40625 
L 37.5 8.59375 
z
" id="SimHei-39640"/>
      <path d="M 54.6875 37.5 
Q 53.125 41.796875 50 45.3125 
Q 54.6875 52.34375 58.59375 62.890625 
Q 62.5 73.4375 64.0625 82.8125 
Q 68.75 80.46875 74.21875 79.296875 
Q 72.265625 77.34375 70.3125 73.234375 
Q 68.359375 69.140625 66.015625 62.890625 
Q 90.625 62.890625 96.09375 63.28125 
L 96.09375 56.640625 
Q 91.40625 57.03125 85.546875 57.03125 
Q 85.15625 45.703125 82.8125 33.390625 
Q 80.46875 21.09375 75.390625 12.5 
Q 76.5625 8.984375 83 4.296875 
Q 89.453125 -0.390625 96.484375 -2.734375 
Q 91.796875 -5.46875 90.234375 -10.15625 
Q 83.59375 -6.640625 78.90625 -2.53125 
Q 74.21875 1.5625 70.3125 6.640625 
Q 65.234375 1.953125 59.953125 -1.75 
Q 54.6875 -5.46875 44.53125 -10.9375 
Q 42.578125 -6.640625 37.890625 -3.90625 
Q 42.96875 -3.125 51.953125 2.140625 
Q 60.9375 7.421875 65.625 12.5 
Q 62.5 19.140625 60.734375 26.171875 
Q 58.984375 33.203125 57.421875 42.1875 
z
M 17.1875 34.765625 
Q 23.828125 29.296875 30.078125 24.609375 
Q 33.203125 29.6875 34.375 37.5 
Q 38.28125 35.546875 42.1875 34.375 
Q 38.671875 25.390625 35.9375 19.53125 
L 46.875 8.59375 
Q 43.359375 5.859375 40.234375 2.734375 
Q 37.5 7.03125 31.640625 12.890625 
Q 28.515625 9.375 24.21875 4.875 
Q 19.921875 0.390625 10.9375 -6.640625 
Q 7.8125 -2.734375 3.90625 -0.390625 
Q 8.984375 1.953125 14.84375 6.25 
Q 20.703125 10.546875 26.171875 18.359375 
Q 20.703125 23.046875 13.28125 29.296875 
L 17.1875 34.765625 
z
M 63.671875 46.09375 
Q 64.0625 42.1875 65.8125 34.171875 
Q 67.578125 26.171875 70.703125 19.140625 
Q 74.609375 26.5625 76.359375 38.671875 
Q 78.125 50.78125 77.734375 57.03125 
L 64.0625 57.03125 
Q 60.9375 48.828125 58.203125 44.53125 
Q 60.9375 44.53125 63.671875 46.09375 
z
M 39.0625 65.625 
Q 44.921875 65.625 49.609375 66.015625 
L 49.609375 59.375 
Q 44.921875 59.765625 39.453125 59.765625 
L 15.625 59.765625 
Q 9.375 59.765625 4.296875 59.375 
L 4.296875 66.015625 
Q 9.375 65.625 15.625 65.625 
z
M 17.578125 57.03125 
Q 21.875 54.6875 25.390625 51.953125 
Q 23.828125 50.78125 20.3125 45.3125 
Q 16.40625 39.453125 10.546875 31.25 
Q 7.03125 33.59375 3.515625 35.546875 
Q 8.59375 40.234375 12.296875 46.484375 
Q 16.015625 52.734375 17.578125 57.03125 
z
M 38.671875 56.640625 
Q 41.015625 53.125 44.53125 48.4375 
Q 48.046875 43.75 50.78125 40.234375 
Q 47.265625 38.28125 44.140625 35.546875 
Q 36.328125 46.875 32.421875 51.953125 
Q 35.546875 53.515625 38.671875 56.640625 
z
M 28.515625 82.03125 
Q 31.640625 76.171875 33.984375 69.921875 
Q 30.46875 68.359375 26.5625 66.796875 
Q 24.21875 72.65625 21.09375 79.296875 
Q 24.609375 80.46875 28.515625 82.03125 
z
" id="SimHei-25928"/>
      <path d="M 77.34375 75 
Q 85.15625 75 92.96875 75.390625 
L 92.96875 68.75 
Q 86.71875 69.140625 78.125 69.140625 
L 66.40625 69.140625 
L 66.40625 60.546875 
L 89.453125 60.546875 
Q 89.0625 55.46875 89.0625 42.578125 
Q 89.0625 29.6875 89.453125 25.390625 
L 66.015625 25.390625 
Q 65.234375 16.796875 60.15625 8.203125 
Q 73.046875 0.390625 95.3125 -0.390625 
Q 91.796875 -3.90625 91.40625 -8.59375 
Q 69.921875 -6.25 55.46875 2.734375 
Q 46.875 -5.078125 32.421875 -10.9375 
Q 30.859375 -6.25 27.34375 -3.90625 
Q 42.578125 0 49.609375 7.03125 
Q 43.359375 12.109375 37.109375 19.921875 
Q 40.625 21.484375 42.96875 24.21875 
Q 48.828125 16.40625 54.6875 12.5 
Q 57.421875 16.015625 58.984375 25.390625 
L 36.71875 25.390625 
Q 37.109375 29.6875 37.109375 42.1875 
Q 37.109375 54.6875 36.71875 60.546875 
L 59.375 60.546875 
L 59.375 69.140625 
L 52.34375 69.140625 
Q 39.84375 69.140625 35.9375 68.75 
L 33.203125 68.75 
L 33.203125 75.390625 
Q 40.234375 75 53.125 75 
z
M 32.8125 78.125 
Q 29.296875 70.703125 23.4375 57.421875 
L 23.4375 8.203125 
Q 23.4375 -1.5625 23.828125 -9.375 
L 16.015625 -9.375 
Q 16.40625 -1.171875 16.40625 8.203125 
L 16.40625 45.3125 
Q 11.71875 37.890625 8.203125 33.984375 
Q 6.640625 36.328125 3.125 39.453125 
Q 7.421875 43.75 14.0625 54.875 
Q 20.703125 66.015625 24.609375 81.25 
Q 28.125 79.296875 32.8125 78.125 
z
M 81.640625 31.640625 
L 81.640625 39.84375 
L 66.40625 39.84375 
L 66.40625 31.640625 
z
M 81.640625 45.703125 
L 81.640625 53.90625 
L 66.40625 53.90625 
L 66.40625 45.703125 
z
M 59.375 31.640625 
L 59.375 39.84375 
L 44.140625 39.84375 
L 44.140625 31.640625 
z
M 59.375 45.703125 
L 59.375 53.90625 
L 44.140625 53.90625 
L 44.140625 45.703125 
z
" id="SimHei-20415"/>
      <path d="M 48.828125 13.671875 
Q 54.6875 6.640625 60.546875 3.90625 
L 60.546875 28.125 
L 51.5625 28.125 
Q 48.828125 28.125 41.796875 27.734375 
L 41.796875 34.375 
Q 47.65625 33.984375 51.5625 33.984375 
L 60.546875 33.984375 
L 60.546875 41.015625 
L 48.046875 41.015625 
Q 44.53125 41.015625 38.28125 40.625 
L 38.28125 47.265625 
Q 44.140625 46.875 47.265625 46.875 
L 60.546875 46.875 
L 60.546875 53.125 
L 51.5625 53.125 
Q 49.21875 53.125 41.796875 52.734375 
L 41.796875 59.375 
Q 47.65625 58.984375 50.78125 58.984375 
L 60.546875 58.984375 
L 60.546875 66.796875 
Q 46.875 66.796875 38.671875 66.40625 
L 38.671875 73.046875 
Q 47.265625 72.65625 60.546875 72.65625 
Q 60.546875 75.390625 60.15625 82.03125 
L 68.359375 82.03125 
Q 67.96875 76.953125 67.96875 72.65625 
L 83.203125 72.65625 
Q 85.546875 72.65625 93.359375 73.046875 
L 93.359375 66.40625 
Q 86.328125 66.796875 84.765625 66.796875 
L 67.96875 66.796875 
L 67.96875 58.984375 
L 87.890625 58.984375 
Q 87.5 53.125 87.5 46.875 
Q 90.234375 46.875 96.09375 47.265625 
L 96.09375 40.625 
Q 89.84375 41.015625 87.5 41.015625 
Q 87.5 32.8125 87.890625 28.125 
L 67.96875 28.125 
L 67.96875 19.53125 
L 81.640625 19.53125 
Q 83.203125 19.53125 91.40625 19.921875 
L 91.40625 12.890625 
Q 84.765625 13.28125 81.640625 13.28125 
L 67.96875 13.28125 
L 67.96875 1.5625 
Q 75 0 81.4375 -0.1875 
Q 87.890625 -0.390625 95.703125 0.78125 
Q 93.75 -2.734375 93.359375 -7.8125 
Q 82.421875 -7.8125 75.1875 -7.03125 
Q 67.96875 -6.25 63.46875 -4.6875 
Q 58.984375 -3.125 54.875 0 
Q 50.78125 3.125 46.484375 7.03125 
Q 42.96875 -1.5625 33.984375 -10.15625 
Q 31.25 -7.421875 27.734375 -5.46875 
Q 33.59375 -1.171875 37.6875 6.4375 
Q 41.796875 14.0625 42.96875 23.046875 
Q 46.875 21.484375 51.5625 20.3125 
Q 49.21875 17.578125 48.828125 13.671875 
z
M 18.75 69.53125 
Q 18.75 76.171875 18.359375 80.859375 
L 26.171875 80.859375 
Q 25.78125 76.5625 25.78125 69.53125 
L 25.78125 58.59375 
Q 30.078125 58.59375 35.9375 58.984375 
L 35.9375 51.953125 
Q 30.078125 52.34375 25.78125 52.34375 
L 25.78125 36.328125 
Q 28.90625 37.5 33.984375 39.84375 
Q 33.984375 37.109375 34.375 32.8125 
Q 30.859375 31.25 25.78125 28.90625 
L 25.78125 3.90625 
Q 25.78125 -2.34375 22.65625 -5.265625 
Q 19.53125 -8.203125 10.546875 -8.984375 
Q 9.765625 -5.859375 7.421875 -0.78125 
Q 14.84375 -1.5625 16.796875 -0.78125 
Q 18.75 0 18.75 5.46875 
L 18.75 25.78125 
Q 16.015625 24.609375 13.078125 23.4375 
Q 10.15625 22.265625 5.859375 20.3125 
Q 5.078125 23.4375 3.125 28.90625 
Q 8.203125 30.078125 11.71875 31.046875 
Q 15.234375 32.03125 18.75 33.59375 
L 18.75 52.34375 
Q 10.546875 52.34375 4.6875 51.953125 
L 4.6875 58.984375 
Q 10.15625 58.59375 18.75 58.59375 
z
M 80.46875 33.984375 
L 80.46875 41.015625 
L 67.96875 41.015625 
L 67.96875 33.984375 
z
M 80.46875 46.875 
L 80.46875 53.125 
L 67.96875 53.125 
L 67.96875 46.875 
z
" id="SimHei-25463"/>
     </defs>
     <g transform="translate(392 273.74025)scale(0.1 -0.1)">
      <use xlink:href="#SimHei-39640"/>
      <use x="100" xlink:href="#SimHei-25928"/>
      <use x="200" xlink:href="#SimHei-20415"/>
      <use x="300" xlink:href="#SimHei-25463"/>
     </g>
    </g>
    <g id="patch_34">
     <path d="M 364 287.959 
L 384 287.959 
L 384 280.959 
L 364 280.959 
z
" style="fill:#2ca02c;"/>
    </g>
    <g id="text_17">
     <!-- 长期习惯 -->
     <defs>
      <path d="M 27.34375 43.75 
L 27.34375 69.53125 
Q 27.34375 73.046875 26.953125 79.6875 
L 35.546875 79.6875 
Q 35.15625 72.265625 35.15625 69.921875 
L 35.15625 43.75 
L 82.421875 43.75 
Q 87.5 43.75 93.359375 44.140625 
L 93.359375 36.328125 
Q 85.9375 36.71875 79.6875 36.71875 
L 57.03125 36.71875 
Q 59.765625 28.90625 65.421875 21.484375 
Q 71.09375 14.0625 78.90625 9.171875 
Q 86.71875 4.296875 92.96875 2.34375 
Q 87.890625 -0.78125 85.15625 -5.46875 
Q 76.953125 -1.171875 69.921875 4.6875 
Q 62.890625 10.546875 57.421875 18.9375 
Q 51.953125 27.34375 49.21875 36.71875 
L 35.15625 36.71875 
L 35.15625 5.859375 
Q 46.484375 12.890625 50.390625 16.40625 
Q 53.125 12.109375 55.859375 8.59375 
Q 48.4375 5.078125 41.015625 -0.1875 
Q 33.59375 -5.46875 30.078125 -8.984375 
Q 26.953125 -4.6875 24.21875 -1.5625 
Q 27.34375 1.5625 27.34375 6.640625 
L 27.34375 36.71875 
L 18.359375 36.71875 
Q 12.890625 36.71875 5.859375 36.328125 
L 5.859375 44.140625 
Q 12.890625 43.75 17.578125 43.75 
z
M 76.5625 73.4375 
Q 72.265625 69.921875 63.859375 61.515625 
Q 55.46875 53.125 47.265625 45.3125 
Q 43.75 50 41.40625 51.5625 
Q 48.046875 56.25 56.25 64.84375 
Q 64.453125 73.4375 68.75 79.6875 
Q 71.875 76.953125 76.5625 73.4375 
z
" id="SimHei-38271"/>
      <path d="M 76.5625 -0.390625 
Q 85.546875 -1.5625 84.765625 2.734375 
L 84.765625 24.609375 
L 67.578125 24.609375 
Q 66.796875 15.234375 63.28125 6.640625 
Q 59.765625 -1.953125 53.125 -9.375 
Q 50.390625 -5.859375 45.703125 -4.296875 
Q 52.34375 2.34375 55.65625 9.765625 
Q 58.984375 17.1875 59.5625 24.609375 
Q 60.15625 32.03125 60.15625 48.828125 
Q 60.15625 66.015625 59.765625 76.171875 
L 92.96875 76.171875 
Q 92.578125 68.75 92.578125 58.203125 
L 92.578125 0.78125 
Q 92.578125 -4.6875 89.0625 -6.640625 
Q 85.546875 -8.59375 79.6875 -9.375 
Q 79.6875 -5.078125 76.5625 -0.390625 
z
M 14.84375 67.1875 
Q 14.84375 73.046875 14.453125 80.078125 
L 22.65625 80.078125 
Q 22.265625 72.265625 22.265625 67.1875 
L 39.84375 67.1875 
Q 39.84375 74.609375 39.453125 80.078125 
L 48.046875 80.078125 
Q 47.65625 73.4375 47.65625 67.1875 
Q 50.390625 67.1875 54.6875 67.578125 
L 54.6875 60.9375 
Q 50.78125 61.328125 47.65625 61.328125 
L 47.65625 24.21875 
Q 50.78125 24.21875 54.6875 24.609375 
L 54.6875 17.96875 
Q 47.265625 18.359375 40.234375 18.359375 
L 19.140625 18.359375 
Q 10.546875 18.359375 4.296875 17.96875 
L 4.296875 24.609375 
Q 10.15625 24.21875 14.84375 24.21875 
L 14.84375 61.328125 
Q 11.328125 61.328125 6.640625 60.9375 
L 6.640625 67.578125 
Q 10.9375 67.1875 14.84375 67.1875 
z
M 84.765625 52.734375 
L 84.765625 70.3125 
L 67.96875 70.3125 
L 67.96875 52.734375 
z
M 84.765625 30.46875 
L 84.765625 46.875 
L 67.96875 46.875 
L 67.96875 30.46875 
z
M 25 11.328125 
Q 22.265625 10.15625 18.15625 4.484375 
Q 14.0625 -1.171875 10.15625 -5.46875 
Q 6.25 -2.734375 3.515625 -1.171875 
Q 7.03125 1.5625 10.9375 6.4375 
Q 14.84375 11.328125 17.1875 16.015625 
L 25 11.328125 
z
M 39.84375 52.734375 
L 39.84375 61.328125 
L 22.265625 61.328125 
L 22.265625 52.734375 
z
M 39.84375 24.21875 
L 39.84375 32.8125 
L 22.265625 32.8125 
L 22.265625 24.21875 
z
M 39.84375 38.671875 
L 39.84375 46.875 
L 22.265625 46.875 
L 22.265625 38.671875 
z
M 44.53125 -1.171875 
Q 38.28125 8.203125 34.765625 11.328125 
Q 37.109375 12.890625 39.84375 16.015625 
Q 44.53125 11.328125 50.78125 4.296875 
Q 47.65625 1.953125 44.53125 -1.171875 
z
" id="SimHei-26399"/>
      <path d="M 39.0625 67.578125 
Q 27.734375 67.578125 17.578125 67.1875 
L 17.578125 75 
Q 30.46875 74.609375 37.109375 74.609375 
L 85.9375 74.609375 
Q 85.15625 69.140625 84.765625 57.8125 
L 83.203125 5.859375 
Q 82.421875 -4.6875 76.953125 -6.640625 
Q 71.484375 -8.59375 58.984375 -9.375 
Q 57.8125 -4.6875 54.6875 0 
Q 66.015625 -0.78125 70.3125 0.1875 
Q 74.609375 1.171875 75.390625 7.421875 
L 76.953125 67.578125 
z
M 65.625 32.421875 
Q 65.625 28.125 66.40625 24.21875 
Q 44.140625 16.015625 19.921875 3.90625 
Q 17.96875 8.59375 14.453125 12.890625 
Q 19.53125 14.0625 34.5625 19.53125 
Q 49.609375 25 65.625 32.421875 
z
M 28.125 59.765625 
Q 44.921875 50 53.125 43.75 
Q 51.5625 41.40625 47.65625 36.328125 
Q 40.625 42.96875 23.4375 53.125 
Q 26.171875 56.640625 28.125 59.765625 
z
" id="SimHei-20064"/>
      <path d="M 41.015625 57.03125 
Q 37.5 57.03125 33.984375 56.640625 
L 33.984375 63.28125 
Q 37.109375 62.890625 41.40625 62.890625 
Q 41.796875 71.09375 42.1875 77.34375 
L 89.0625 77.34375 
Q 88.28125 71.09375 87.890625 62.890625 
Q 91.796875 62.890625 96.484375 63.28125 
L 96.484375 56.640625 
Q 91.796875 57.03125 87.5 57.03125 
Q 86.71875 49.21875 85.9375 41.796875 
L 39.84375 41.796875 
Q 40.625 49.21875 41.015625 57.03125 
z
M 23.828125 82.03125 
Q 23.4375 76.953125 23.4375 69.53125 
L 23.4375 10.9375 
Q 23.4375 1.5625 23.828125 -7.8125 
L 16.40625 -7.8125 
Q 16.796875 1.5625 16.796875 10.9375 
L 16.796875 69.921875 
Q 16.796875 76.171875 16.40625 82.03125 
L 23.828125 82.03125 
z
M 88.28125 35.546875 
Q 87.890625 28.515625 87.890625 22.265625 
Q 87.890625 16.40625 88.671875 8.984375 
L 80.46875 8.984375 
L 80.46875 30.46875 
L 49.21875 30.46875 
L 49.21875 8.203125 
L 41.40625 8.203125 
Q 41.796875 15.625 41.796875 22.265625 
Q 41.796875 28.90625 41.40625 35.546875 
L 88.28125 35.546875 
z
M 32.03125 -1.953125 
Q 46.875 -0.78125 53.125 4.875 
Q 59.375 10.546875 60.15625 25.390625 
Q 64.453125 24.609375 69.140625 24.21875 
Q 67.578125 19.140625 65.234375 10.9375 
Q 62.890625 2.734375 56.046875 -2.34375 
Q 49.21875 -7.421875 37.5 -10.15625 
Q 35.546875 -5.46875 32.03125 -1.953125 
z
M 73.046875 10.9375 
Q 88.671875 1.953125 95.703125 -3.125 
Q 92.578125 -5.46875 90.234375 -8.984375 
Q 83.59375 -3.515625 69.140625 5.46875 
Q 71.09375 7.8125 73.046875 10.9375 
z
M 3.125 37.109375 
Q 5.078125 42.96875 7.421875 58.59375 
Q 10.9375 57.8125 14.453125 57.421875 
Q 11.71875 42.1875 10.15625 35.9375 
Q 6.640625 36.71875 3.125 37.109375 
z
M 79.6875 47.265625 
L 80.46875 57.03125 
L 66.796875 57.03125 
L 66.015625 47.265625 
z
M 80.859375 62.890625 
L 81.640625 72.265625 
L 67.96875 72.265625 
L 67.1875 62.890625 
z
M 59.375 47.265625 
L 60.15625 57.03125 
L 47.65625 57.03125 
L 46.875 47.265625 
z
M 60.546875 62.890625 
L 61.328125 72.265625 
L 48.828125 72.265625 
L 48.046875 62.890625 
z
M 30.078125 41.015625 
Q 29.296875 44.921875 25.78125 57.03125 
Q 28.90625 58.203125 32.03125 58.984375 
Q 35.15625 48.046875 36.71875 42.96875 
Q 32.8125 42.1875 30.078125 41.015625 
z
" id="SimHei-24815"/>
     </defs>
     <g transform="translate(392 287.959)scale(0.1 -0.1)">
      <use xlink:href="#SimHei-38271"/>
      <use x="100" xlink:href="#SimHei-26399"/>
      <use x="200" xlink:href="#SimHei-20064"/>
      <use x="300" xlink:href="#SimHei-24815"/>
     </g>
    </g>
    <g id="patch_35">
     <path d="M 364 302.334 
L 384 302.334 
L 384 295.334 
L 364 295.334 
z
" style="fill:#d62728;"/>
    </g>
    <g id="text_18">
     <!-- 舒适 -->
     <defs>
      <path d="M 32.8125 75.390625 
Q 45.703125 67.96875 53.515625 62.109375 
Q 49.21875 59.375 47.265625 55.859375 
Q 42.578125 61.71875 29.6875 71.09375 
Q 23.046875 62.109375 17.96875 56.25 
Q 22.265625 55.859375 26.953125 55.859375 
L 35.546875 55.859375 
Q 39.84375 55.859375 43.75 56.25 
L 43.75 49.21875 
Q 39.84375 49.609375 33.203125 49.609375 
L 33.203125 40.625 
Q 41.40625 40.625 45.703125 41.015625 
L 45.703125 33.984375 
Q 41.015625 34.375 33.203125 34.375 
L 33.203125 24.21875 
L 47.265625 24.21875 
Q 46.875 20.703125 46.875 9.375 
Q 46.875 -1.5625 47.265625 -6.25 
L 39.84375 -6.25 
L 39.84375 -0.390625 
L 19.140625 -0.390625 
L 19.140625 -8.984375 
L 11.328125 -8.984375 
Q 11.71875 -3.515625 11.71875 7.421875 
Q 11.71875 18.75 11.328125 24.21875 
L 26.171875 24.21875 
L 26.171875 34.375 
Q 12.5 34.375 8.203125 33.984375 
L 8.203125 41.015625 
Q 12.890625 40.625 26.171875 40.625 
L 26.171875 49.609375 
Q 21.875 49.609375 17.578125 49.21875 
L 17.578125 55.859375 
Q 12.890625 50.78125 9.375 48.4375 
Q 6.640625 51.5625 3.125 53.515625 
Q 11.328125 59.375 17.765625 66.796875 
Q 24.21875 74.21875 26.953125 82.8125 
Q 31.640625 80.46875 35.546875 78.125 
z
M 95.3125 44.140625 
Q 94.140625 40.625 93.15625 35.734375 
Q 92.1875 30.859375 91.015625 25.78125 
Q 86.328125 26.953125 83.203125 26.953125 
Q 84.375 30.46875 86.328125 37.890625 
L 74.609375 37.890625 
L 74.609375 -2.34375 
Q 74.609375 -10.546875 59.375 -10.9375 
Q 58.203125 -6.25 56.25 -1.953125 
Q 63.28125 -2.734375 65.625 -2.34375 
Q 67.96875 -1.953125 67.578125 1.5625 
L 67.578125 37.890625 
L 60.15625 37.890625 
Q 54.6875 37.890625 49.21875 37.5 
L 49.21875 44.921875 
Q 54.296875 44.140625 60.15625 44.140625 
z
M 91.015625 76.171875 
Q 88.671875 71.484375 84.171875 65.421875 
Q 79.6875 59.375 74.21875 53.125 
L 78.125 49.609375 
Q 75 47.265625 72.65625 44.921875 
Q 70.3125 47.65625 66.203125 50.78125 
Q 62.109375 53.90625 57.8125 56.640625 
L 62.890625 61.71875 
Q 65.625 59.375 69.53125 56.640625 
Q 71.875 59.375 74.21875 62.890625 
Q 76.5625 66.40625 78.515625 69.921875 
L 64.0625 69.921875 
Q 57.03125 69.921875 50.78125 69.53125 
L 50.78125 76.5625 
Q 57.03125 76.171875 64.0625 76.171875 
z
M 39.84375 5.859375 
L 39.84375 17.96875 
L 19.140625 17.96875 
L 19.140625 5.859375 
z
" id="SimHei-33298"/>
      <path d="M 85.9375 72.265625 
Q 80.859375 72.265625 64.453125 70.703125 
L 64.453125 56.25 
Q 85.15625 56.25 91.40625 56.640625 
L 91.40625 49.609375 
Q 85.15625 50 64.453125 50 
L 64.453125 38.671875 
L 84.765625 38.671875 
Q 84.375 28.90625 84.375 23.046875 
Q 84.375 17.1875 84.765625 7.03125 
L 77.34375 7.03125 
L 77.34375 11.71875 
L 45.3125 11.71875 
L 45.3125 6.640625 
L 37.890625 6.640625 
Q 38.28125 16.40625 38.28125 22.65625 
Q 38.28125 28.90625 37.890625 38.671875 
L 57.421875 38.671875 
L 57.421875 50 
Q 37.109375 50 30.859375 49.609375 
L 30.859375 56.640625 
Q 35.9375 56.25 57.421875 56.25 
L 57.421875 69.921875 
Q 52.734375 69.53125 38.671875 67.96875 
Q 37.890625 71.484375 35.15625 74.609375 
Q 48.046875 74.609375 60.546875 76.171875 
Q 73.046875 77.734375 82.03125 80.078125 
Q 82.8125 77.34375 85.9375 72.265625 
z
M 25.390625 44.53125 
Q 25 37.5 25 30.078125 
L 25 9.765625 
Q 35.15625 1.171875 56.640625 0.1875 
Q 78.125 -0.78125 94.140625 2.34375 
Q 91.796875 -1.953125 90.234375 -7.03125 
L 64.0625 -7.03125 
Q 54.296875 -7.03125 45.890625 -5.859375 
Q 37.5 -4.6875 29.875 -0.578125 
Q 22.265625 3.515625 18.9375 -0.1875 
Q 15.625 -3.90625 12.109375 -8.59375 
Q 8.203125 -5.46875 5.078125 -3.90625 
Q 13.671875 4.296875 17.96875 7.421875 
L 17.96875 38.28125 
Q 11.71875 38.28125 6.25 37.890625 
L 6.25 44.921875 
Q 12.109375 44.53125 17.1875 44.53125 
z
M 77.34375 17.96875 
L 77.34375 32.421875 
L 45.3125 32.421875 
L 45.3125 17.96875 
z
M 16.015625 75.78125 
Q 22.65625 68.75 27.734375 61.328125 
Q 23.046875 58.59375 21.484375 56.640625 
Q 17.1875 63.671875 10.15625 71.09375 
Q 13.671875 73.046875 16.015625 75.78125 
z
" id="SimHei-36866"/>
     </defs>
     <g transform="translate(392 302.334)scale(0.1 -0.1)">
      <use xlink:href="#SimHei-33298"/>
      <use x="100" xlink:href="#SimHei-36866"/>
     </g>
    </g>
   </g>
  </g>
 </g>
 <defs>
  <clipPath id="pc824e9a6a5">
   <rect height="266.112" width="288" x="57.6" y="41.472"/>
  </clipPath>
 </defs>
</svg>
